<?xml version="1.0" encoding="utf-8"?>
<!-- Generator: Adobe Illustrator 24.0.3, SVG Export Plug-In . SVG Version: 6.00 Build 0)  -->
<svg version="1.1" id="Acceptance" xmlns="http://www.w3.org/2000/svg" xmlns:xlink="http://www.w3.org/1999/xlink" x="0px" y="0px"
	 viewBox="0 0 100 100" style="enable-background:new 0 0 100 100;" xml:space="preserve">
<style type="text/css">
	.st0{fill:#006064;}
</style>
<title>Artboard 1</title>
<path class="st0" d="M89.6,46.3c-0.5-3.6-3.5-6.2-7.1-6.2H69.9c1.9-5.3,2.8-10.9,2.6-16.5c0-1-0.1-1.6-0.1-2
	c-0.1-3.8-3.3-6.8-7.1-6.7c-0.3,0-0.5,0-0.8,0.1c-3.5,0.5-6,3.6-5.9,7.1v1.5c0,10.9-14,17-24.6,19.7c-0.8-1.9-2.7-3.1-4.7-3.1H12.1
	c-1,0-1.7,0.8-1.7,1.7v7c0,1,0.8,1.7,1.7,1.7l0,0c0.9,0,1.7-0.8,1.7-1.7l0,0v-5.3h15.5c0.9,0,1.7,0.8,1.7,1.7v34.5
	c0,0.9-0.8,1.7-1.7,1.7l0,0H13.8V57.2c0-1-0.8-1.7-1.7-1.7l0,0c-1,0-1.7,0.8-1.7,1.7v26.1c0,1,0.8,1.7,1.7,1.7h17.2
	c2,0,3.9-1.2,4.7-3.1l2.4,0.6c6,1.6,9.3,2.4,17.4,2.4h18.3c3.6,0.1,6.7-2.7,7.1-6.3c0.1-1.6-0.3-3.1-1.2-4.4
	c3.6-1.3,5.5-5.2,4.2-8.8c-0.2-0.5-0.4-1.1-0.8-1.5c3.6-1.3,5.5-5.2,4.2-8.8c-0.2-0.5-0.5-1.1-0.8-1.5C88,52.5,90,49.5,89.6,46.3z
	 M82.8,50.5h-8.5c-0.9,0-1.6,0.6-1.8,1.5c-0.1,0.9,0.5,1.8,1.4,2c0.1,0,0.2,0,0.3,0h5c1.9,0,3.5,1.4,3.6,3.3
	c0.1,1.9-1.3,3.5-3.2,3.6c-0.1,0-0.1,0-0.2,0h-8.5c-0.9,0-1.6,0.6-1.8,1.4c-0.2,0.9,0.5,1.8,1.4,2c0.1,0,0.2,0,0.3,0h5.2
	c1.9,0,3.4,1.5,3.5,3.4c0,0,0,0.1,0,0.1c-0.1,1.9-1.7,3.4-3.6,3.4h-8.4c-0.9,0-1.6,0.6-1.8,1.4c-0.1,0.9,0.5,1.8,1.4,2
	c0.1,0,0.2,0,0.3,0h5.1c1.7,0,3.1,1.1,3.5,2.7c0.4,1.9-0.8,3.7-2.7,4.1c-0.2,0-0.5,0.1-0.7,0.1H53.9c-7.6,0-10.6-0.8-16.5-2.3
	l-2.9-0.7V46.7c12.5-3,27.6-10.2,27.6-23.1V22c0-1.7,1.1-3.1,2.7-3.5c1.9-0.4,3.7,0.8,4.1,2.7c0.1,0.2,0.1,0.5,0.1,0.7l0,0
	c0,0.8,0.9,9.9-2.8,18.3h-5.7c-0.9,0-1.6,0.6-1.8,1.4c-0.1,0.9,0.5,1.8,1.4,2c0.1,0,0.2,0,0.3,0h22.2c1.9,0,3.5,1.4,3.6,3.3
	c0.1,1.9-1.3,3.5-3.2,3.7C82.9,50.5,82.8,50.5,82.8,50.5z"/>
</svg>
