<?xml version="1.0" encoding="utf-8"?>
<!-- Generator: Adobe Illustrator 24.0.3, SVG Export Plug-In . SVG Version: 6.00 Build 0)  -->
<svg version="1.1" id="Pfeil" xmlns="http://www.w3.org/2000/svg" xmlns:xlink="http://www.w3.org/1999/xlink" x="0px" y="0px"
	 viewBox="0 0 100 100" style="enable-background:new 0 0 100 100;" xml:space="preserve">
<style type="text/css">
	.st0{fill:#006064;}
</style>
<title>Artboard 1</title>
<path class="st0" d="M84.8,49.3H18.8l19.9-17c0.6-0.4,0.7-1.3,0.3-1.8c-0.4-0.6-1.3-0.7-1.8-0.3c-0.1,0-0.1,0.1-0.2,0.1L14.4,49.7
	c-0.3,0.3-0.5,0.6-0.5,1c0,0.4,0.2,0.8,0.5,1l23.7,18c0.5,0.5,1.4,0.4,1.8-0.1c0,0,0,0,0,0c0.4-0.6,0.3-1.4-0.2-1.8c0,0,0,0,0,0
	L19.1,51.9h65.6c0.7,0.1,1.4-0.5,1.4-1.2c0.1-0.7-0.5-1.4-1.2-1.4C84.9,49.3,84.8,49.3,84.8,49.3z"/>
</svg>
