<?xml version="1.0" encoding="utf-8"?>
<!-- Generator: Adobe Illustrator 24.0.3, SVG Export Plug-In . SVG Version: 6.00 Build 0)  -->
<svg version="1.1" id="Layer_5" xmlns="http://www.w3.org/2000/svg" xmlns:xlink="http://www.w3.org/1999/xlink" x="0px" y="0px"
	 viewBox="0 0 100 100" style="enable-background:new 0 0 100 100;" xml:space="preserve">
<style type="text/css">
	.st0{fill:#006064;}
</style>
<title>Artboard 1</title>
<path class="st0" d="M83.6,43.2H72.4v-2.9c0-0.7-0.6-1.3-1.4-1.3H41.5c-0.8,0-1.4,0.6-1.4,1.4c0,0.8,0.6,1.4,1.4,1.4h28.2v10.4
	c0,9.2-4.9,17.8-12.9,22.4H30.6c-8-4.7-12.9-13.2-12.9-22.4V41.7h9.2c0.8,0,1.4-0.6,1.4-1.4c0-0.8-0.6-1.4-1.4-1.4l0,0H16.4
	c-0.8,0-1.4,0.6-1.4,1.4v0v11.8c0,8.7,4,17,10.8,22.4h-9.4c-0.8,0-1.4,0.6-1.4,1.4c0,0,0,0,0,0c0,5,4,9,9,9h42.7c5,0,9-4,9-9
	c0-0.8-0.6-1.4-1.3-1.4c0,0,0,0,0,0H61.6c2.5-2,4.6-4.4,6.4-7.1h3.9c7.3,0,13.1-5.9,13.1-13.2v-9.8C85,43.8,84.4,43.2,83.6,43.2
	L83.6,43.2z M72.8,77.3c-0.6,2.9-3.2,4.9-6.1,4.9H24c-2.9,0-5.5-2.1-6.1-4.9H72.8z M72.4,52.2v-0.8h4.4v2.9c0,2.8-2.2,5-5,5h-0.3
	C72.1,57,72.4,54.6,72.4,52.2z M82.3,54.4c0,5.8-4.7,10.4-10.4,10.4h-2.3c0.4-0.9,0.8-1.8,1.2-2.7h1.2c4.3,0,7.7-3.4,7.7-7.7v-4.3
	c0-0.8-0.6-1.4-1.4-1.4l0,0h-5.7V46h9.8V54.4z"/>
<path class="st0" d="M42.9,24.3c1.4,1.7,1.4,4.1,0,5.8L42.2,31c-0.5,0.6-0.4,1.4,0.2,1.9c0.2,0.2,0.5,0.3,0.8,0.3
	c0.4,0,0.8-0.2,1.1-0.5l0.7-0.9c2.2-2.7,2.2-6.5,0-9.2l-0.7-0.9c-1-1.3-1-3.2,0-4.4c0.4-0.6,0.3-1.5-0.4-1.9
	c-0.6-0.4-1.3-0.3-1.8,0.2c-1.8,2.3-1.8,5.6,0,7.9L42.9,24.3z"/>
<path class="st0" d="M50.5,27.3c1.4,1.7,1.4,4.1,0,5.8l-0.7,0.9c-0.4,0.6-0.3,1.5,0.3,1.9c0.6,0.5,1.4,0.4,1.9-0.2l0.7-0.9
	c2.2-2.7,2.2-6.5,0-9.2l-0.7-0.9c-1-1.3-1-3.2,0-4.5c0.4-0.6,0.3-1.5-0.4-1.9c-0.6-0.4-1.3-0.3-1.8,0.2c-1.8,2.3-1.8,5.6,0,7.9
	L50.5,27.3z"/>
<path class="st0" d="M35.3,27.3c1.4,1.7,1.4,4.1,0,5.8l-0.7,0.9c-0.4,0.6-0.3,1.5,0.4,1.9c0.6,0.4,1.3,0.3,1.8-0.2l0.7-0.9
	c2.2-2.7,2.2-6.5,0-9.2l-0.7-0.9c-1-1.3-1-3.2,0-4.5c0.4-0.6,0.3-1.5-0.4-1.9c-0.6-0.4-1.3-0.3-1.8,0.2c-1.8,2.3-1.8,5.6,0,7.9
	L35.3,27.3z"/>
<path class="st0" d="M34.6,39c-0.8,0-1.4,0.6-1.3,1.4c0,0.8,0.6,1.4,1.4,1.3c0.8,0,1.4-0.6,1.3-1.4c0-0.4-0.2-0.7-0.4-0.9
	C35.3,39.1,35,39,34.6,39z"/>
<path class="st0" d="M59.4,67.8c4.1-4.2,6.4-9.8,6.4-15.6c0.1-0.8-0.5-1.4-1.2-1.5c-0.8-0.1-1.4,0.5-1.5,1.2c0,0.1,0,0.2,0,0.2
	c0,5.1-2.1,10-5.7,13.7c-0.5,0.5-0.5,1.4,0,1.9c0,0,0,0,0,0c0.3,0.3,0.6,0.4,1,0.4C58.8,68.2,59.2,68.1,59.4,67.8z"/>
<path class="st0" d="M54,71.6c0.2,0,0.5-0.1,0.7-0.2l0,0c0.7-0.3,1-1.1,0.7-1.8c-0.3-0.7-1.1-1-1.8-0.7c-0.1,0-0.1,0.1-0.2,0.1l0,0
	c-0.7,0.4-0.9,1.2-0.5,1.9C53.1,71.4,53.5,71.6,54,71.6z"/>
</svg>
