<?xml version="1.0" encoding="utf-8"?>
<!-- Generator: Adobe Illustrator 24.0.3, SVG Export Plug-In . SVG Version: 6.00 Build 0)  -->
<svg version="1.1" id="Deathrate" xmlns="http://www.w3.org/2000/svg" xmlns:xlink="http://www.w3.org/1999/xlink" x="0px" y="0px"
	 viewBox="0 0 100 100" style="enable-background:new 0 0 100 100;" xml:space="preserve">
<style type="text/css">
	.st0{fill:#006064;}
</style>
<title>Artboard 1</title>
<path class="st0" d="M73.6,18.4h-5.1c-0.6,0-1,0.4-1,1c0,0.6,0.4,1,0.9,1.1c0,0,0,0,0.1,0h0.6v56.5H30.9V20.3h4.3v2.4
	c0,1.8,1.4,3.2,3.2,3.2c0,0,0,0,0,0h4.8c0.5,2.7,2.9,4.7,5.6,4.7h2.3c2.8,0,5.1-2,5.6-4.7h4.8c1.8,0,3.2-1.4,3.2-3.2c0,0,0,0,0,0
	v-4.5c0-1.8-1.4-3.2-3.2-3.2c0,0,0,0,0,0H38.4c-1.8,0-3.2,1.4-3.2,3.2c0,0,0,0,0,0v0h-6.6c-1.9,0-3.9,0.2-4.9,1.3
	c-0.8,0.7-1.2,1.7-1.3,2.8v41.1c0,0.6,0.4,1,1,1c0,0,0,0,0,0c0.6,0,1-0.4,1-1V22.9c0-0.6,0.2-1.2,0.7-1.6c0.7-0.6,1.6-0.9,2.5-0.9
	h1.4V78c0,0.6,0.4,1,1,1h40.3c0.6,0,1-0.4,1-1V20.4h2.4c1.1,0,2,0.9,2,2v58.5c0,1.1-0.9,2-2,2H26.4c-1.1,0-2-0.9-2-2V68.4
	c0-0.6-0.4-1-1-1c-0.6,0-1,0.4-1.1,0.9c0,0,0,0,0,0.1v12.5c0,2.3,1.8,4.1,4.1,4.1c0,0,0,0,0,0h47.2c2.3,0,4.1-1.8,4.1-4.1V22.5
	C77.7,20.2,75.8,18.4,73.6,18.4z M37.2,18.3c0-0.7,0.5-1.2,1.2-1.2c0,0,0,0,0,0h23.3c0.7,0,1.2,0.5,1.2,1.2c0,0,0,0,0,0v4.4
	c0,0.7-0.5,1.2-1.2,1.2c0,0,0,0,0,0h-5.8c-0.6,0-1,0.4-1,1c0,2-1.7,3.7-3.7,3.7h-2.3c-2,0-3.7-1.6-3.7-3.7c0-0.6-0.4-1-1-1h-5.9
	c-0.7,0-1.2-0.5-1.2-1.2c0,0,0,0,0,0L37.2,18.3z"/>
<path class="st0" d="M63,49h-5.4l-3.5-9.4c0-0.6-0.5-1-1-1s-1,0.5-1,1l-3.7,14.7l-3.6-10.5c-0.1-0.5-0.7-0.8-1.2-0.7
	c-0.3,0.1-0.5,0.3-0.6,0.5l-3,5.3h-3c-0.5,0-0.9,0.4-1,0.9c0,0.6,0.4,1,1,1h3.7c0,0,0.7-0.1,0.9-0.5l2.2-3.9l4,11.5c0,0.6,0.5,1,1,1
	s1-0.5,1-1l3.8-14.8l2.6,7c0.2,0.4,1,0.7,1,0.7h6.1c0.6,0,1-0.5,1-1.1c0-0.6-0.5-1-1-1L63,49z"/>
</svg>
