<?xml version="1.0" encoding="utf-8"?>
<!-- Generator: Adobe Illustrator 24.0.3, SVG Export Plug-In . SVG Version: 6.00 Build 0)  -->
<svg version="1.1" id="Layer_1" xmlns="http://www.w3.org/2000/svg" xmlns:xlink="http://www.w3.org/1999/xlink" x="0px" y="0px"
	 viewBox="0 0 100 100" style="enable-background:new 0 0 100 100;" xml:space="preserve">
<style type="text/css">
	.st0{fill:#006064;}
</style>
<title>Artboard 1</title>
<path class="st0" d="M89.6,79.5L54.3,16.9c-0.6-1.1-1.8-1.9-3.1-1.9c-1.3,0-2.5,0.6-3.2,1.7L28.1,48.7c-0.4,0.6-0.2,1.3,0.4,1.7
	c0.6,0.4,1.3,0.2,1.7-0.4l0,0L50,18c0.2-0.4,0.6-0.6,1.1-0.6c0.4,0,0.8,0.3,1,0.6l35.4,62.6c0.3,0.6,0.1,1.3-0.5,1.7
	c-0.2,0.1-0.4,0.2-0.6,0.2H13.6c-0.4,0-0.8-0.2-1.1-0.6c-0.2-0.4-0.2-0.8,0-1.2l12.9-22.4c0.3-0.6,0-1.4-0.6-1.7
	c-0.6-0.3-1.2-0.1-1.6,0.4L10.4,79.5c-1,1.8-0.4,4,1.4,5.1c0.6,0.3,1.2,0.5,1.8,0.5h72.9c2,0,3.7-1.7,3.7-3.7
	C90.1,80.7,90,80,89.6,79.5z"/>
<path class="st0" d="M55.3,40c-0.3-0.3-0.6-0.4-1-0.4l-7.8,0.2c-0.4,0-0.7,0.2-0.9,0.5c-0.2,0.3-0.3,0.6-0.3,1l4.2,21.7
	c0.1,0.6,0.6,1,1.2,1l0,0c0.6,0,1.1-0.4,1.2-1L55.6,41C55.7,40.6,55.6,40.3,55.3,40z M50.7,55.7l-2.6-13.5L53,42L50.7,55.7z"/>
<path class="st0" d="M48.3,70c0,1.4,1.1,2.5,2.5,2.5c1.4,0,2.5-1.1,2.5-2.5c0-1.4-1.1-2.5-2.5-2.5c0,0,0,0,0,0
	C49.4,67.5,48.3,68.6,48.3,70C48.3,70,48.3,70,48.3,70z"/>
</svg>
