<?xml version="1.0" encoding="utf-8"?>
<!-- Generator: Adobe Illustrator 24.0.3, SVG Export Plug-In . SVG Version: 6.00 Build 0)  -->
<svg version="1.1" id="Distance" xmlns="http://www.w3.org/2000/svg" xmlns:xlink="http://www.w3.org/1999/xlink" x="0px" y="0px"
	 viewBox="0 0 100 100" style="enable-background:new 0 0 100 100;" xml:space="preserve">
<style type="text/css">
	.st0{fill:#006064;stroke:#006064;stroke-miterlimit:10;}
</style>
<title>Artboard 1</title>
<path class="st0" d="M86.3,49.9L63.7,30.5c-0.6-0.5-1.4-0.4-1.9,0.1c-0.5,0.6-0.4,1.4,0.2,1.8c0,0,0,0,0,0l19.9,17l0,0H16.3l19.9-17
	c0.6-0.4,0.7-1.3,0.3-1.8c-0.4-0.6-1.3-0.7-1.8-0.3c-0.1,0-0.1,0.1-0.2,0.1L11.9,49.9c-0.3,0.3-0.5,0.6-0.5,1c0,0.4,0.2,0.8,0.5,1
	L35.6,70c0.2,0.2,0.5,0.3,0.8,0.3c0.7,0,1.3-0.6,1.3-1.3c0-0.4-0.2-0.8-0.5-1.1L16.6,52.2h64.9L61,67.9c-0.6,0.4-0.7,1.3-0.3,1.8
	c0.3,0.3,0.6,0.5,1.1,0.5c0.3,0,0.6-0.1,0.8-0.3l23.7-18c0.6-0.5,0.7-1.3,0.2-1.8C86.4,50.1,86.4,50,86.3,49.9L86.3,49.9z"/>
</svg>
