<?xml version="1.0" encoding="utf-8"?>
<!-- Generator: Adobe Illustrator 24.0.3, SVG Export Plug-In . SVG Version: 6.00 Build 0)  -->
<svg version="1.1" id="FakeNews" xmlns="http://www.w3.org/2000/svg" xmlns:xlink="http://www.w3.org/1999/xlink" x="0px" y="0px"
	 viewBox="0 0 100 100" style="enable-background:new 0 0 100 100;" xml:space="preserve">
<style type="text/css">
	.st0{fill:#006064;}
</style>
<title>Artboard 1</title>
<path class="st0" d="M77.9,69.2c0.6,0,1-0.4,1-1V25c0-0.6-0.4-1-1-1h-3.4v-3.6c0-0.6-0.4-1-1-1h-3.4V16c0-0.6-0.4-1-1-1h-47
	c-0.6,0-1,0.4-1,1v59c0,0.6,0.4,1,1,1h3.4v3.4c0,0.6,0.4,1,1,1h3.4V84c0,0.6,0.4,1,1,1h47c0.6,0,1-0.4,1-1V73c0-0.6-0.4-1-1-1
	s-1,0.4-1,1v10H32v-2.6h41.5c0.6,0,1-0.4,1-1V62c0-0.6-0.4-1-1-1s-1,0.4-1,1v16.4H27.5V76h41.5c0.6,0,1-0.4,1-1V53.4
	c0-0.6-0.4-1-1-1s-1,0.4-1,1V74H23.1V17H68v31.5c0,0.6,0.4,1,1,1s1-0.4,1-1V21.5h2.4v35.7c0,0.6,0.4,1,1,1s1-0.4,1-1V26h2.4v42.2
	c0,0.6,0.4,1,1,1C77.8,69.2,77.8,69.2,77.9,69.2z"/>
<path class="st0" d="M42.2,40.3V21.3c0-0.6-0.4-1-1-1H27.4c-0.6,0-1,0.4-1,1v19.1c0,0.6,0.4,1,1,1h13.8
	C41.7,41.3,42.2,40.9,42.2,40.3C42.2,40.4,42.2,40.3,42.2,40.3z M28.4,39.3v-17h11.8v17H28.4z"/>
<path class="st0" d="M64.8,21.3c0-0.6-0.4-1-1-1H46.1c-0.6,0-1,0.4-1,1V26c0,0.6,0.4,1,1,1h17.7c0.6,0,1-0.4,1-1L64.8,21.3z
	 M62.8,24.9H47.2v-2.6h15.6L62.8,24.9z"/>
<path class="st0" d="M63.8,29.9H46.1c-0.6,0-1,0.4-1,1s0.4,1,1,1h17.7c0.6,0,1-0.4,1-1S64.4,29.9,63.8,29.9z"/>
<path class="st0" d="M63.8,34.3H46.1c-0.6,0-1,0.4-1,1s0.4,1,1,1h17.7c0.6,0,1-0.4,1-1S64.4,34.3,63.8,34.3z"/>
<path class="st0" d="M63.8,39.3H46.1c-0.6,0-1,0.4-1,1s0.4,1,1,1h17.7c0.6,0,1-0.4,1-1S64.4,39.3,63.8,39.3z"/>
<path class="st0" d="M63.8,44.3h-26c-0.6,0-1,0.4-1,1s0.4,1,1,1h26c0.6,0,1-0.4,1-1S64.4,44.3,63.8,44.3z"/>
<path class="st0" d="M32.9,44.3h-5.5c-0.6,0-1,0.4-1,1s0.4,1,1,1h5.5c0.6,0,1-0.4,1-1S33.4,44.3,32.9,44.3z"/>
<path class="st0" d="M63.8,49.2h-26c-0.6,0-1,0.4-1,1s0.4,1,1,1h26c0.6,0,1-0.4,1-1S64.4,49.2,63.8,49.2z"/>
<path class="st0" d="M32.9,49.2h-5.5c-0.6,0-1,0.4-1,1s0.4,1,1,1h5.5c0.6,0,1-0.4,1-1S33.4,49.2,32.9,49.2z"/>
<path class="st0" d="M63.8,54.2h-26c-0.6,0-1,0.5-1,1c0,0.6,0.5,1,1,1h26c0.6,0,1-0.5,1-1C64.8,54.7,64.4,54.2,63.8,54.2z"/>
<path class="st0" d="M32.9,54.2h-5.5c-0.6,0-1,0.5-1,1c0,0.6,0.5,1,1,1h5.5c0.6,0,1-0.5,1-1C33.9,54.7,33.4,54.2,32.9,54.2z"/>
<path class="st0" d="M63.8,59.2h-26c-0.6,0-1,0.5-1,1c0,0.6,0.5,1,1,1h26c0.6,0,1-0.5,1-1C64.8,59.7,64.4,59.2,63.8,59.2z"/>
<path class="st0" d="M32.9,59.2h-5.5c-0.6,0-1,0.5-1,1c0,0.6,0.5,1,1,1h5.5c0.6,0,1-0.5,1-1C33.9,59.7,33.4,59.2,32.9,59.2z"/>
<path class="st0" d="M63.8,64.2h-26c-0.6,0-1,0.4-1,1s0.4,1,1,1h26c0.6,0,1-0.4,1-1S64.4,64.2,63.8,64.2z"/>
<path class="st0" d="M27.4,64.2c-0.6,0-1,0.4-1,1s0.4,1,1,1h5.5c0.6,0,1-0.4,1-1s-0.4-1-1-1H27.4z"/>
</svg>
