<?xml version="1.0" encoding="utf-8"?>
<!-- Generator: Adobe Illustrator 24.0.3, SVG Export Plug-In . SVG Version: 6.00 Build 0)  -->
<svg version="1.1" id="Warning_fakeNews" xmlns="http://www.w3.org/2000/svg" xmlns:xlink="http://www.w3.org/1999/xlink" x="0px"
	 y="0px" viewBox="0 0 100 100" style="enable-background:new 0 0 100 100;" xml:space="preserve">
<style type="text/css">
	.st0{fill:#006064;}
</style>
<title>Artboard 1</title>
<path class="st0" d="M53.7,45.1l-7.8,0.2c-0.4,0-0.7,0.2-0.9,0.5c-0.2,0.3-0.3,0.6-0.3,1l4.2,21.7c0.1,0.6,0.6,1,1.2,1l0,0
	c0.6,0,1.1-0.4,1.2-1l3.7-21.8c0.1-0.4-0.1-0.7-0.3-1C54.4,45.3,54,45.1,53.7,45.1z M50,61.2l-2.7-13.5l4.9-0.1L50,61.2z"/>
<path class="st0" d="M50.1,73.1c-1.4,0-2.5,1.1-2.5,2.5s1.1,2.5,2.5,2.5c1.4,0,2.5-1.1,2.5-2.5c0,0,0,0,0,0
	C52.6,74.2,51.5,73.1,50.1,73.1C50.1,73.1,50.1,73.1,50.1,73.1z"/>
<path class="st0" d="M74,83.3h-3.3V50.1c0-11.5-9.3-20.8-20.8-20.8s-20.8,9.3-20.8,20.8l0,0v33.2h-4.9c-1.5,0-2.7,1.2-2.7,2.7
	c0,0,0,0,0,0v2.9c0,1.5,1.2,2.7,2.7,2.7H74c1.5,0,2.7-1.2,2.7-2.7V86C76.7,84.5,75.5,83.3,74,83.3C74,83.3,74,83.3,74,83.3z
	 M31.7,50.1c0-10.1,8.2-18.3,18.3-18.3c10.1,0,18.3,8.2,18.3,18.3v33.1H31.7V50.1z M74.2,88.9c0,0.1-0.1,0.2-0.2,0.2H24.3
	c-0.1,0-0.2-0.1-0.2-0.2V86c0-0.1,0.1-0.2,0.1-0.2c0,0,0,0,0,0H74c0.1,0,0.2,0.1,0.2,0.2L74.2,88.9z"/>
<path class="st0" d="M30,31.8c0.3,0,0.7-0.1,0.9-0.4c0.5-0.5,0.5-1.3,0-1.8l-9.7-9.7c-0.5-0.5-1.3-0.6-1.8-0.1s-0.6,1.3-0.1,1.8
	c0,0,0.1,0.1,0.1,0.1l9.7,9.7C29.4,31.6,29.7,31.8,30,31.8z"/>
<path class="st0" d="M80.6,20.8c-0.5-0.5-1.3-0.5-1.8,0c0,0,0,0,0,0L68.5,31.1c-0.5,0.5-0.5,1.3,0,1.8c0,0,0,0,0,0
	c0.2,0.2,0.5,0.4,0.9,0.4c0.3,0,0.7-0.1,0.9-0.4l10.3-10.3C81.1,22.1,81.1,21.3,80.6,20.8C80.6,20.8,80.6,20.8,80.6,20.8z"/>
<path class="st0" d="M50,23.9L50,23.9c0.7,0,1.2-0.6,1.2-1.3c0,0,0,0,0,0L51.1,9.7c0-0.7-0.6-1.2-1.2-1.2l0,0
	c-0.7,0-1.2,0.5-1.3,1.2c0,0,0,0,0,0l0.1,13C48.8,23.4,49.3,23.9,50,23.9z"/>
</svg>
