<?xml version="1.0" encoding="utf-8"?>
<!-- Generator: Adobe Illustrator 24.0.3, SVG Export Plug-In . SVG Version: 6.00 Build 0)  -->
<svg version="1.1" id="Germany" xmlns="http://www.w3.org/2000/svg" xmlns:xlink="http://www.w3.org/1999/xlink" x="0px" y="0px"
	 viewBox="0 0 100 100" style="enable-background:new 0 0 100 100;" xml:space="preserve">
<style type="text/css">
	.st0{fill:#006064;}
</style>
<title>Artboard 1</title>
<path class="st0" d="M57.2,85c-0.1,0-0.3,0-0.4-0.1l-8.7-2.3l-1.6,1.6c-0.3,0.3-0.7,0.5-1.1,0.5c-0.4,0-0.8-0.2-1.2-0.5l-3-3
	l-5.7-2.6L31.1,80c-0.9,0.3-1.7-0.2-2-1.1c-0.1-0.3-0.1-0.6,0-0.9l1.7-6c0.3-1.1,0.8-2.2,1.3-3.3l0.9-1.7l-6.8-4
	c-0.3-0.2-0.6-0.5-0.7-0.9l-2-6c-0.2-0.6,0-1.3,0.5-1.7l2.4-2c0.1-1.9,0.6-8.5,0.7-10.4c0-0.7,0.5-1.2,1.1-1.5l4.4-1.5l1.9-4.2
	l0.1-8.4c0-0.9,0.7-1.6,1.6-1.6h5.3c0.5,0,0.9,0.2,1.2,0.6l0-0.3c0.1-0.8,0.8-1.3,1.6-1.3h1.3l-0.1-2l-0.4-0.3
	c-0.6-0.6-0.7-1.5-0.2-2.1l0.6-0.8L45,17.3c-0.4-0.8,0-1.8,0.8-2.1c0.4-0.2,0.8-0.2,1.2-0.1l5.2,2.2c0.5,0.2,0.9,0.7,1,1.2l0.3,2
	l1.1,0.7l1.2-1.1c0.4-0.3,0.8-0.5,1.3-0.4l1.7,0.3c0.5,0.1,0.9,0.3,1.1,0.7c0.2,0.4,0.3,0.9,0.2,1.3c-0.1,0.4-0.3,0.8-0.7,1
	l-2.9,1.8l0.3,0.3l2.6,0.3v-0.3c0-0.4,0.2-0.9,0.5-1.2c0.3-0.3,0.8-0.5,1.2-0.4l1.9,0.1l1.6-1.7c0.3-0.3,0.8-0.5,1.2-0.5
	c0.5,0,0.9,0.3,1.2,0.6l2.6,3.3l1.8,0.2c0.6,0.1,1.1,0.5,1.3,1.1l0,0l1.9,6c0.2,0.5,0.1,1-0.3,1.5l-1.5,2l1.8,2.5
	c0.2,0.3,0.3,0.6,0.3,1l-0.5,7.6l1.8,6.5c0.1,0.5,0,1-0.3,1.4c-0.3,0.4-0.8,0.6-1.3,0.6h-4.7l-9,6.3v2.4l7,8.4
	c0.3,0.4,0.4,0.9,0.3,1.3c-0.1,0.5-0.4,0.9-0.8,1.1l-6.2,3.2l1.1,2.2c0.4,0.8,0.1,1.7-0.7,2.2c0,0-0.1,0-0.1,0.1l-4.1,1.7
	C57.6,85,57.4,85,57.2,85z M48,80.9c0.1,0,0.3,0,0.4,0l8.8,2.3l3.9-1.7L60,79.5c-0.4-0.8-0.1-1.8,0.7-2.2l6.1-3.2l-6.9-8.4
	c-0.2-0.3-0.4-0.6-0.4-1v-2.5c0-0.5,0.3-1,0.7-1.3l9-6.3c0.3-0.2,0.6-0.3,0.9-0.3h4.6l-1.8-6.5c-0.1-0.2-0.1-0.4-0.1-0.6l0.5-7.6
	l-1.8-2.5c-0.4-0.6-0.4-1.3,0-1.9l1.6-2.1l-1.9-5.8l-1.8-0.2c-0.4-0.1-0.8-0.3-1.1-0.6l-2.6-3.2l-1.6,1.7c-0.3,0.3-0.8,0.5-1.3,0.5
	l-1.8-0.1v0.3c0,0.5-0.2,0.9-0.5,1.2c-0.3,0.3-0.8,0.4-1.2,0.4l-2.8-0.3c-0.4,0-0.7-0.2-1-0.5L55.3,26c-0.3-0.3-0.5-0.8-0.5-1.3
	c0-0.5,0.3-0.9,0.7-1.2l2.8-1.8l-1.5-0.2l-1.2,1.1c-0.6,0.5-1.4,0.6-2,0.1l-1.2-0.8c-0.4-0.3-0.6-0.6-0.7-1.1l-0.3-2l-4.9-2l0.5,1
	c0.3,0.5,0.2,1.1-0.1,1.6l-0.5,0.7l0.4,0.4c0.3,0.3,0.5,0.7,0.5,1.1l0.1,2.1c0,0.9-0.7,1.6-1.6,1.6c0,0,0,0,0,0h-1.4l-0.1,0.5
	c-0.1,0.9-0.9,1.5-1.8,1.4c-0.5-0.1-0.9-0.4-1.2-0.8h-5.1l-0.1,8.3c0,0.2,0,0.5-0.1,0.7l-2,4.3c-0.2,0.4-0.6,0.7-1,0.8L28.8,42
	c-0.1,2-0.5,8.5-0.7,10.5c0,0.4-0.2,0.8-0.6,1.1l-2.3,2l2,6l6.8,4c0.7,0.4,1,1.4,0.6,2.1l-1,1.8c-0.5,1-0.9,2-1.2,3l-1.6,5.8
	l4.4-1.3c0.4-0.1,0.8-0.1,1.1,0.1l5.7,2.7c0.2,0.1,0.3,0.2,0.5,0.3l2.9,2.9l1.5-1.6C47.2,81.1,47.6,80.9,48,80.9z M71.3,27.2
	L71.3,27.2z M54.7,21.3L54.7,21.3z"/>
</svg>
