<?xml version="1.0" encoding="utf-8"?>
<!-- Generator: Adobe Illustrator 24.0.3, SVG Export Plug-In . SVG Version: 6.00 Build 0)  -->
<svg version="1.1" id="Happiness" xmlns="http://www.w3.org/2000/svg" xmlns:xlink="http://www.w3.org/1999/xlink" x="0px" y="0px"
	 viewBox="0 0 100 100" style="enable-background:new 0 0 100 100;" xml:space="preserve">
<style type="text/css">
	.st0{fill:#006064;}
</style>
<title>Artboard 1</title>
<path class="st0" d="M50,15c-5.2,0-10.4,1.2-15.2,3.4c-0.6,0.3-0.8,1.1-0.4,1.7c0.3,0.5,0.9,0.7,1.5,0.5c4.4-2.1,9.2-3.2,14.1-3.2
	C68,17.4,82.6,32,82.6,50S68,82.6,50,82.6S17.4,68,17.4,50c0-8.3,3.2-16.3,8.9-22.4c0.5-0.4,0.6-1.2,0.2-1.7
	c-0.4-0.5-1.2-0.6-1.7-0.2c-0.1,0.1-0.2,0.2-0.2,0.3C11.3,40.1,12,62.2,26,75.5S62.2,88.1,75.5,74S88.1,37.8,74,24.5
	C67.5,18.4,58.9,15,50,15z"/>
<ellipse class="st0" cx="39.6" cy="41.8" rx="2.7" ry="5"/>
<ellipse class="st0" cx="59.6" cy="41.7" rx="2.7" ry="5"/>
<path class="st0" d="M49.8,69c6.5,0.2,12.7-2.9,16.4-8.2c0.4-0.6,0.2-1.3-0.4-1.7s-1.3-0.2-1.7,0.4l0,0c-0.2,0.3-4.5,7-14.4,7
	c-5.8,0.1-11.2-2.5-14.8-7.1c-0.4-0.5-1.2-0.6-1.7-0.2c-0.5,0.4-0.6,1-0.3,1.5C37,66.1,43.3,69.1,49.8,69z"/>
</svg>
