<?xml version="1.0" encoding="utf-8"?>
<!-- Generator: Adobe Illustrator 24.0.3, SVG Export Plug-In . SVG Version: 6.00 Build 0)  -->
<svg version="1.1" id="Computer" xmlns="http://www.w3.org/2000/svg" xmlns:xlink="http://www.w3.org/1999/xlink" x="0px" y="0px"
	 viewBox="0 0 100 100" style="enable-background:new 0 0 100 100;" xml:space="preserve">
<style type="text/css">
	.st0{fill:#006064;}
</style>
<title>Artboard 1</title>
<path class="st0" d="M85.1,15H14.9c-1.9,0-3.4,1.5-3.4,3.4v38.5l0,0v8.7c0,1.9,1.5,3.4,3.4,3.3h25.5l-4,13.8h-4.6
	c-0.7,0.1-1.1,0.6-1.1,1.3c0.1,0.6,0.5,1,1.1,1.1h36.4c0.7-0.1,1.1-0.6,1.1-1.3c-0.1-0.6-0.5-1-1.1-1.1h-4l-4.3-13.8h25.2
	c1.9,0,3.3-1.5,3.3-3.3V18.4C88.4,16.5,87,15,85.1,15z M61.6,82.6H38.8l4-13.8h14.6L61.6,82.6z M85.1,66.5H58.4c0,0-0.1,0-0.1,0
	H14.9c-0.6,0-1-0.4-1-1V58l12.1-0.1c0.7-0.1,1.1-0.6,1.1-1.3c-0.1-0.6-0.5-1-1.1-1.1l0,0l-12.1,0.1V18.4c0-0.6,0.4-1,1-1h70.2
	c0.6,0,1,0.4,1,1v37.2l-56.2-0.1l0,0c-0.7,0-1.2,0.5-1.2,1.2s0.5,1.2,1.2,1.2L86.1,58v7.5C86,66.1,85.6,66.5,85.1,66.5z"/>
<path class="st0" d="M48.4,59.7c-1.2,0-2.2,1-2.2,2.3c0,1.2,1,2.2,2.3,2.2c1.2,0,2.2-1,2.2-2.2C50.7,60.8,49.7,59.7,48.4,59.7
	C48.5,59.7,48.5,59.7,48.4,59.7z"/>
</svg>
