<?xml version="1.0" encoding="utf-8"?>
<!-- Generator: Adobe Illustrator 24.0.3, SVG Export Plug-In . SVG Version: 6.00 Build 0)  -->
<svg version="1.1" id="Layer_3" xmlns="http://www.w3.org/2000/svg" xmlns:xlink="http://www.w3.org/1999/xlink" x="0px" y="0px"
	 viewBox="0 0 100 100" style="enable-background:new 0 0 100 100;" xml:space="preserve">
<style type="text/css">
	.st0{fill:#006064;}
</style>
<title>Artboard 1</title>
<path class="st0" d="M84.3,25.4l-2.9-2.9c-0.4-0.4-1.1-0.4-1.5,0c-0.4,0.4-0.4,1.1,0,1.5l2.9,2.9c0.2,0.2,0.2,0.6,0,0.8l-0.9,0.9
	c-0.2,0.2-0.6,0.2-0.8,0L71.4,19c-0.2-0.2-0.2-0.6,0-0.8l0.9-0.9c0.2-0.2,0.6-0.2,0.8,0l3.3,3.3c0.4,0.4,1.1,0.4,1.5,0
	c0.4-0.4,0.4-1.1,0-1.5l0,0l-3.3-3.3c-1-1-2.7-1-3.7,0L70,16.7c-1,1-1,2.7,0,3.7l0.6,0.6L63,28.6l-2.8-2.9c-1-1-2.7-1-3.7,0
	l-0.9,0.9c-1,1-1,2.7,0,3.7c0,0,0,0,0,0l0.4,0.4l-28,28c-1.6,1.6-1.8,4.2-0.4,6l-1.2,3.4c-0.3,0.9-0.1,1.9,0.6,2.6l0.4,0.4l-12,12
	c-0.4,0.4-0.4,1,0,1.4s1,0.4,1.4,0l12.1-12l0.6,0.6c0.7,0.7,1.7,0.9,2.6,0.6l3.5-1.2c1.8,1.3,4.3,1.1,5.9-0.5l28-28l0.4,0.4
	c1,1,2.7,1,3.7,0l0.9-0.9c1-1,1-2.7,0-3.7L71.5,37l2.2-2.2c0.4-0.4,0.4-1,0-1.5c-0.4-0.4-1-0.4-1.4,0l-2.2,2.2L64.5,30l7.5-7.5
	l5.6,5.5l-1.9,2c-0.4,0.4-0.4,1,0,1.4s1,0.4,1.4,0l1.9-1.9l0.6,0.6c1,1,2.7,1,3.7,0l0.9-0.9C85.3,28.1,85.3,26.5,84.3,25.4
	C84.3,25.4,84.3,25.4,84.3,25.4z M31.3,71.9c-0.2,0.1-0.4,0-0.5-0.1l-2.4-2.4c-0.1-0.1-0.2-0.3-0.1-0.5l0.8-2.4l4.6,4.6L31.3,71.9z
	 M62.3,48.2l-1.8-1.8c-0.4-0.4-1-0.4-1.4,0c0,0,0,0,0,0c-0.4,0.4-0.4,1,0,1.4c0,0,0,0,0,0l1.8,1.8l-2.5,2.5l-1.8-1.8
	c-0.4-0.4-1-0.4-1.4,0c0,0,0,0,0,0c-0.4,0.4-0.4,1,0,1.4c0,0,0,0,0,0l1.9,1.8L54.5,56l-1.8-1.8c-0.4-0.4-1-0.4-1.4,0c0,0,0,0,0,0
	c-0.4,0.4-0.4,1,0,1.4c0,0,0,0,0,0l1.7,1.8L50.6,60l-1.8-1.8c-0.4-0.4-1-0.4-1.5,0s-0.4,1,0,1.5l1.8,1.8l-2.5,2.5L44.9,62
	c-0.4-0.4-1-0.4-1.5,0s-0.4,1,0,1.5l1.8,1.8l-2.5,2.5L41,66c-0.4-0.4-1-0.4-1.5,0c-0.4,0.4-0.4,1,0,1.4l0,0l1.8,1.8l-1.5,1.5
	c-1,1-2.6,1-3.6,0l-6.9-6.9c-1-1-1-2.6,0-3.6l24.8-24.9l10.5,10.5L62.3,48.2z M66.1,44.4L55.6,34l1.8-1.7l10.5,10.4L66.1,44.4z
	 M72.9,41.3c0.2,0.2,0.2,0.6,0,0.8L72,43.1c-0.2,0.2-0.6,0.2-0.8,0L57,28.9c-0.2-0.2-0.2-0.6,0-0.8l0.9-0.9c0.2-0.2,0.6-0.2,0.8,0
	c0,0,0,0,0,0L72.9,41.3z"/>
</svg>
