<?xml version="1.0" encoding="utf-8"?>
<!-- Generator: Adobe Illustrator 24.0.3, SVG Export Plug-In . SVG Version: 6.00 Build 0)  -->
<svg version="1.1" id="people" xmlns="http://www.w3.org/2000/svg" xmlns:xlink="http://www.w3.org/1999/xlink" x="0px" y="0px"
	 viewBox="0 0 100 100" style="enable-background:new 0 0 100 100;" xml:space="preserve">
<style type="text/css">
	.st0{fill:#006064;}
</style>
<title>Artboard 1</title>
<path class="st0" d="M49.4,49.1c9.4,0,17-7.7,17-17c0-9.4-7.7-17-17-17c-9.3,0-16.9,7.6-17,16.9C32.4,41.4,40,49.1,49.4,49.1z
	 M49.4,16.7c8.5,0,15.3,6.9,15.3,15.3s-6.9,15.3-15.3,15.3c-8.5,0-15.3-6.9-15.3-15.3c0,0,0,0,0-0.1C34.1,23.6,41,16.7,49.4,16.7z"
	/>
<path class="st0" d="M50,52.6c-17.4,0-31.5,14.1-31.5,31.5c0,0.5,0.4,0.9,0.8,0.9c0,0,0,0,0,0h44.9c0.5-0.1,0.8-0.5,0.8-0.9
	c0-0.4-0.4-0.7-0.8-0.8h-44c0.4-16.5,14.1-29.5,30.6-29c15.9,0.4,28.6,13.2,29,29h-8.2c-0.5,0.1-0.8,0.5-0.8,0.9
	c0,0.4,0.4,0.7,0.8,0.8h9.1c0.5,0,0.9-0.4,0.9-0.8c0,0,0,0,0,0C81.5,66.7,67.4,52.6,50,52.6z"/>
</svg>
