<?xml version="1.0" encoding="utf-8"?>
<!-- Generator: Adobe Illustrator 24.0.3, SVG Export Plug-In . SVG Version: 6.00 Build 0)  -->
<svg version="1.1" id="PoliticianDeath" xmlns="http://www.w3.org/2000/svg" xmlns:xlink="http://www.w3.org/1999/xlink" x="0px"
	 y="0px" viewBox="0 0 100 100" style="enable-background:new 0 0 100 100;" xml:space="preserve">
<style type="text/css">
	.st0{fill:#006064;}
</style>
<title>Artboard 1</title>
<path class="st0" d="M70.7,38.5l-1.9-8.3c-0.1-0.6-0.7-0.9-1.2-0.8c-0.6,0.1-0.9,0.7-0.8,1.2l1.9,8.2l-6,44H37.3l-6-44l5-21.9h27.3
	l1.6,6.8c0.1,0.6,0.7,0.9,1.2,0.8c0.6-0.1,0.9-0.7,0.8-1.2l-1.6-7c-0.2-0.8-0.9-1.3-1.7-1.4H36.1c-0.8,0-1.5,0.6-1.7,1.3l-5.1,22.2
	c0,0.2,0,0.4,0,0.6l6.1,44.4c0.1,0.8,0.8,1.4,1.6,1.5h26c0.9,0,1.6-0.6,1.7-1.5l6.1-44.4C70.8,39,70.8,38.7,70.7,38.5z"/>
<path class="st0" d="M38.5,64.5c-0.6,0-1,0.5-0.9,1.1c0,0,0,0,0,0.1L39,77.9c0.1,0.9,0.8,1.5,1.7,1.5h18.6c0.9,0,1.6-0.6,1.7-1.5
	l4.4-37.2c0-0.2,0-0.4,0-0.6l-3.7-16.7c-0.2-0.8-0.9-1.3-1.7-1.4H40c-0.8,0-1.5,0.6-1.7,1.4l-3.7,16.7c0,0.2,0,0.4,0,0.6l2.1,17.7
	c0.1,0.6,0.6,0.9,1.1,0.9c0.6-0.1,0.9-0.6,0.9-1.1l-2.1-17.6l3.6-16.4h19.4l3.6,16.4L59,77.4H41l-1.4-12
	C39.5,64.8,39,64.4,38.5,64.5C38.5,64.5,38.5,64.5,38.5,64.5z"/>
<path class="st0" d="M51.5,32.7h-3c-0.9,0-1.7,0.8-1.7,1.7c0,0,0,0,0,0v3.4H42c-0.9,0-1.7,0.8-1.7,1.7v3c0,0.9,0.7,1.7,1.7,1.7
	c0,0,0,0,0,0h4.8v12.6c0,0.9,0.8,1.7,1.7,1.7c0,0,0,0,0,0h3c0.9,0,1.7-0.8,1.7-1.7c0,0,0,0,0,0V44.3H58c0.9,0,1.7-0.8,1.7-1.7v-3
	c0-0.9-0.7-1.7-1.7-1.7c0,0,0,0,0,0h-4.8v-3.4C53.2,33.5,52.5,32.7,51.5,32.7C51.5,32.7,51.5,32.7,51.5,32.7z M57.6,39.9v2.3h-5.4
	c-0.6,0-1,0.4-1,1v13.3h-2.4V43.2c0-0.6-0.4-1-1-1h-5.5v-2.4h5.4c0.6,0,1-0.4,1-1v-4.1h2.3v4.1c0,0.6,0.4,1,1,1H57.6L57.6,39.9z"/>
</svg>
