<?xml version="1.0" encoding="utf-8"?>
<!-- Generator: Adobe Illustrator 24.0.3, SVG Export Plug-In . SVG Version: 6.00 Build 0)  -->
<svg version="1.1" id="Layer_9" xmlns="http://www.w3.org/2000/svg" xmlns:xlink="http://www.w3.org/1999/xlink" x="0px" y="0px"
	 viewBox="0 0 100 100" style="enable-background:new 0 0 100 100;" xml:space="preserve">
<style type="text/css">
	.st0{fill:#006064;}
</style>
<title>Artboard 1</title>
<path class="st0" d="M82.2,52.1l-7.3-12.7l0.6-0.3c2.7-1.4,3.7-4.7,2.3-7.4s-4.7-3.7-7.4-2.3c-0.1,0.1-0.2,0.1-0.4,0.2l-0.6,0.3
	l-7.3-12.7c-1.2-2.1-4-2.9-6.1-1.6c-1,0.6-1.8,1.6-2.1,2.7c-0.2,0.8-0.2,1.6,0,2.4l-7,7.9c-0.6,0.5-0.7,1.3-0.2,1.9
	c0.5,0.6,1.3,0.7,1.9,0.2c0.1-0.1,0.2-0.2,0.3-0.3l6.3-7.1L73.6,55L43,61.5l-8.6-14.8l6.4-7.2c0.5-0.6,0.5-1.4-0.1-1.9
	c-0.6-0.5-1.4-0.5-1.9,0.1c0,0,0,0,0,0l-6.9,7.7l-11.4,6.6c-3.1,1.8-4.2,5.8-2.4,8.9c0,0,0,0,0,0l4.4,7.6c1.8,3.1,5.8,4.2,8.9,2.4
	l3.2-1.9l14.3,14.2c1,1,2.4,1.6,3.9,1.6c3.1,0,5.5-2.5,5.5-5.5c0-1.5-0.6-2.9-1.6-3.9l-5-5l1.3-0.8c1.8-1,2.4-3.3,1.4-5.1
	c-0.2-0.3-0.4-0.6-0.7-0.9l-1.6-1.5l23-5c0.5,0.6,1.2,1,2,1.2c0.4,0.1,0.8,0.2,1.2,0.2c2,0,3.8-1.4,4.3-3.3
	C82.9,54.3,82.7,53.1,82.2,52.1z M30,68.6c-1.8,1-4.1,0.4-5.2-1.4l-4.4-7.6c-1-1.8-0.4-4.1,1.4-5.2c0,0,0,0,0,0l10.5-6l8.2,14.1
	L30,68.6z M54.8,77.5c0.6,0.6,0.9,1.5,0.8,2.3l0,0c-0.2,1.5-1.6,2.6-3.1,2.4c-0.6-0.1-1.2-0.4-1.6-0.8L37.1,67.7l5-2.9L54.8,77.5z
	 M52.2,66.7c0,0.3-0.2,0.6-0.5,0.7l-2,1.1L45,63.9l3.8-0.8l3.1,2.8C52.1,66.1,52.2,66.4,52.2,66.7z M71.4,31.9c1.3-0.8,3-0.3,3.8,1
	c0.8,1.3,0.3,3-1,3.8l0,0l-0.6,0.3l-2.7-4.7v-0.1L71.4,31.9z M80,54.8c-0.1,0.4-0.4,0.8-0.8,1c-0.4,0.2-0.9,0.3-1.3,0.2
	c-0.4-0.1-0.8-0.4-1-0.8L56.7,20.3c-0.2-0.4-0.3-0.9-0.2-1.3c0.1-0.4,0.4-0.8,0.8-1c0.3-0.2,0.6-0.2,0.9-0.2c0.2,0,0.3,0,0.5,0.1
	c0.4,0.1,0.8,0.4,1,0.8l20.2,34.9C80.1,53.9,80.1,54.3,80,54.8z"/>
<path class="st0" d="M43.9,35.4c0.8,0,1.4-0.6,1.4-1.4c0-0.8-0.6-1.4-1.4-1.4c-0.4,0-0.7,0.1-1,0.4c-0.5,0.5-0.5,1.4,0,1.9
	C43.1,35.3,43.5,35.4,43.9,35.4z"/>
</svg>
