<?xml version="1.0" encoding="utf-8"?>
<!-- Generator: Adobe Illustrator 24.0.3, SVG Export Plug-In . SVG Version: 6.00 Build 0)  -->
<svg version="1.1" id="Layer_6" xmlns="http://www.w3.org/2000/svg" xmlns:xlink="http://www.w3.org/1999/xlink" x="0px" y="0px"
	 viewBox="0 0 100 100" style="enable-background:new 0 0 100 100;" xml:space="preserve">
<style type="text/css">
	.st0{fill:#006064;}
</style>
<title>Artboard 1</title>
<path class="st0" d="M53.1,32.5c-2.4,0-4.4,1.9-4.4,4.3s1.9,4.4,4.3,4.4s4.4-1.9,4.4-4.3c0,0,0,0,0,0C57.5,34.4,55.5,32.5,53.1,32.5
	z M53.1,39.2c-1.3,0-2.3-1-2.3-2.3c0-1.3,1-2.3,2.3-2.3c1.3,0,2.3,1,2.3,2.3c0,0,0,0,0,0C55.4,38.1,54.4,39.1,53.1,39.2z"/>
<path class="st0" d="M66,68.3c-2.4,0-4.4,1.9-4.4,4.3S63.6,77,66,77c2.4,0,4.3-1.9,4.3-4.3l0,0C70.3,70.2,68.4,68.3,66,68.3z
	 M66,74.9c-1.3,0-2.3-1-2.3-2.3c0-1.3,1-2.3,2.3-2.3c1.3,0,2.3,1,2.3,2.3S67.3,74.9,66,74.9L66,74.9z"/>
<path class="st0" d="M80.9,83h-1.3v-5.3c0-1.6-1.3-2.8-2.8-2.8l0,0h-2.7c0.2-0.7,0.3-1.5,0.3-2.3c0-0.2,0-0.5,0-0.7
	c8.9-9.5,8.4-24.4-1.1-33.3c-3.6-3.3-8-5.5-12.9-6.1c-1.3-2.2-3.6-3.6-6.2-3.9v-0.6c0-1.7-1.3-3-3-3l0,0h-1V22l0,0
	c1.5,0,2.8-1.2,2.8-2.8V16c0-0.6-0.4-1-1-1H38.8c-0.6,0-1,0.4-1,1v3.2c0,1.5,1.2,2.8,2.7,2.8c0,0,0,0,0,0l0,0v2.9h-1
	c-1.7,0-3,1.3-3,3v2.4c0,0.6,0.5,1,1,1c0.6,0,1-0.5,1-1v-2.5c0-0.5,0.4-0.9,0.9-0.9h11.7c0.5,0,0.9,0.4,0.9,0.9v0.6
	c-4.6,0.6-7.9,4.8-7.4,9.4c0.5,3.9,3.5,6.9,7.4,7.4v4.8H43v-4.7c0-0.6-0.4-1-1-1s-1,0.4-1,1v4.7h-2.3V34.7c0-0.6-0.5-1-1-1
	c-0.6,0-1,0.5-1,1v20.6c0,1.1,0.7,2.2,1.7,2.7l1.5,3.4c0.3,0.7,0.9,1.2,1.6,1.3v2.3c0,1.2,1,2.2,2.2,2.2h3.6c1.2,0,2.2-1,2.2-2.2
	v-2.2c0.7-0.1,1.3-0.6,1.6-1.3l1.5-3.4c1-0.5,1.7-1.5,1.7-2.7v-10c2.9-0.4,5.4-2.2,6.6-4.8c7.1,1.7,12.1,8,12.1,15.3
	c0,0.5,0,0.9-0.1,1.4c-0.1,0.5,0.3,1,0.9,1.1c0,0,0,0,0.1,0h0.1c0.5,0,1-0.4,1-0.9c0-0.5,0.1-1,0.1-1.6c0-8.2-5.6-15.3-13.5-17.3
	c0.1-0.5,0.2-1.1,0.2-1.6c0-0.7-0.1-1.5-0.3-2.2c10.1,2,17.3,10.9,17.4,21.1c0,5-1.7,9.8-4.9,13.7c-0.5-1.2-1.3-2.3-2.2-3.1
	c1-1.3,1.7-2.8,2.3-4.3c0.2-0.5-0.1-1.1-0.6-1.3c0,0,0,0,0,0c-0.5-0.2-1.1,0.1-1.3,0.6c0,0,0,0,0,0c-0.5,1.4-1.2,2.7-2.1,3.9
	c-1.2-0.6-2.5-1-3.9-1c-4.7,0-8.4,3.8-8.5,8.4c0,0.8,0.1,1.6,0.3,2.3H30.3c-0.6,0-1,0.4-1,1s0.4,1,1,1h28.4c2.4,4,7.6,5.3,11.6,2.9
	c1.2-0.7,2.2-1.7,2.9-2.9h3.6c0.4,0,0.8,0.3,0.8,0.8V83h-55v-5.3c0-0.4,0.3-0.8,0.8-0.8H26c0.6,0,1-0.4,1-1s-0.4-1-1-1h-2.7
	c-1.6,0-2.8,1.3-2.8,2.8l0,0V83h-1.4c-0.6,0-1,0.4-1,1s0.4,1,1,1h61.8c0.6,0,1-0.4,1-1S81.5,83,80.9,83z M48.2,25h-5.6v-3h5.6V25z
	 M41.6,20h-1c-0.4,0-0.7-0.3-0.7-0.7c0,0,0,0,0,0V17H51v2.2c0,0.4-0.3,0.7-0.7,0.7c0,0,0,0,0,0L41.6,20L41.6,20z M47.3,65
	c0,0.1-0.1,0.1-0.1,0.1l0,0h-3.6c-0.1,0-0.1-0.1-0.1-0.1l0,0v-2.3h3.8L47.3,65z M49.1,60.6c0,0.1-0.1,0.1-0.2,0.1h-7
	c-0.1,0-0.2,0-0.2-0.1l-1-2.3h9.5L49.1,60.6z M52.1,55.4c0,0.5-0.4,0.9-0.9,0.9H39.6c-0.5,0-0.9-0.4-0.9-0.9v-3.2h13.4V55.4z
	 M59.2,38.9v0.2c-1.2,3.3-4.8,5.1-8.2,3.9c-3.3-1.2-5.1-4.8-3.9-8.2s4.8-5.1,8.2-3.9c2.5,0.9,4.2,3.3,4.2,6
	C59.6,37.6,59.4,38.2,59.2,38.9L59.2,38.9z M66,79c-3.5,0-6.4-2.9-6.4-6.4s2.9-6.4,6.4-6.4c3.5,0,6.4,2.9,6.4,6.4
	C72.4,76.1,69.5,79,66,79z"/>
</svg>
