<?xml version="1.0" encoding="utf-8"?>
<!-- Generator: Adobe Illustrator 24.0.3, SVG Export Plug-In . SVG Version: 6.00 Build 0)  -->
<svg version="1.1" id="Layer_7" xmlns="http://www.w3.org/2000/svg" xmlns:xlink="http://www.w3.org/1999/xlink" x="0px" y="0px"
	 viewBox="0 0 100 100" style="enable-background:new 0 0 100 100;" xml:space="preserve">
<style type="text/css">
	.st0{fill:#006064;}
</style>
<title>Artboard 1</title>
<path class="st0" d="M19.7,41.6L19.7,41.6z"/>
<path class="st0" d="M88.7,34.1c0-0.9-0.5-1.6-1.3-2L50.9,15.2c-0.6-0.3-1.3-0.3-1.9,0L24.1,26.8c-0.6,0.3-0.8,1-0.5,1.5
	c0.3,0.6,1,0.8,1.5,0.5L50,17.3l36.4,16.9l-19.3,9l-16.5-10C50,32.9,49.3,33,49,33.6c-0.3,0.6-0.1,1.3,0.4,1.6l0,0l15.2,9.1L50,51
	L13.6,34.2l6.6-3.1c0.6-0.3,0.8-0.9,0.6-1.5s-0.9-0.8-1.5-0.6l-6.7,3.1c-0.8,0.4-1.3,1.1-1.3,2v4.6c0,0.9,0.5,1.6,1.3,2l13,6
	l-3.5,13c-0.3,1.1,0.1,2.2,1,2.8l1.9,1.3c12,8.2,27.3,10,40.9,4.8v1.9c-1.5,0.5-2.5,1.9-2.5,3.4v2.3c0,0.2,0,0.4,0.1,0.6l-1,5.7
	c-0.1,0.6,0.2,1.3,0.8,1.6c2.3,1.2,5.1,1.2,7.5,0c0.6-0.3,0.9-0.9,0.8-1.6c0,0,0-0.1-1-5.7c0.1-0.2,0.1-0.4,0.1-0.6v-2.3
	c0-1.6-1-2.9-2.5-3.4v-2.9c3.1-1.4,6-3.1,8.7-5.1c0.9-0.6,1.3-1.7,1-2.8l-1.3-4.7c-0.2-0.6-0.8-1-1.4-0.8c-0.6,0.2-1,0.8-0.8,1.4
	l1.3,4.7c0,0.1,0,0.3-0.1,0.3c-2.3,1.7-4.8,3.2-7.4,4.5V49.7l4.2-1.9l0.7,2.7c0.2,0.6,0.8,1,1.4,0.8c0.6-0.2,1-0.8,0.8-1.4l-0.8-3.1
	l13-6c0.8-0.4,1.3-1.1,1.3-2C88.7,33.8,88.7,34.1,88.7,34.1z M26.3,62l-1.9-1.3c-0.1-0.1-0.2-0.2-0.1-0.3l3.4-12.6l4.3,2
	c0.6,0.3,1.2,0,1.5-0.5c0,0,0,0,0,0c0.3-0.6,0-1.2-0.6-1.5l-13.2-6.2l1.4,0.7l-7.6-3.5v-2.1l35.5,16.5c0.6,0.3,1.3,0.3,1.9,0l15-6.9
	v2.1L50,55.6L37.8,50c-0.5-0.4-1.2-0.3-1.6,0.2c-0.4,0.5-0.3,1.2,0.2,1.6c0.1,0.1,0.3,0.2,0.4,0.2l12.2,5.7c0.6,0.3,1.3,0.3,1.9,0
	l15-6.9v15.4C52.9,71.6,38,70,26.3,62z M24.7,43.9l1.4,0.7L24.7,43.9z M26.3,44.6L26.3,44.6z M24.5,43.8l-3.1-1.5L24.5,43.8z
	 M64.9,82.3l0.9-4.8h2.6l0.9,4.8C67.8,82.9,66.3,82.9,64.9,82.3z M68.4,73.9v1.3h-2.7v-1.3c-0.1-0.7,0.5-1.4,1.2-1.5
	s1.4,0.5,1.5,1.2C68.4,73.8,68.4,73.9,68.4,73.9z M86.5,38.7l-18.3,8.5v-2.1l18.3-8.5L86.5,38.7z"/>
<path class="st0" d="M19.7,41.6"/>
</svg>
