<svg id="Acceptance" xmlns="http://www.w3.org/2000/svg" viewBox="0 0 100 100"><defs><style>.cls-1{fill:#fff;}</style></defs><title>Artboard 1</title><path class="cls-1" d="M89.62,46.32a7.07,7.07,0,0,0-7.1-6.15H69.89a43.24,43.24,0,0,0,2.64-16.46c0-1-.07-1.61-.12-2a6.9,6.9,0,0,0-7.86-6.66,7,7,0,0,0-5.93,7.06v1.49c0,10.91-14,17-24.57,19.66a5.17,5.17,0,0,0-4.74-3.11H12.07a1.73,1.73,0,0,0-1.73,1.73v7a1.73,1.73,0,0,0,1.73,1.72h0a1.72,1.72,0,0,0,1.72-1.72V43.62H29.31A1.72,1.72,0,0,1,31,45.34V79.83a1.72,1.72,0,0,1-1.72,1.72H13.79V57.21a1.73,1.73,0,0,0-1.72-1.73h0a1.74,1.74,0,0,0-1.73,1.73V83.28A1.73,1.73,0,0,0,12.07,85H29.31A5.16,5.16,0,0,0,34,81.93l2.44.63c6,1.57,9.34,2.44,17.4,2.44H72.16a7.07,7.07,0,0,0,7.13-6.3,6.93,6.93,0,0,0-1.15-4.43A6.91,6.91,0,0,0,81.6,63.92,6.89,6.89,0,0,0,85,53.58,6.91,6.91,0,0,0,89.62,46.32Zm-6.86,4.2H74.23A1.78,1.78,0,0,0,72.44,52a1.73,1.73,0,0,0,1.7,2h5a3.57,3.57,0,0,1,3.63,3.26,3.44,3.44,0,0,1-3.44,3.63H70.78A1.79,1.79,0,0,0,69,62.3a1.72,1.72,0,0,0,1.7,2h5.17a3.44,3.44,0,0,1,3.45,3.54,3.56,3.56,0,0,1-3.62,3.36H67.33a1.79,1.79,0,0,0-1.79,1.43,1.73,1.73,0,0,0,1.7,2h5.08a3.51,3.51,0,0,1,3.47,2.72,3.46,3.46,0,0,1-3.38,4.17H53.87c-7.62,0-10.6-.78-16.53-2.32l-2.86-.74V46.73C47,43.76,62.07,36.5,62.07,23.62V22a3.52,3.52,0,0,1,2.72-3.48A3.47,3.47,0,0,1,69,21.89h0c0,.75.93,9.94-2.82,18.27H60.44a1.8,1.8,0,0,0-1.8,1.44,1.73,1.73,0,0,0,1.7,2H82.56a3.58,3.58,0,0,1,3.64,3.26A3.45,3.45,0,0,1,82.76,50.52Z"/></svg>