<svg id="Layer_5" data-name="Layer 5" xmlns="http://www.w3.org/2000/svg" viewBox="0 0 100 100"><defs><style>.cls-1{fill:#fff;}</style></defs><title>Artboard 1</title><path class="cls-1" d="M83.63,43.23H72.42V40.34A1.37,1.37,0,0,0,71.05,39H41.52a1.37,1.37,0,0,0,0,2.74H69.69V52.19A26,26,0,0,1,56.83,74.61H30.59A26,26,0,0,1,17.73,52.19V41.71h9.16a1.37,1.37,0,0,0,0-2.74H16.37A1.37,1.37,0,0,0,15,40.34V52.19A28.7,28.7,0,0,0,25.78,74.61H16.37A1.37,1.37,0,0,0,15,76a9,9,0,0,0,9,9H66.68a9,9,0,0,0,9-9,1.36,1.36,0,0,0-1.36-1.37H61.64A29,29,0,0,0,68,67.55h3.86A13.19,13.19,0,0,0,85,54.38V44.6A1.37,1.37,0,0,0,83.63,43.23ZM72.82,77.34a6.3,6.3,0,0,1-6.14,4.93H24a6.31,6.31,0,0,1-6.14-4.93H72.82Zm-.4-25.15v-.75H76.8v2.94a5,5,0,0,1-5,5h-.31A28.6,28.6,0,0,0,72.42,52.19Zm9.85,2.19A10.45,10.45,0,0,1,71.83,64.81H69.5a27.33,27.33,0,0,0,1.17-2.73h1.16a7.71,7.71,0,0,0,7.7-7.7V50.07a1.37,1.37,0,0,0-1.37-1.37H72.42V46h9.85Z"/><path class="cls-1" d="M42.88,24.27a4.66,4.66,0,0,1,0,5.82l-.73.92a1.37,1.37,0,0,0,.22,1.92,1.4,1.4,0,0,0,.85.3,1.37,1.37,0,0,0,1.08-.52l.72-.92a7.37,7.37,0,0,0,0-9.22l-.71-.9a3.55,3.55,0,0,1,0-4.45,1.37,1.37,0,0,0-2.14-1.7,6.27,6.27,0,0,0,0,7.86Z"/><path class="cls-1" d="M50.46,27.34a4.68,4.68,0,0,1,0,5.83l-.73.92A1.37,1.37,0,0,0,50,36a1.38,1.38,0,0,0,1.92-.22l.73-.92a7.37,7.37,0,0,0,0-9.23l-.71-.89a3.58,3.58,0,0,1,0-4.46,1.37,1.37,0,0,0-2.14-1.7,6.29,6.29,0,0,0,0,7.86Z"/><path class="cls-1" d="M35.3,27.34a4.66,4.66,0,0,1,0,5.83l-.72.92a1.37,1.37,0,0,0,2.14,1.7l.73-.92a7.4,7.4,0,0,0,0-9.23l-.71-.89a3.56,3.56,0,0,1,0-4.46,1.37,1.37,0,0,0-2.14-1.7,6.29,6.29,0,0,0,0,7.86Z"/><path class="cls-1" d="M34.58,39a1.37,1.37,0,1,0,1,.4A1.41,1.41,0,0,0,34.58,39Z"/><path class="cls-1" d="M59.42,67.8a22.36,22.36,0,0,0,6.44-15.61,1.37,1.37,0,1,0-2.73,0,19.59,19.59,0,0,1-5.65,13.68,1.36,1.36,0,0,0,0,1.93,1.32,1.32,0,0,0,1,.4A1.36,1.36,0,0,0,59.42,67.8Z"/><path class="cls-1" d="M54,71.64a1.35,1.35,0,0,0,.67-.18l0,0a1.37,1.37,0,1,0-1.34-2.38l0,0A1.37,1.37,0,0,0,54,71.64Z"/></svg>