<svg xmlns="http://www.w3.org/2000/svg" viewBox="0 0 50 50"><defs><style>.cls-1{fill:#fff;}</style></defs><title>Asset 4</title><g id="Layer_2" data-name="Layer 2"><g id="Layer_1-2" data-name="Layer 1"><path class="cls-1" d="M49,20.17H41V18.1a1,1,0,0,0-1-1H19a1,1,0,0,0,0,2H39.06v7.48a18.61,18.61,0,0,1-9.18,16H11.13A18.61,18.61,0,0,1,2,26.56V19.08H8.5a1,1,0,0,0,0-2H1a1,1,0,0,0-1,1v8.46A20.48,20.48,0,0,0,2.87,37,20.72,20.72,0,0,0,7.7,42.58H1a1,1,0,0,0-1,1A6.45,6.45,0,0,0,6.45,50H36.91a6.45,6.45,0,0,0,6.45-6.45,1,1,0,0,0-1-1H33.31a20.78,20.78,0,0,0,4.53-5h2.75A9.42,9.42,0,0,0,50,28.13v-7A1,1,0,0,0,49,20.17ZM41.3,44.53a4.5,4.5,0,0,1-4.39,3.52H6.45a4.5,4.5,0,0,1-4.39-3.52H41.3Zm-.28-18V26h3.12v2.1a3.55,3.55,0,0,1-3.55,3.54h-.22A20.34,20.34,0,0,0,41,26.56Zm7,1.57a7.46,7.46,0,0,1-7.46,7.45H38.93a20.74,20.74,0,0,0,.83-1.95h.83a5.5,5.5,0,0,0,5.5-5.5V25.05a1,1,0,0,0-1-1H41V22.12h7Z"/><path class="cls-1" d="M21.44,5.4l-.51-.63a2.57,2.57,0,0,1,0-3.19A1,1,0,1,0,19.4.37,4.5,4.5,0,0,0,19.4,6l.51.64a3.32,3.32,0,0,1,0,4.16l-.52.66a1,1,0,0,0,.15,1.37,1,1,0,0,0,1.38-.16l.52-.65A5.29,5.29,0,0,0,21.44,5.4Z"/><path class="cls-1" d="M26.85,7.6,26.35,7a2.54,2.54,0,0,1,0-3.18,1,1,0,0,0-1.53-1.21,4.48,4.48,0,0,0,0,5.61l.51.64a3.34,3.34,0,0,1,0,4.16l-.52.65A1,1,0,0,0,25,15a.93.93,0,0,0,.6.22,1,1,0,0,0,.77-.37l.52-.66A5.26,5.26,0,0,0,26.85,7.6Z"/><path class="cls-1" d="M16,7.6,15.52,7a2.53,2.53,0,0,1,0-3.18,1,1,0,0,0-.16-1.37A1,1,0,0,0,14,2.57a4.48,4.48,0,0,0,0,5.61l.51.64a3.32,3.32,0,0,1,0,4.16l-.52.65A1,1,0,0,0,14.14,15a.94.94,0,0,0,.61.22,1,1,0,0,0,.76-.37l.52-.66A5.28,5.28,0,0,0,16,7.6Z"/><path class="cls-1" d="M14.68,17.41a1,1,0,0,0-1.39,0,1,1,0,0,0,0,1.38,1,1,0,0,0,1.39,0,1,1,0,0,0,0-1.38Z"/><path class="cls-1" d="M35.35,25.59a1,1,0,0,0-1,1,14,14,0,0,1-4,9.78A1,1,0,0,0,31,38a1,1,0,0,0,.7-.29,16,16,0,0,0,4.6-11.15A1,1,0,0,0,35.35,25.59Z"/><path class="cls-1" d="M28.7,39a1,1,0,0,0-1.33-.37h0a1,1,0,0,0,.48,1.83.94.94,0,0,0,.48-.13h0A1,1,0,0,0,28.7,39Z"/></g></g></svg>