<?xml version="1.0" encoding="utf-8"?>
<!-- Generator: Adobe Illustrator 24.0.3, SVG Export Plug-In . SVG Version: 6.00 Build 0)  -->
<svg version="1.1" id="Lock" xmlns="http://www.w3.org/2000/svg" xmlns:xlink="http://www.w3.org/1999/xlink" x="0px" y="0px"
	 viewBox="0 0 100 100" style="enable-background:new 0 0 100 100;" xml:space="preserve">
<style type="text/css">
	.st0{fill:#006064;}
</style>
<title>Artboard 1</title>
<path class="st0" d="M46.5,63.4l-0.9,8.3c0,0.4,0.1,0.8,0.4,1.1c0.3,0.3,0.7,0.5,1.1,0.5h5.8c0.4,0,0.8-0.2,1.1-0.5
	c0.3-0.3,0.4-0.7,0.4-1.1l-0.9-8.3c1.5-1.1,2.4-2.8,2.4-4.7c0-3.2-2.6-5.8-5.8-5.8c-3.2,0-5.8,2.6-5.8,5.8
	C44.2,60.6,45,62.4,46.5,63.4z M50,55.8c1.6,0,2.9,1.3,2.9,2.9c0,1.1-0.6,2.1-1.7,2.6c-0.6,0.3-0.9,0.9-0.8,1.5l0.8,7.6h-2.6
	l0.8-7.6c0.1-0.6-0.3-1.2-0.8-1.5c-1-0.5-1.7-1.5-1.7-2.6C47.1,57.1,48.4,55.8,50,55.8z"/>
<path class="st0" d="M74.8,41.2h-4.4v-5.8C70.4,24.1,61.3,15,50,15c-11.3,0-20.4,9.1-20.4,20.4v5.8h-4.4c-0.8,0-1.5,0.7-1.5,1.5
	v36.5c0,3.2,2.6,5.8,5.8,5.8h40.8c3.2,0,5.8-2.6,5.8-5.8V42.7C76.2,41.9,75.6,41.2,74.8,41.2z M32.5,35.4c0-9.7,7.8-17.5,17.5-17.5
	s17.5,7.8,17.5,17.5v5.8h-2.9v-5.8c0-8.1-6.5-14.6-14.6-14.6s-14.6,6.5-14.6,14.6c0,0,0,0,0,0v5.8h-2.9V35.4z M61.7,35.4v5.8H38.3
	v-5.8c0-6.4,5.2-11.7,11.7-11.7C56.4,23.8,61.7,29,61.7,35.4z M73.3,79.2c0,1.6-1.3,2.9-2.9,2.9H29.6c-1.6,0-2.9-1.3-2.9-2.9v-35
	h46.7V79.2z"/>
</svg>
