<svg id="Lock" xmlns="http://www.w3.org/2000/svg" viewBox="0 0 100 100"><defs><style>.cls-1{fill:#fff;}</style></defs><title>Artboard 1</title><path class="cls-1" d="M46.55,63.44l-.92,8.27A1.48,1.48,0,0,0,46,72.85a1.43,1.43,0,0,0,1.08.48h5.84A1.43,1.43,0,0,0,54,72.85a1.48,1.48,0,0,0,.37-1.14l-.92-8.27a5.77,5.77,0,0,0,2.38-4.69,5.83,5.83,0,0,0-11.66,0A5.77,5.77,0,0,0,46.55,63.44ZM50,55.83a2.92,2.92,0,0,1,2.92,2.92,2.89,2.89,0,0,1-1.66,2.61,1.48,1.48,0,0,0-.82,1.48l.85,7.58H48.71l.85-7.58a1.48,1.48,0,0,0-.82-1.48,2.89,2.89,0,0,1-1.66-2.61A2.92,2.92,0,0,1,50,55.83Z"/><path class="cls-1" d="M74.79,41.25H70.42V35.42a20.42,20.42,0,0,0-40.84,0v5.83H25.21a1.46,1.46,0,0,0-1.46,1.46V79.17A5.84,5.84,0,0,0,29.58,85H70.42a5.84,5.84,0,0,0,5.83-5.83V42.71A1.46,1.46,0,0,0,74.79,41.25ZM32.5,35.42a17.5,17.5,0,0,1,35,0v5.83H64.58V35.42a14.58,14.58,0,1,0-29.16,0v5.83H32.5Zm29.17,0v5.83H38.33V35.42a11.67,11.67,0,0,1,23.34,0ZM73.33,79.17a2.92,2.92,0,0,1-2.91,2.91H29.58a2.92,2.92,0,0,1-2.91-2.91v-35H73.33Z"/></svg>