<svg id="Layer_12" data-name="Layer 12" xmlns="http://www.w3.org/2000/svg" viewBox="0 0 100 100"><defs><style>.cls-1{fill:#fff;}</style></defs><title>Artboard 1</title><path class="cls-1" d="M95,67.36a1.33,1.33,0,0,0-2.49,1,4.37,4.37,0,0,1-4.29,5.91,1.33,1.33,0,0,0-1.27,1.89,4.37,4.37,0,1,1-7.59-.57,4.3,4.3,0,0,1,.38-.49,1.34,1.34,0,0,0-.26-2l-10.7-7.17a26.27,26.27,0,0,0,3.31-4.42l10.46,7a1.31,1.31,0,0,0,.74.22,1.29,1.29,0,0,0,1.2-.75,5.54,5.54,0,0,1,.3-.53,4.38,4.38,0,0,1,4.65-1.81A1.33,1.33,0,1,0,90.05,63a7,7,0,0,0-7.16,2.49L73.33,59.1a26.23,26.23,0,0,0,1.23-19l8.33-5.58a7,7,0,1,0,7-11.22,7,7,0,1,0-13,2.22l-7.69,5.14c-.32-.36-.65-.72-1-1.07a26,26,0,0,0-18.42-7.75h-.2a25.84,25.84,0,0,0-10.84,2.36,1.33,1.33,0,0,0,1.11,2.42,23.32,23.32,0,0,1,9.73-2.12h.18a23.58,23.58,0,0,1,23.4,23.57A23.66,23.66,0,0,1,61.26,68.51a1.33,1.33,0,0,0-.67,1.16v6.08A2.58,2.58,0,0,1,58,78.32H57V74.37a1.33,1.33,0,0,0-2.66,0v3.95H50.89V74.37a1.34,1.34,0,0,0-2.67,0v3.95H44.78V74.37a1.34,1.34,0,0,0-2.67,0v3.95h-1a2.58,2.58,0,0,1-2.57-2.57V69.67a1.35,1.35,0,0,0-.67-1.16,23.54,23.54,0,0,1-2.29-39.4A1.33,1.33,0,1,0,34,27a25.79,25.79,0,0,0-3.68,3.31l-7.16-4.79a7,7,0,1,0-13-2.22,7,7,0,1,0,7,11.22l7.63,5.11a25.93,25.93,0,0,0-1.42,8.45A26.32,26.32,0,0,0,26,59.56l-8.88,6a7,7,0,1,0-7,11.22,7,7,0,0,0,5.56,8.13A6.46,6.46,0,0,0,17,85a7,7,0,0,0,6.11-10.49l9.54-6.38a26.23,26.23,0,0,0,3.18,2.29v5.33A5.24,5.24,0,0,0,41.09,81H58a5.24,5.24,0,0,0,5.23-5.23V70.42a26.49,26.49,0,0,0,3.57-2.63l10,6.72A7,7,0,0,0,83,85a6.53,6.53,0,0,0,1.38-.14,7,7,0,0,0,5.56-8.13A7,7,0,0,0,95,67.36ZM70.85,32.72l8.62-5.78a1.3,1.3,0,0,0,.58-.94A1.33,1.33,0,0,0,79.73,25a4.37,4.37,0,1,1,6.88-5.35,4.36,4.36,0,0,1,.33,4.29,1.33,1.33,0,0,0,1.27,1.89,4.37,4.37,0,0,1,2.64,8,4.38,4.38,0,0,1-6.07-1.19,5.54,5.54,0,0,1-.3-.53,1.34,1.34,0,0,0-.85-.71,1.35,1.35,0,0,0-1.09.18l-8.94,6A25.94,25.94,0,0,0,70.85,32.72Zm-53.39-1.2a1.35,1.35,0,0,0-1.09-.18,1.34,1.34,0,0,0-.85.71,4.07,4.07,0,0,1-.31.53,4.37,4.37,0,1,1-3.42-6.8,1.33,1.33,0,0,0,1.27-1.89,4.37,4.37,0,0,1,6.39-5.49A4.37,4.37,0,0,1,20.27,25,1.33,1.33,0,0,0,20,26a1.3,1.3,0,0,0,.58.94l8.06,5.4a26.17,26.17,0,0,0-2.83,4.74Zm3.07,41.54A1.3,1.3,0,0,0,20,74a1.33,1.33,0,0,0,.32,1,4.37,4.37,0,1,1-6.88,5.35,4.36,4.36,0,0,1-.33-4.29,1.33,1.33,0,0,0-1.27-1.89,4.37,4.37,0,1,1,3.42-6.8,4.07,4.07,0,0,1,.31.53,1.34,1.34,0,0,0,.85.71,1.35,1.35,0,0,0,1.09-.18l9.83-6.59a26.49,26.49,0,0,0,3.39,4.37Z"/><path class="cls-1" d="M39.27,44.93a7.95,7.95,0,1,0,7.94,8A8,8,0,0,0,39.27,44.93Zm0,13.23a5.29,5.29,0,1,1,5.28-5.28A5.29,5.29,0,0,1,39.27,58.16Z"/><path class="cls-1" d="M59.65,60.82a7.95,7.95,0,1,0-7.95-7.94A8,8,0,0,0,59.65,60.82Zm0-13.23a5.29,5.29,0,1,1-5.28,5.29A5.29,5.29,0,0,1,59.65,47.59Z"/><path class="cls-1" d="M49.58,59.9h0a1.33,1.33,0,0,0-.94.39l-2,2a1.33,1.33,0,1,0,1.88,1.88l1-1,1,1a1.33,1.33,0,0,0,1.9-1.87l-1.94-2A1.3,1.3,0,0,0,49.58,59.9Z"/></svg>