<svg xmlns="http://www.w3.org/2000/svg" viewBox="0 0 64.92 50"><defs><style>.cls-1{fill:#fff;}</style></defs><title>Asset 10</title><g id="Layer_2" data-name="Layer 2"><g id="Layer_1-2" data-name="Layer 1"><path class="cls-1" d="M64.6,37.4a1,1,0,1,0-1.78.68,3.15,3.15,0,0,1-.33,2.84,3.11,3.11,0,0,1-2.74,1.38.92.92,0,0,0-.83.42.94.94,0,0,0-.08.93,3.1,3.1,0,0,1-.23,3.06,3.06,3.06,0,0,1-2,1.33,3.12,3.12,0,0,1-3.19-4.8c.08-.12.17-.23.26-.34a1,1,0,0,0,.24-.76,1,1,0,0,0-.42-.67l-7.64-5.12a18.57,18.57,0,0,0,2.36-3.16l7.48,5a1,1,0,0,0,.52.16,1,1,0,0,0,.25,0,1,1,0,0,0,.61-.51,2.26,2.26,0,0,1,.22-.37,3.11,3.11,0,0,1,3.32-1.3,1,1,0,0,0,.44-1.85A5,5,0,0,0,56,36.08L49.12,31.5A18.7,18.7,0,0,0,50,17.91l6-4a5,5,0,1,0,5-8,5,5,0,1,0-9.33,1.58l-5.48,3.68c-.24-.26-.47-.52-.72-.77A18.6,18.6,0,0,0,32.28,4.87h-.14A18.44,18.44,0,0,0,24.4,6.55a1,1,0,0,0,.79,1.73,16.63,16.63,0,0,1,7-1.51h.13A16.83,16.83,0,0,1,49,23.6,16.9,16.9,0,0,1,40.5,38.22a1,1,0,0,0-.48.83v4.34a1.84,1.84,0,0,1-1.83,1.84h-.73V42.41a1,1,0,0,0-1.91,0v2.82H33.09V42.41a1,1,0,1,0-1.9,0v2.82H28.73V42.41a.95.95,0,0,0-1.9,0v2.82H26.1a1.84,1.84,0,0,1-1.84-1.84V39.05a1,1,0,0,0-.48-.83,16.81,16.81,0,0,1-1.63-28.14A1,1,0,1,0,21,8.55a18,18,0,0,0-2.63,2.37L13.28,7.49A5,5,0,0,0,7.93.1,5,5,0,0,0,4,5.91a5,5,0,1,0,5,8l5.45,3.65a18.54,18.54,0,0,0,.89,14.26L9,36.08a5,5,0,1,0-5,8,5,5,0,0,0,4,5.81,4.73,4.73,0,0,0,1,.1,5,5,0,0,0,4.37-7.49L20.09,38a17.72,17.72,0,0,0,2.27,1.64v3.8a3.75,3.75,0,0,0,3.74,3.74H38.19a3.75,3.75,0,0,0,3.74-3.74v-3.8a19,19,0,0,0,2.54-1.88l7.17,4.8A5,5,0,0,0,56,50a4.73,4.73,0,0,0,1-.1,5,5,0,0,0,4-5.81A5,5,0,0,0,64.07,42a5.07,5.07,0,0,0,.53-4.58ZM9.22,11.8a.95.95,0,0,0-1.39.38,2.26,2.26,0,0,1-.22.37A3.12,3.12,0,1,1,5.17,7.7.92.92,0,0,0,6,7.28a.94.94,0,0,0,.08-.93,3.1,3.1,0,0,1,.23-3.06A3.06,3.06,0,0,1,8.3,2,3.11,3.11,0,0,1,12,4.42a3.07,3.07,0,0,1-.47,2.34,2.78,2.78,0,0,1-.26.34.95.95,0,0,0,.18,1.43l5.76,3.85a19.14,19.14,0,0,0-2,3.39Zm2.19,29.67a.95.95,0,0,0-.18,1.43c.09.11.18.22.26.34A3.07,3.07,0,0,1,12,45.58a3.12,3.12,0,1,1-5.88-1.93A.94.94,0,0,0,6,42.72a.92.92,0,0,0-.83-.42,3.12,3.12,0,1,1,2.44-4.85,2.26,2.26,0,0,1,.22.37.95.95,0,0,0,1.39.38l7-4.71a18.23,18.23,0,0,0,2.42,3.12ZM53.51,8.53a.95.95,0,0,0,.18-1.43c-.09-.11-.18-.22-.26-.34A3.07,3.07,0,0,1,53,4.42a3.12,3.12,0,1,1,5.88,1.93.94.94,0,0,0,.08.93.92.92,0,0,0,.83.42,3.12,3.12,0,1,1-2.44,4.85,2.26,2.26,0,0,1-.22-.37,1,1,0,0,0-.61-.51,1,1,0,0,0-.77.13l-6.4,4.28a18.29,18.29,0,0,0-2-3.43Z"/><path class="cls-1" d="M24.79,21.38a5.68,5.68,0,1,0,5.68,5.68A5.68,5.68,0,0,0,24.79,21.38Zm0,9.45a3.78,3.78,0,1,1,3.78-3.77A3.77,3.77,0,0,1,24.79,30.83Z"/><path class="cls-1" d="M39.35,32.73a5.68,5.68,0,1,0-5.67-5.67A5.68,5.68,0,0,0,39.35,32.73Zm0-9.45a3.78,3.78,0,1,1-3.77,3.78,3.78,3.78,0,0,1,3.77-3.78Z"/><path class="cls-1" d="M32.16,32.07h0a1,1,0,0,0-.67.28l-1.41,1.41a1,1,0,0,0,1.35,1.34l.73-.73.71.73a1,1,0,0,0,1.34,0,1,1,0,0,0,0-1.35l-1.39-1.4a.92.92,0,0,0-.67-.29Z"/></g></g></svg>