<?xml version="1.0" encoding="utf-8"?>
<!-- Generator: Adobe Illustrator 24.0.3, SVG Export Plug-In . SVG Version: 6.00 Build 0)  -->
<svg version="1.1" id="Layer_12" xmlns="http://www.w3.org/2000/svg" xmlns:xlink="http://www.w3.org/1999/xlink" x="0px" y="0px"
	 viewBox="0 0 100 100" style="enable-background:new 0 0 100 100;" xml:space="preserve">
<style type="text/css">
	.st0{fill:#FAA275;}
</style>
<title>Artboard 1</title>
<path class="st0" d="M95,67.4c-0.3-0.7-1.1-1-1.7-0.7c-0.7,0.3-1,1.1-0.7,1.7c0.9,2.3-0.3,4.8-2.5,5.6c-0.6,0.2-1.2,0.3-1.7,0.3
	c-0.7,0-1.4,0.5-1.4,1.3c0,0.2,0,0.4,0.1,0.6c1,2.2,0.1,4.8-2.1,5.8c-2.2,1-4.8,0.1-5.8-2.1c-0.7-1.4-0.5-3,0.3-4.3
	c0.1-0.2,0.2-0.3,0.4-0.5c0.5-0.6,0.4-1.4-0.1-1.9c0,0-0.1-0.1-0.1-0.1l-10.7-7.2c1.3-1.4,2.4-2.8,3.3-4.4l10.5,7
	c0.2,0.1,0.5,0.2,0.7,0.2c0.5,0,1-0.3,1.2-0.8c0.1-0.2,0.2-0.4,0.3-0.5c1-1.5,2.9-2.2,4.7-1.8c0.7,0.2,1.5-0.3,1.6-1
	c0.2-0.7-0.3-1.5-1-1.6c-2.7-0.6-5.5,0.3-7.2,2.5l-9.6-6.4c2.8-6,3.2-12.7,1.2-19l8.3-5.6c2.4,3,6.8,3.5,9.8,1.1
	c3-2.4,3.5-6.8,1.1-9.8c-1-1.2-2.4-2.1-3.9-2.4c0.7-3.8-1.9-7.4-5.7-8.1c-3.8-0.7-7.4,1.9-8.1,5.7c-0.3,1.6,0,3.2,0.8,4.6l-7.7,5.1
	c-0.3-0.4-0.7-0.7-1-1.1c-4.9-4.9-11.5-7.7-18.4-7.8h-0.2c-3.7,0-7.4,0.8-10.8,2.4c-0.7,0.3-1,1.1-0.7,1.8c0.3,0.7,1.1,1,1.8,0.7
	c3.1-1.4,6.4-2.1,9.7-2.1h0.2c12.9,0.1,23.4,10.6,23.4,23.6c0,8.4-4.6,16.2-11.9,20.4c-0.4,0.2-0.7,0.7-0.7,1.2v6.1
	c0,1.4-1.2,2.6-2.6,2.6c0,0,0,0,0,0h-1v-3.9c0-0.7-0.6-1.3-1.3-1.3c-0.7,0-1.3,0.6-1.3,1.3v3.9h-3.5v-3.9c-0.1-0.7-0.7-1.3-1.5-1.2
	c-0.6,0.1-1.2,0.6-1.2,1.2v3.9h-3.4v-3.9c-0.1-0.7-0.7-1.3-1.5-1.2c-0.6,0.1-1.2,0.6-1.2,1.2v3.9h-1c-1.4,0-2.6-1.2-2.6-2.6v-6.1
	c0-0.5-0.3-0.9-0.7-1.2c-11.3-6.4-15.2-20.8-8.8-32.1c1.6-2.9,3.8-5.3,6.5-7.3c0.6-0.4,0.9-1.2,0.5-1.8c-0.4-0.6-1.2-0.9-1.8-0.5
	c-0.1,0.1-0.2,0.1-0.3,0.2c-1.3,1-2.6,2.1-3.7,3.3l-7.2-4.8c1.9-3.4,0.7-7.6-2.7-9.5s-7.6-0.7-9.5,2.7c-0.8,1.4-1.1,3-0.8,4.6
	c-3.8,0.9-6.1,4.6-5.3,8.4s4.6,6.1,8.4,5.3c1.5-0.3,2.9-1.2,3.9-2.4l7.6,5.1c-0.9,2.7-1.4,5.6-1.4,8.5c0,4,0.9,7.9,2.6,11.5l-8.9,6
	c-2.4-3-6.8-3.5-9.8-1.1c-3,2.4-3.5,6.8-1.1,9.8c1,1.2,2.4,2.1,3.9,2.4c-0.7,3.8,1.8,7.4,5.6,8.1C16.1,85,16.6,85,17,85
	c3.9,0,7-3.1,7-7c0-1.2-0.3-2.5-0.9-3.5l9.5-6.4c1,0.8,2.1,1.6,3.2,2.3v5.3c0,2.9,2.3,5.2,5.2,5.3c0,0,0,0,0,0H58
	c2.9,0,5.2-2.3,5.2-5.2v-5.3c1.3-0.8,2.5-1.7,3.6-2.6l10,6.7c-1.9,3.4-0.8,7.6,2.6,9.6c1.1,0.6,2.4,1,3.6,0.9c0.5,0,0.9,0,1.4-0.1
	c3.8-0.7,6.2-4.4,5.6-8.1c3.8-0.8,6.2-4.5,5.4-8.3C95.2,68.1,95.1,67.7,95,67.4z M70.8,32.7l8.6-5.8c0.3-0.2,0.5-0.6,0.6-0.9
	c0-0.4-0.1-0.7-0.3-1c-1.6-1.8-1.5-4.6,0.3-6.2c1.8-1.6,4.6-1.5,6.2,0.3c0.1,0.2,0.3,0.3,0.4,0.5c0.9,1.3,1,2.9,0.3,4.3
	c-0.3,0.7,0,1.5,0.6,1.8c0.2,0.1,0.4,0.1,0.6,0.1c2.4-0.1,4.5,1.7,4.6,4.1c0.1,1.5-0.7,3-1.9,3.9c-2,1.3-4.7,0.8-6.1-1.2
	c-0.1-0.2-0.2-0.3-0.3-0.5c-0.2-0.3-0.5-0.6-0.8-0.7c-0.4-0.1-0.8,0-1.1,0.2l-8.9,6C72.9,35.9,71.9,34.2,70.8,32.7z M17.5,31.5
	c-0.3-0.2-0.7-0.3-1.1-0.2c-0.4,0.1-0.7,0.4-0.9,0.7c-0.1,0.2-0.2,0.4-0.3,0.5c-1.3,2-4.1,2.5-6.1,1.2S6.6,29.7,8,27.7
	c0.9-1.3,2.3-2,3.8-1.9c0.7,0,1.4-0.5,1.4-1.3c0-0.2,0-0.4-0.1-0.6c-1-2.2-0.1-4.8,2.1-5.8c1.4-0.7,3-0.5,4.3,0.3
	c2,1.3,2.6,4,1.2,6.1c-0.1,0.2-0.3,0.4-0.4,0.5C20,25.3,20,25.6,20,26c0,0.4,0.3,0.7,0.6,0.9l8.1,5.4c-1.1,1.5-2.1,3.1-2.8,4.7
	L17.5,31.5z M20.5,73.1C20.2,73.3,20,73.6,20,74c0,0.4,0.1,0.7,0.3,1c1.6,1.8,1.5,4.6-0.3,6.2c-1.8,1.6-4.6,1.5-6.2-0.3
	c-0.1-0.2-0.3-0.3-0.4-0.5c-0.9-1.3-1-2.9-0.3-4.3c0.3-0.7,0-1.5-0.6-1.8c-0.2-0.1-0.4-0.1-0.6-0.1c-2.4,0.1-4.5-1.7-4.6-4.2
	c-0.1-2.4,1.7-4.5,4.2-4.6c1.5-0.1,3,0.7,3.8,1.9c0.1,0.2,0.2,0.3,0.3,0.5c0.2,0.3,0.5,0.6,0.8,0.7c0.4,0.1,0.8,0,1.1-0.2l9.8-6.6
	c1,1.6,2.1,3,3.4,4.4L20.5,73.1z"/>
<path class="st0" d="M39.3,44.9c-4.4,0-8,3.5-8,7.9c0,4.4,3.5,8,7.9,8c4.4,0,7.9-3.5,8-7.9C47.2,48.5,43.7,45,39.3,44.9z M39.3,58.2
	c-2.9,0-5.3-2.4-5.3-5.3c0-2.9,2.4-5.3,5.3-5.3c2.9,0,5.3,2.4,5.3,5.3c0,0,0,0,0,0C44.5,55.8,42.2,58.2,39.3,58.2z"/>
<path class="st0" d="M59.7,60.8c4.4,0,7.9-3.6,7.9-8c0-4.4-3.6-7.9-8-7.9c-4.4,0-7.9,3.6-7.9,8c0,0,0,0,0,0
	C51.7,57.3,55.3,60.8,59.7,60.8z M59.7,47.6c2.9,0,5.3,2.4,5.3,5.3c0,2.9-2.4,5.3-5.3,5.3c-2.9,0-5.3-2.4-5.3-5.3c0,0,0,0,0,0
	C54.4,50,56.7,47.6,59.7,47.6z"/>
<path class="st0" d="M49.6,59.9L49.6,59.9c-0.4,0-0.7,0.1-0.9,0.4l-2,2c-0.5,0.5-0.6,1.3-0.1,1.9c0.5,0.5,1.3,0.6,1.9,0.1
	c0,0,0,0,0.1-0.1l1-1l1,1c0.5,0.5,1.4,0.5,1.9,0c0.5-0.5,0.5-1.4,0-1.9l0,0l-1.9-2C50.2,60.1,49.9,59.9,49.6,59.9z"/>
</svg>
