<svg id="Deathrate" xmlns="http://www.w3.org/2000/svg" viewBox="0 0 100 100"><defs><style>.cls-1{fill:#fff;}</style></defs><title>Artboard 1</title><path class="cls-1" d="M73.59,18.36H68.53a1,1,0,0,0-1,1,1,1,0,0,0,1,1.07h.63V76.94H30.87V20.33h4.28v2.36a3.23,3.23,0,0,0,3.23,3.24h4.84a5.74,5.74,0,0,0,5.64,4.7h2.28a5.74,5.74,0,0,0,5.64-4.7h4.84a3.23,3.23,0,0,0,3.23-3.24V18.24A3.23,3.23,0,0,0,61.62,15H38.38a3.23,3.23,0,0,0-3.23,3.24v.05H28.52c-1.91,0-3.91.24-4.91,1.32a4.2,4.2,0,0,0-1.29,2.8V63.55a1,1,0,0,0,1,1,1,1,0,0,0,1-1V22.91A2.13,2.13,0,0,1,25,21.32a3.87,3.87,0,0,1,2.5-.92h1.38V78a1,1,0,0,0,1,1H70.21a1,1,0,0,0,1-1V20.4h2.38a2,2,0,0,1,2,2v58.5a2,2,0,0,1-2,2H26.37a2,2,0,0,1-2-2V68.42a1,1,0,0,0-1-1,1,1,0,0,0-1.06,1V80.91A4.09,4.09,0,0,0,26.41,85H73.59a4.09,4.09,0,0,0,4.09-4.09V22.45A4.09,4.09,0,0,0,73.59,18.36Zm-36.41-.07a1.18,1.18,0,0,1,1.18-1.19H61.64a1.18,1.18,0,0,1,1.18,1.19v4.42a1.18,1.18,0,0,1-1.18,1.19H55.88a1,1,0,0,0-1,1,3.69,3.69,0,0,1-3.68,3.66H48.91a3.69,3.69,0,0,1-3.68-3.66,1,1,0,0,0-1-1H38.36a1.18,1.18,0,0,1-1.18-1.19Z"/><path class="cls-1" d="M63.05,49H57.64l-3.46-9.41a1,1,0,0,0-2,.1L48.5,54.37,44.91,43.92a1,1,0,0,0-1.86-.17l-3,5.35H37A1,1,0,0,0,36,50a1,1,0,0,0,1,1h3.73s.71-.13.9-.45l2.16-3.86,4,11.53a1,1,0,0,0,2-.08l3.75-14.76,2.57,7c.15.4,1,.67,1,.67h6.12a1.05,1.05,0,0,0,0-2.1Z"/></svg>