<svg xmlns="http://www.w3.org/2000/svg" viewBox="0 0 56.9 49.63"><defs><style>.cls-1{fill:#fff;}</style></defs><title>Asset 12</title><g id="Layer_2" data-name="Layer 2"><g id="Layer_1-2" data-name="Layer 1"><path class="cls-1" d="M54.28,49.63H2.62A2.62,2.62,0,0,1,.35,45.71L9.53,29.82a.87.87,0,0,1,1.19-.32A.88.88,0,0,1,11,30.7L1.87,46.58a.84.84,0,0,0,0,.87.86.86,0,0,0,.75.43H54.28a.86.86,0,0,0,.75-.43.84.84,0,0,0,0-.86L30,2.19a.84.84,0,0,0-.74-.44.82.82,0,0,0-.75.41L14.39,24.79a.87.87,0,0,1-1.2.28.89.89,0,0,1-.29-1.21L27,1.24A2.55,2.55,0,0,1,29.26,0a2.6,2.6,0,0,1,2.22,1.33l25.08,44.4a2.62,2.62,0,0,1-2.28,3.9Z"/><path class="cls-1" d="M29,34.64a.88.88,0,0,1-.86-.71l-3-15.38a.87.87,0,0,1,.18-.71.89.89,0,0,1,.67-.33l5.56-.1a.87.87,0,0,1,.88,1L29.86,33.91a.87.87,0,0,1-.86.73Zm-1.91-15.4,1.85,9.59,1.62-9.65Z"/><circle class="cls-1" cx="29.02" cy="38.99" r="1.76"/></g></g></svg>