<svg id="Layer_1" data-name="Layer 1" xmlns="http://www.w3.org/2000/svg" viewBox="0 0 100 100"><defs><style>.cls-1{fill:#fff;}</style></defs><title>Artboard 1</title><path class="cls-1" d="M89.64,79.49,54.27,16.88A3.65,3.65,0,0,0,51.14,15a3.6,3.6,0,0,0-3.21,1.74L28.07,48.66a1.23,1.23,0,1,0,2.1,1.3L50,18.05a1.18,1.18,0,0,1,1.07-.58,1.21,1.21,0,0,1,1,.62L87.5,80.71a1.22,1.22,0,0,1-1.07,1.82H13.57a1.21,1.21,0,0,1-1.06-.61,1.18,1.18,0,0,1,0-1.22L25.45,58.3a1.24,1.24,0,0,0-2.14-1.24L10.37,79.46A3.7,3.7,0,0,0,13.57,85H86.43a3.69,3.69,0,0,0,3.21-5.51Z"/><path class="cls-1" d="M55.35,40a1.25,1.25,0,0,0-1-.43l-7.85.15a1.21,1.21,0,0,0-.93.45,1.26,1.26,0,0,0-.26,1l4.19,21.69a1.23,1.23,0,0,0,1.21,1h0a1.23,1.23,0,0,0,1.2-1L55.64,41A1.24,1.24,0,0,0,55.35,40ZM50.68,55.67,48.07,42.14,53,42.05Z"/><path class="cls-1" d="M48.32,70a2.49,2.49,0,1,0,2.48-2.49A2.48,2.48,0,0,0,48.32,70Z"/></svg>