<svg id="Distance" xmlns="http://www.w3.org/2000/svg" viewBox="0 0 100 100"><defs><style>.cls-1{fill:#fff;stroke:#fff;stroke-miterlimit:10;}</style></defs><title>Artboard 1</title><path class="cls-1" d="M86.29,49.89,63.68,30.55a1.33,1.33,0,0,0-1.86.15A1.31,1.31,0,0,0,62,32.55l19.88,17v0H16.3l19.88-17a1.32,1.32,0,1,0-1.71-2L11.86,49.92a1.33,1.33,0,0,0-.46,1,1.3,1.3,0,0,0,.52,1L35.57,70a1.33,1.33,0,0,0,.8.27,1.32,1.32,0,0,0,.8-2.37L16.58,52.22H81.51L61,67.88a1.31,1.31,0,0,0,.8,2.36,1.32,1.32,0,0,0,.79-.27l23.66-18a1.31,1.31,0,0,0,.06-2Z"/></svg>