<?xml version="1.0" encoding="utf-8"?>
<!-- Generator: Adobe Illustrator 24.0.3, SVG Export Plug-In . SVG Version: 6.00 Build 0)  -->
<svg version="1.1" id="Event_notification" xmlns="http://www.w3.org/2000/svg" xmlns:xlink="http://www.w3.org/1999/xlink" x="0px"
	 y="0px" viewBox="0 0 100 100" style="enable-background:new 0 0 100 100;" xml:space="preserve">
<style type="text/css">
	.st0{fill:#006064;}
</style>
<title>Artboard 1</title>
<path class="st0" d="M73.2,61.4V47.8c-0.1-0.8-0.7-1.3-1.5-1.2c-0.7,0.1-1.2,0.6-1.2,1.2v13.6c0,2.8,1.2,5.4,3.2,7.3
	c1.4,1.3,1.5,3.6,0.2,5c-0.7,0.7-1.6,1.2-2.6,1.2H28.6c-2,0-3.6-1.6-3.6-3.5c0-1,0.4-2,1.2-2.6c2-1.9,3.2-4.5,3.2-7.3V45.6
	c0-11.3,9.2-20.5,20.5-20.5c3.1,0,6.1,0.7,8.9,2c-1,1.6-1.5,3.4-1.5,5.3c0,5.6,4.5,10.1,10.1,10.1s10.1-4.5,10.1-10.1
	c0-5.6-4.5-10.1-10.1-10.1c-2.5,0-4.9,0.9-6.8,2.6c-2-1.1-4.2-1.8-6.5-2.2c1.5-2.4,0.8-5.5-1.5-7c-2.4-1.5-5.5-0.8-7,1.5
	c-0.5,0.8-0.8,1.8-0.8,2.7c0,1,0.3,1.9,0.8,2.7c-11,2.1-19,11.6-19,22.8v15.8c0,2-0.9,3.9-2.3,5.3C21.8,69,21.7,73,24,75.6
	c1.2,1.3,2.9,2,4.6,2h12.7c0.8,4.8,5.3,8,10,7.3c3.7-0.6,6.7-3.5,7.3-7.3h12.7c3.5,0,6.3-2.8,6.3-6.3c0-1.8-0.7-3.4-2-4.6
	C74.1,65.3,73.2,63.4,73.2,61.4z M67.5,25.1c4.1,0,7.4,3.3,7.4,7.4s-3.3,7.4-7.4,7.4s-7.4-3.3-7.4-7.4
	C60.1,28.4,63.4,25.1,67.5,25.1z M50,17.7c1.3,0,2.3,1,2.3,2.3c0,1.3-1,2.3-2.3,2.3c-1.3,0-2.3-1-2.3-2.3c0,0,0,0,0,0
	C47.7,18.8,48.7,17.7,50,17.7z M50,82.3c-2.8,0-5.2-1.9-5.9-4.7h11.7C55.2,80.3,52.8,82.3,50,82.3z"/>
<path class="st0" d="M34.6,39.1c-0.3,0.7,0,1.5,0.7,1.8c0,0,0,0,0,0c0.2,0.1,0.4,0.1,0.5,0.1c0.5,0,1-0.3,1.3-0.8
	c2.2-5.2,7.3-8.5,12.9-8.5c0.7,0.2,1.5-0.3,1.6-1.1c0.2-0.7-0.3-1.5-1.1-1.6c-0.2,0-0.4,0-0.6,0C43.3,29,37.3,33,34.6,39.1z"/>
<path class="st0" d="M66.9,30.5v4.3c0,0.8,0.3,1.2,1.1,1.2s0.8-0.6,0.8-1.3v-5.4c0-0.6-0.3-1.1-0.8-1.3c-0.5-0.2-1.1-0.1-1.5,0.3
	l-1.6,1.6c-0.5,0.5-0.7,0.9-0.1,1.4C65.6,32.2,66.5,30.6,66.9,30.5z"/>
</svg>
