<svg id="Event_notification" xmlns="http://www.w3.org/2000/svg" viewBox="0 0 100 100"><defs><style>.cls-1{fill:#fff;}</style></defs><title>Artboard 1</title><path class="cls-1" d="M73.22,61.42V47.81a1.37,1.37,0,0,0-2.73,0V61.42a9.89,9.89,0,0,0,3.22,7.29,3.55,3.55,0,0,1-2.4,6.17H28.65a3.55,3.55,0,0,1-2.4-6.17,9.89,9.89,0,0,0,3.22-7.29V45.62A20.52,20.52,0,0,1,58.93,27.17,10,10,0,0,0,57.4,32.5,10.13,10.13,0,1,0,60.72,25a23.26,23.26,0,0,0-6.48-2.23,5.06,5.06,0,1,0-9.32-2.72,5,5,0,0,0,.8,2.72,23.27,23.27,0,0,0-19,22.84v15.8a7.17,7.17,0,0,1-2.33,5.27,6.29,6.29,0,0,0,4.24,10.93H41.34a8.75,8.75,0,0,0,17.28,0H71.31a6.29,6.29,0,0,0,4.24-10.93A7.17,7.17,0,0,1,73.22,61.42Zm-5.7-36.3a7.38,7.38,0,1,1-7.38,7.38A7.39,7.39,0,0,1,67.52,25.12ZM50,17.73a2.33,2.33,0,1,1-2.32,2.33A2.33,2.33,0,0,1,50,17.73Zm0,64.54a6,6,0,0,1-5.86-4.65H55.84A6,6,0,0,1,50,82.27Z"/><path class="cls-1" d="M34.62,39.11a1.36,1.36,0,0,0,.72,1.79,1.31,1.31,0,0,0,.54.11,1.37,1.37,0,0,0,1.26-.83A13.93,13.93,0,0,1,50,31.68,1.37,1.37,0,1,0,50,29,16.66,16.66,0,0,0,34.62,39.11Z"/><path class="cls-1" d="M66.94,30.51v4.34c0,.76.3,1.22,1.06,1.22s.85-.58.85-1.34v-5.4A1.37,1.37,0,0,0,68,28.07a1.36,1.36,0,0,0-1.49.3l-1.57,1.57c-.53.53-.65.88-.12,1.42C65.62,32.15,66.53,30.57,66.94,30.51Z"/></svg>