<svg id="FakeNews" xmlns="http://www.w3.org/2000/svg" viewBox="0 0 100 100"><defs><style>.cls-1{fill:#fff;}</style></defs><title>Artboard 1</title><path class="cls-1" d="M77.9,69.19a1,1,0,0,0,1-1V25a1,1,0,0,0-1-1H74.5V20.44a1,1,0,0,0-1-1h-3.4V16a1,1,0,0,0-1-1h-47a1,1,0,0,0-1,1V75a1,1,0,0,0,1,1h3.4v3.4a1,1,0,0,0,1,1h3.4V84a1,1,0,0,0,1,1h47a1,1,0,0,0,1-1V73a1,1,0,1,0-2,0V83H32V80.44H73.48a1,1,0,0,0,1-1V62a1,1,0,0,0-2,0V78.39H27.55V76H69.06a1,1,0,0,0,1-1V53.37a1,1,0,1,0-2,0V74H23.13V17.05H68V48.57a1,1,0,0,0,2,0V21.47h2.37V57.18a1,1,0,0,0,2,0V26h2.37V68.16A1,1,0,0,0,77.9,69.19Z"/><path class="cls-1" d="M42.19,40.33V21.27a1,1,0,0,0-1-1H27.35a1,1,0,0,0-1,1V40.33a1,1,0,0,0,1,1H41.16A1,1,0,0,0,42.19,40.33Zm-13.81-1v-17H40.14v17Z"/><path class="cls-1" d="M64.84,21.27a1,1,0,0,0-1-1H46.13a1,1,0,0,0-1,1V26a1,1,0,0,0,1,1H63.81a1,1,0,0,0,1-1Zm-2.05,3.67H47.16V22.3H62.79Z"/><path class="cls-1" d="M63.81,29.92H46.13a1,1,0,0,0,0,2H63.81a1,1,0,1,0,0-2Z"/><path class="cls-1" d="M63.81,34.34H46.13a1,1,0,0,0,0,2H63.81a1,1,0,1,0,0-2Z"/><path class="cls-1" d="M63.81,39.31H46.13a1,1,0,0,0,0,2H63.81a1,1,0,1,0,0-2Z"/><path class="cls-1" d="M63.81,44.28h-26a1,1,0,1,0,0,2h26a1,1,0,1,0,0-2Z"/><path class="cls-1" d="M32.87,44.28H27.35a1,1,0,1,0,0,2h5.52a1,1,0,1,0,0-2Z"/><path class="cls-1" d="M63.81,49.25h-26a1,1,0,1,0,0,2h26a1,1,0,1,0,0-2Z"/><path class="cls-1" d="M32.87,49.25H27.35a1,1,0,1,0,0,2h5.52a1,1,0,1,0,0-2Z"/><path class="cls-1" d="M63.81,54.22h-26a1,1,0,1,0,0,2.05h26a1,1,0,1,0,0-2.05Z"/><path class="cls-1" d="M32.87,54.22H27.35a1,1,0,1,0,0,2.05h5.52a1,1,0,1,0,0-2.05Z"/><path class="cls-1" d="M63.81,59.19h-26a1,1,0,1,0,0,2.06h26a1,1,0,0,0,0-2.06Z"/><path class="cls-1" d="M32.87,59.19H27.35a1,1,0,1,0,0,2.06h5.52a1,1,0,1,0,0-2.06Z"/><path class="cls-1" d="M63.81,64.17h-26a1,1,0,1,0,0,2h26a1,1,0,1,0,0-2Z"/><path class="cls-1" d="M27.35,64.17a1,1,0,1,0,0,2h5.52a1,1,0,1,0,0-2Z"/></svg>