<svg id="Warning_fakeNews" xmlns="http://www.w3.org/2000/svg" viewBox="0 0 100 100"><defs><style>.cls-1{fill:#fff;}</style></defs><title>Artboard 1</title><path class="cls-1" d="M53.68,45.13l-7.85.15a1.2,1.2,0,0,0-.93.45,1.24,1.24,0,0,0-.26,1l4.19,21.7a1.23,1.23,0,0,0,1.21,1h0a1.23,1.23,0,0,0,1.2-1l3.66-21.84a1.24,1.24,0,0,0-.29-1A1.21,1.21,0,0,0,53.68,45.13ZM50,61.25,47.34,47.72l4.9-.09Z"/><path class="cls-1" d="M50.08,73.09a2.49,2.49,0,1,0,2.49,2.48A2.48,2.48,0,0,0,50.08,73.09Z"/><path class="cls-1" d="M74,83.31H70.68V50.11a20.76,20.76,0,0,0-41.52,0v33.2H24.28A2.67,2.67,0,0,0,21.62,86v2.91a2.67,2.67,0,0,0,2.66,2.67H74a2.68,2.68,0,0,0,2.67-2.67V86A2.68,2.68,0,0,0,74,83.31ZM31.66,50.11a18.26,18.26,0,0,1,36.52,0v33.1H31.66ZM74.18,88.89a.18.18,0,0,1-.17.17H24.28a.17.17,0,0,1-.16-.17V86a.16.16,0,0,1,.16-.17H74a.17.17,0,0,1,.17.17Z"/><path class="cls-1" d="M30,31.76a1.29,1.29,0,0,0,.89-.37,1.27,1.27,0,0,0,0-1.77l-9.7-9.69a1.25,1.25,0,1,0-1.76,1.77l9.69,9.69A1.25,1.25,0,0,0,30,31.76Z"/><path class="cls-1" d="M80.62,20.81a1.24,1.24,0,0,0-1.76,0L68.54,31.13a1.24,1.24,0,0,0,0,1.76,1.21,1.21,0,0,0,.88.37,1.25,1.25,0,0,0,.89-.37L80.62,22.58A1.25,1.25,0,0,0,80.62,20.81Z"/><path class="cls-1" d="M50,23.89h0a1.25,1.25,0,0,0,1.24-1.26L51.14,9.68a1.25,1.25,0,0,0-1.25-1.24h0A1.24,1.24,0,0,0,48.64,9.7l.11,13A1.25,1.25,0,0,0,50,23.89Z"/></svg>