<svg xmlns="http://www.w3.org/2000/svg" viewBox="0 0 74.22 98.86"><defs><style>.cls-1{fill:#006064;}</style></defs><title>Asset 19</title><g id="Layer_2" data-name="Layer 2"><g id="Layer_1-2" data-name="Layer 1"><path class="cls-1" d="M69.12,16.1l2.74,8.63a1.12,1.12,0,0,1-.17,1l-2.3,3a1.1,1.1,0,0,0,0,1.3L72,33.75a1.06,1.06,0,0,1,.2.71l-.77,11a.94.94,0,0,0,0,.37l2.68,9.54a1.09,1.09,0,0,1-1.05,1.39H66.31a1.12,1.12,0,0,0-.63.2l-13,9.13a1.1,1.1,0,0,0-.47.89v3.64a1.1,1.1,0,0,0,.25.69l10.1,12.32a1.1,1.1,0,0,1-.34,1.66l-9,4.76a1.09,1.09,0,0,0-.46,1.48l1.7,3.24a1.1,1.1,0,0,1-.54,1.51l-5.92,2.51a1.15,1.15,0,0,1-.71,0L34.55,95.45a1.09,1.09,0,0,0-1.06.29l-2.33,2.39a1.08,1.08,0,0,1-1.55,0l-4.34-4.29a1,1,0,0,0-.31-.22l-8.25-3.82a1.11,1.11,0,0,0-.76-.06L9.44,91.6a1.09,1.09,0,0,1-1.35-1.35l2.46-8.6a22.5,22.5,0,0,1,1.83-4.53l1.37-2.58a1.09,1.09,0,0,0-.4-1.45l-9.92-6a1.14,1.14,0,0,1-.48-.6L.06,57.81a1.08,1.08,0,0,1,.32-1.17L3.79,53.7A1.06,1.06,0,0,0,4.16,53c.16-2.26.86-12.38,1-15.23a1.08,1.08,0,0,1,.75-1l6.42-2.1a1.15,1.15,0,0,0,.66-.58l2.85-6.18a1.18,1.18,0,0,0,.1-.45l.12-12.21a1.08,1.08,0,0,1,1.09-1.08h7.63a1.09,1.09,0,0,1,.93.53h0a1.09,1.09,0,0,0,2-.39l.14-.81a1.09,1.09,0,0,1,1.08-.9h2a1.09,1.09,0,0,0,1.09-1.13l-.08-3a1.13,1.13,0,0,0-.35-.77L31,7.07a1.09,1.09,0,0,1-.14-1.45l.86-1.17a1.11,1.11,0,0,0,.1-1.14l-.87-1.72A1.1,1.1,0,0,1,32.34.09l7.48,3.19a1.1,1.1,0,0,1,.64.83L41,7a1.05,1.05,0,0,0,.46.72L43.2,8.94a1.1,1.1,0,0,0,1.35-.1l1.86-1.69a1.12,1.12,0,0,1,.91-.27l2.43.38a1.09,1.09,0,0,1,.88,1.4l0,.12a1.06,1.06,0,0,1-.46.6l-4.28,2.73a1.09,1.09,0,0,0-.19,1.69l.61.61a1.11,1.11,0,0,0,.64.31l4.05.47a1.09,1.09,0,0,0,1.22-1.09v-.63a1.1,1.1,0,0,1,1.16-1.09l2.69.17a1.15,1.15,0,0,0,.86-.34l2.43-2.53A1.09,1.09,0,0,1,61,9.76l3.8,4.83a1.15,1.15,0,0,0,.72.41l2.72.34A1.12,1.12,0,0,1,69.12,16.1Z"/></g></g></svg>