<svg xmlns="http://www.w3.org/2000/svg" viewBox="0 0 74.75 100"><defs><style>.cls-1{fill:#006064;}</style></defs><title>Asset 17</title><g id="Layer_2" data-name="Layer 2"><g id="Layer_1-2" data-name="Layer 1"><path class="cls-1" d="M69.08,16.51l3.12,9.84-3.12,4.12,3.36,4.67-.82,11.58,3.13,11.11H66.14L52.36,67.48v4.6L63.55,85.73l-11.19,5.9,2.75,5.26L47.76,100,34.11,96.36,30.56,100l-5.25-5.21-8.79-4.07-8.8,2.49L11.4,80.37l3-5.67L3.26,68,0,58.19l4.31-3.71S5.49,37.55,5.36,38.07L13,35.58l3.15-6.83.13-13.52h9.32l1.84,3,.79-4.6h4.07l-.13-4.59L30.43,7.48,32.27,5,29.78,0,40.54,4.59l.66,3.94,2.89,2L47,7.88l4.21.65-.53,1.71-5.78,3.68,1.84,1.83,5.65.66v-3l4.35.26,3.65-3.8L65.22,16Z"/></g></g></svg>