<svg id="Germany" xmlns="http://www.w3.org/2000/svg" viewBox="0 0 100 100"><defs><style>.cls-1{fill:#fff;}</style></defs><title>Artboard 1</title><path class="cls-1" d="M57.18,85a1.52,1.52,0,0,1-.42-.06l-8.69-2.31L46.5,84.24a1.58,1.58,0,0,1-1.14.48,1.6,1.6,0,0,1-1.15-.46l-3-3-5.67-2.62L31.11,80a1.61,1.61,0,0,1-2-2L30.83,72a16.43,16.43,0,0,1,1.33-3.29l.91-1.7L26.29,63a1.62,1.62,0,0,1-.7-.87l-2-6a1.62,1.62,0,0,1,.48-1.73l2.35-2c.1-1.91.56-8.52.66-10.42a1.6,1.6,0,0,1,1.1-1.45L32.62,39l1.92-4.22.07-8.39a1.61,1.61,0,0,1,1.61-1.59h5.26a1.63,1.63,0,0,1,1.24.57l.05-.33a1.61,1.61,0,0,1,1.59-1.33h1.3l-.06-2-.42-.34a1.61,1.61,0,0,1-.2-2.14l.56-.76L45,17.33A1.61,1.61,0,0,1,47,15.13l5.16,2.21a1.59,1.59,0,0,1,1,1.21l.33,2,1.13.74,1.23-1.12a1.62,1.62,0,0,1,1.33-.4l1.68.26a1.61,1.61,0,0,1,1.12.74,1.58,1.58,0,0,1,.17,1.32,1.63,1.63,0,0,1-.69,1L56.6,24.87l.33.33,2.63.29v-.33a1.61,1.61,0,0,1,.5-1.17,1.59,1.59,0,0,1,1.2-.43l1.86.11L64.72,22a1.69,1.69,0,0,1,1.25-.5,1.63,1.63,0,0,1,1.18.62l2.63,3.33,1.81.21a1.61,1.61,0,0,1,1.33,1.1h0l1.9,6a1.63,1.63,0,0,1-.26,1.46l-1.54,2,1.79,2.5a1.56,1.56,0,0,1,.3,1l-.53,7.59,1.85,6.55a1.59,1.59,0,0,1-.27,1.41,1.57,1.57,0,0,1-1.28.64H70.17l-9,6.29,0,2.43,7,8.44a1.59,1.59,0,0,1,.33,1.34,1.62,1.62,0,0,1-.83,1.11l-6.16,3.24,1.13,2.16a1.6,1.6,0,0,1-.8,2.22l-4.08,1.73A1.55,1.55,0,0,1,57.18,85ZM48,80.91a1.92,1.92,0,0,1,.41,0l8.76,2.34,3.92-1.69L60,79.47a1.61,1.61,0,0,1,.68-2.17l6.14-3.24-6.9-8.41a1.65,1.65,0,0,1-.36-1V62.12a1.6,1.6,0,0,1,.68-1.32l9-6.31a1.59,1.59,0,0,1,.92-.29h4.58l-1.82-6.46a1.52,1.52,0,0,1-.05-.56l.53-7.58-1.82-2.49a1.61,1.61,0,0,1,0-1.91l1.58-2.09-1.89-5.82-1.81-.23a1.62,1.62,0,0,1-1.07-.6l-2.55-3.25-1.6,1.67a1.64,1.64,0,0,1-1.26.49l-1.76-.1v.33a1.59,1.59,0,0,1-.54,1.2,1.63,1.63,0,0,1-1.25.4l-2.8-.33a1.61,1.61,0,0,1-1-.46L55.3,26a1.63,1.63,0,0,1-.46-1.31,1.57,1.57,0,0,1,.74-1.18l2.85-1.82-1.51-.23-1.21,1.14a1.6,1.6,0,0,1-2,.14l-1.24-.84a1.66,1.66,0,0,1-.67-1.07l-.34-2-4.86-2,.48,1A1.6,1.6,0,0,1,47,19.43l-.55.74.39.35a1.66,1.66,0,0,1,.52,1.14l.06,2.08a1.61,1.61,0,0,1-1.61,1.65H44.44l-.08.48a1.61,1.61,0,0,1-3,.57l-5.08,0-.09,8.34a1.7,1.7,0,0,1-.14.66l-2,4.27a1.64,1.64,0,0,1-1,.85L28.78,42c-.11,2-.55,8.5-.69,10.47a1.6,1.6,0,0,1-.56,1.1l-2.3,2,2,6L34,65.61a1.61,1.61,0,0,1,.6,2.14l-.95,1.78a14.58,14.58,0,0,0-1.2,3l-1.65,5.77L35.15,77a1.63,1.63,0,0,1,1.11.09L42,79.76a1.51,1.51,0,0,1,.45.31L45.34,83l1.54-1.57A1.61,1.61,0,0,1,48,80.91ZM71.29,27.23h0Zm-35.07-.75Zm18.46-5.16h0ZM46.37,16.7Z"/></svg>