<svg id="Happiness" xmlns="http://www.w3.org/2000/svg" viewBox="0 0 100 100"><defs><style>.cls-1{fill:#fff;}</style></defs><title>Artboard 1</title><path class="cls-1" d="M50,15a34.74,34.74,0,0,0-15.15,3.44,1.22,1.22,0,0,0,1.06,2.19A32.26,32.26,0,0,1,50,17.43,32.57,32.57,0,1,1,26.32,27.64,1.22,1.22,0,1,0,24.55,26,35,35,0,1,0,50,15Z"/><ellipse class="cls-1" cx="39.62" cy="41.77" rx="2.73" ry="5.02"/><ellipse class="cls-1" cx="59.56" cy="41.7" rx="2.73" ry="5.02"/><path class="cls-1" d="M49.85,69a19.45,19.45,0,0,0,16.42-8.2,1.21,1.21,0,0,0-2.06-1.28c-.18.29-4.53,7-14.36,7A18.1,18.1,0,0,1,35.1,59.46a1.21,1.21,0,0,0-2,1.35A20.5,20.5,0,0,0,49.85,69Z"/></svg>