<svg xmlns="http://www.w3.org/2000/svg" viewBox="0 0 50.43 50.43"><defs><style>.cls-1{fill:#fff;}</style></defs><title>Asset 13</title><g id="Layer_2" data-name="Layer 2"><g id="Layer_1-2" data-name="Layer 1"><path class="cls-1" d="M25.22,50.43A25.21,25.21,0,0,1,6.88,7.91a.87.87,0,1,1,1.27,1.2,23.35,23.35,0,1,0,6.91-5.06.87.87,0,1,1-.76-1.57A24.91,24.91,0,0,1,25.22,0a25.22,25.22,0,0,1,0,50.43Z"/><ellipse class="cls-1" cx="17.74" cy="19.29" rx="1.97" ry="3.62"/><ellipse class="cls-1" cx="32.1" cy="19.24" rx="1.97" ry="3.62"/><path class="cls-1" d="M25.11,38.89A14.78,14.78,0,0,1,13,33a.87.87,0,1,1,1.45-1,13.06,13.06,0,0,0,10.63,5.1,12.25,12.25,0,0,0,10.34-5.08.88.88,0,0,1,1.49.92A14,14,0,0,1,25.11,38.89Z"/></g></g></svg>