<?xml version="1.0" encoding="utf-8"?>
<!-- Generator: Adobe Illustrator 24.0.3, SVG Export Plug-In . SVG Version: 6.00 Build 0)  -->
<svg version="1.1" id="Healed" xmlns="http://www.w3.org/2000/svg" xmlns:xlink="http://www.w3.org/1999/xlink" x="0px" y="0px"
	 viewBox="0 0 100 100" style="enable-background:new 0 0 100 100;" xml:space="preserve">
<style type="text/css">
	.st0{fill:#EA5455;}
</style>
<title>Artboard 1</title>
<path class="st0" d="M83.6,22c-3.9-4.5-9.7-7.1-15.6-7c-8.6,0-14,5.1-17,9.4c-0.3,0.5-0.6,0.9-0.9,1.4c-0.3-0.5-0.6-1-0.9-1.4
	c-3-4.3-8.4-9.4-17-9.4c-6-0.1-11.7,2.5-15.6,7c-3.9,4.5-6,10.3-5.9,16.2c0,6,2.1,11.5,6.4,17.3c0.4,0.5,1.1,0.6,1.7,0.2
	c0,0,0.1,0,0.1-0.1l0,0c0.4-0.4,0.5-1.1,0.1-1.6c-4-5.4-5.9-10.5-5.9-15.9c-0.1-5.3,1.8-10.5,5.3-14.6c3.5-4,8.6-6.3,13.9-6.2
	c7.6,0,12.4,4.5,15.1,8.4c0.4,0.6,0.8,1.2,1.2,1.9c0.5,0.9,1.7,1.2,2.6,0.7c0.3-0.2,0.5-0.4,0.7-0.7c0.4-0.6,0.8-1.3,1.2-1.9
	c2.7-3.8,7.5-8.4,15.1-8.4c5.3,0,10.4,2.2,13.9,6.2c3.5,4.1,5.4,9.3,5.3,14.6c0,6.1-2.4,11.8-7.6,17.9C74.8,61.7,68,67.5,60.1,74.3
	c-3,2.5-6,5.1-9.4,8.1c-0.4,0.4-1.1,0.4-1.5-0.1c0,0,0,0,0,0c-3.3-2.9-6.3-5.5-9.3-8c-4.2-3.6-8.1-6.9-11.5-10
	c-0.5-0.4-1.1-0.4-1.6,0l0,0c-0.5,0.4-0.5,1.2-0.1,1.7c0,0,0.1,0.1,0.1,0.1c3.5,3.2,7.4,6.5,11.6,10.1c2.9,2.5,6,5.1,9.3,8
	c0.5,0.5,1.2,0.8,1.9,0.9c1,0.1,2-0.2,2.8-0.9c3.3-2.8,6.3-5.5,9.3-8c8-6.8,14.9-12.7,19.7-18.4c5.5-6.6,8.1-12.8,8.1-19.4
	C89.6,32.3,87.5,26.5,83.6,22z"/>
</svg>
