<svg id="Healed" xmlns="http://www.w3.org/2000/svg" viewBox="0 0 100 100"><defs><style>.cls-1{fill:#fff;}</style></defs><title>Artboard 1</title><path class="cls-1" d="M83.58,22a20.57,20.57,0,0,0-15.64-7c-8.57,0-14,5.09-17,9.36-.32.45-.64.93-.94,1.41-.3-.49-.62-1-.94-1.41-3-4.27-8.43-9.36-17-9.36a20.57,20.57,0,0,0-15.64,7,24.42,24.42,0,0,0-5.88,16.2c0,5.95,2.05,11.5,6.43,17.3a1.18,1.18,0,0,0,1.74.15h0a1.18,1.18,0,0,0,.13-1.59c-4-5.37-5.93-10.46-5.93-15.86A22,22,0,0,1,18.2,23.61a18.2,18.2,0,0,1,13.86-6.24c7.56,0,12.37,4.54,15.07,8.36.41.58.82,1.21,1.2,1.85a1.93,1.93,0,0,0,3.34,0c.38-.64.78-1.26,1.2-1.85,2.7-3.82,7.51-8.36,15.07-8.36A18.2,18.2,0,0,1,81.8,23.61a22,22,0,0,1,5.29,14.63c0,6.08-2.39,11.76-7.55,17.88C74.84,61.72,68,67.53,60.1,74.29c-3,2.52-6,5.14-9.4,8.08a1.05,1.05,0,0,1-1.5-.08c-3.26-2.86-6.33-5.48-9.3-8-4.19-3.57-8.06-6.88-11.49-10a1.18,1.18,0,0,0-1.59,0h0a1.17,1.17,0,0,0,0,1.74c3.46,3.19,7.36,6.52,11.57,10.11,2.92,2.49,6,5.07,9.26,8a3.63,3.63,0,0,0,1.93.92,3.45,3.45,0,0,0,2.79-.9c3.26-2.85,6.32-5.46,9.3-8,8-6.8,14.88-12.68,19.71-18.42,5.53-6.58,8.1-12.75,8.1-19.41A24.42,24.42,0,0,0,83.58,22Z"/></svg>