<svg xmlns="http://www.w3.org/2000/svg" viewBox="0 0 56.85 51.75"><defs><style>.cls-1{fill:#fff;}</style></defs><title>Asset 16</title><g id="Layer_2" data-name="Layer 2"><g id="Layer_1-2" data-name="Layer 1"><path class="cls-1" d="M54.37,39.8H2.48A2.48,2.48,0,0,1,0,37.32V2.48A2.48,2.48,0,0,1,2.48,0H54.37a2.48,2.48,0,0,1,2.48,2.48V37.32A2.48,2.48,0,0,1,54.37,39.8ZM2.48,1.75a.73.73,0,0,0-.73.73V37.32a.73.73,0,0,0,.73.73H54.37a.73.73,0,0,0,.73-.73V2.48a.73.73,0,0,0-.73-.73Z"/><path class="cls-1" d="M56,31.75h0l-42.4-.06a.88.88,0,0,1,0-1.75h0L56,30a.88.88,0,0,1,0,1.75Z"/><path class="cls-1" d="M.88,31.79A.88.88,0,1,1,.87,30l9.85-.11h0a.88.88,0,0,1,0,1.75l-9.86.11Z"/><path class="cls-1" d="M19.06,51.52l-.24,0a.89.89,0,0,1-.6-1.09l3.37-11.61a.88.88,0,0,1,1.09-.6.87.87,0,0,1,.59,1.08L19.9,50.89A.88.88,0,0,1,19.06,51.52Z"/><path class="cls-1" d="M41.83,51.75H14.94a.88.88,0,1,1,0-1.75H41.83a.88.88,0,0,1,0,1.75Z"/><path class="cls-1" d="M38.13,51.55a.86.86,0,0,1-.83-.62L33.69,39.18a.87.87,0,0,1,.58-1.1.87.87,0,0,1,1.09.58L39,50.42a.87.87,0,0,1-.58,1.09A1.09,1.09,0,0,1,38.13,51.55Z"/><circle class="cls-1" cx="27.28" cy="34.72" r="1.66"/></g></g></svg>