<svg id="Computer" xmlns="http://www.w3.org/2000/svg" viewBox="0 0 100 100"><defs><style>.cls-1{fill:#fff;}</style></defs><title>Artboard 1</title><path class="cls-1" d="M85.1,15H14.91a3.36,3.36,0,0,0-3.36,3.35V56.83h0v8.65a3.36,3.36,0,0,0,3.36,3.35H40.36l-4,13.79H31.75a1.19,1.19,0,0,0,0,2.37H68.13a1.19,1.19,0,0,0,0-2.37h-4L59.85,68.84H85.1a3.35,3.35,0,0,0,3.35-3.35V18.35A3.35,3.35,0,0,0,85.1,15ZM61.61,82.63H38.82l4-13.79H57.38ZM85.1,66.47H58.39a.4.4,0,0,1-.11,0H14.91a1,1,0,0,1-1-1V58l12.15-.13a1.19,1.19,0,0,0,0-2.37h0l-12.13.13V18.35a1,1,0,0,1,1-1H85.1a1,1,0,0,1,1,1V55.58L29.92,55.5h0a1.18,1.18,0,0,0,0,2.36L86.08,58v7.54A1,1,0,0,1,85.1,66.47Z"/><path class="cls-1" d="M48.44,59.71A2.25,2.25,0,1,0,50.69,62,2.24,2.24,0,0,0,48.44,59.71Z"/></svg>