<?xml version="1.0" encoding="utf-8"?>
<!-- Generator: Adobe Illustrator 24.0.3, SVG Export Plug-In . SVG Version: 6.00 Build 0)  -->
<svg version="1.1" id="Hospital_bed_capacity" xmlns="http://www.w3.org/2000/svg" xmlns:xlink="http://www.w3.org/1999/xlink"
	 x="0px" y="0px" viewBox="0 0 100 100" style="enable-background:new 0 0 100 100;" xml:space="preserve">
<style type="text/css">
	.st0{fill:#006064;}
</style>
<title>Artboard 1</title>
<path class="st0" d="M82.7,75.8v-7.1h1.2c0.6,0,1.2-0.5,1.2-1.1c0,0,0,0,0,0v-14c0-0.6-0.5-1.2-1.1-1.2c-3.2,0-5.9,2.6-5.9,5.8
	c0,0,0,0,0,0v3.5H51.1c-0.6,0-1.2,0.5-1.2,1.2c0,0.6,0.5,1.2,1.2,1.2H78v2.3H22V64h24.5c0.6,0,1.2-0.5,1.2-1.2
	c0-0.6-0.5-1.2-1.2-1.2l0,0H22V46.5c0-2.8-2-5.2-4.7-5.7V21.3l4-4h27.5v8.2h-2.3c-0.6,0-1.2,0.5-1.2,1.2v8.2c0,2.1,1.4,4,3.5,4.5v6
	c0,0.6,0.5,1.2,1.2,1.2c0.6,0,1.2-0.5,1.2-1.2v-6c2.1-0.5,3.5-2.4,3.5-4.5v-8.2c0-0.6-0.5-1.2-1.2-1.2h-2.3v-9.3
	c0-0.6-0.5-1.2-1.2-1.2H20.8c-0.3,0-0.6,0.1-0.8,0.3L15.3,20c-0.2,0.2-0.3,0.5-0.3,0.8v46.7c0,0.6,0.5,1.2,1.2,1.2c0,0,0,0,0,0h1.2
	v7.2c-2.5,0.6-4,3.2-3.4,5.7c0.6,2.5,3.2,4,5.7,3.4s4-3.2,3.4-5.7c-0.4-1.6-1.7-2.9-3.4-3.4v-2.5h60.7v2.5c-2.5,0.6-4,3.2-3.4,5.7
	c0.6,2.5,3.2,4,5.7,3.4c0.3-0.1,0.6-0.2,0.9-0.3c1.4-0.7,2.4-2,2.6-3.6C86.4,78.6,84.9,76.4,82.7,75.8z M52.3,34.8
	c0,1.3-1,2.3-2.3,2.3c-0.2,0-0.4,0-0.6-0.1c-1.1-0.3-1.8-1.3-1.8-2.4v-2.2h4.7V34.8z M52.3,27.8v2.3h-4.7v-2.3L52.3,27.8z
	 M80.3,58.1c0-1.5,0.9-2.8,2.3-3.3v11.5h-2.3V58.1z M20.8,79.8c0.3,1.2-0.4,2.5-1.7,2.8c-0.4,0.1-0.8,0.1-1.2,0
	c-0.8-0.2-1.5-0.8-1.7-1.7c-0.3-1.2,0.4-2.5,1.7-2.8c0.4-0.1,0.8-0.1,1.2,0C19.9,78.3,20.6,78.9,20.8,79.8z M17.3,66.3V43.2
	c1.4,0.5,2.3,1.8,2.3,3.3v19.8H17.3z M19.7,71v-2.3h60.7V71H19.7z M83.8,80.9c-0.2,0.8-0.8,1.5-1.7,1.7c-1.2,0.3-2.5-0.4-2.8-1.7
	c-0.1-0.4-0.1-0.8,0-1.2c0.2-0.8,0.8-1.5,1.7-1.7c1.2-0.3,2.5,0.4,2.8,1.7C83.9,80.1,83.9,80.5,83.8,80.9z"/>
</svg>
