<svg id="Hospital_bed_capacity" xmlns="http://www.w3.org/2000/svg" viewBox="0 0 100 100"><defs><style>.cls-1{fill:#fff;}</style></defs><title>Artboard 1</title><path class="cls-1" d="M82.67,75.81V68.66h1.16A1.16,1.16,0,0,0,85,67.5v-14a1.15,1.15,0,0,0-1.12-1.17A5.84,5.84,0,0,0,78,58.16v3.5H51.1a1.17,1.17,0,0,0,0,2.34H78v2.33H22V64H46.47a1.17,1.17,0,0,0,0-2.34H22V46.5a5.84,5.84,0,0,0-4.67-5.72V21.31l4-4H48.83V25.5H46.5a1.17,1.17,0,0,0-1.17,1.16v8.17a4.69,4.69,0,0,0,3.5,4.52v6a1.17,1.17,0,0,0,2.34,0v-6a4.7,4.7,0,0,0,3.5-4.52V26.66A1.17,1.17,0,0,0,53.5,25.5H51.17V16.16A1.17,1.17,0,0,0,50,15H20.83a1.15,1.15,0,0,0-.82.34L15.34,20a1.13,1.13,0,0,0-.34.82V67.5a1.16,1.16,0,0,0,1.17,1.16h1.16v7.15a4.67,4.67,0,1,0,2.34,0V73.33H80.33v2.48a4.67,4.67,0,1,0,3.19,8.73,4.6,4.6,0,0,0,2.61-3.61A4.68,4.68,0,0,0,82.67,75.81Zm-30.34-41a2.33,2.33,0,0,1-2.91,2.26,2.39,2.39,0,0,1-1.75-2.37V32.5h4.66Zm0-7v2.33H47.67V27.83Zm28,30.33a3.51,3.51,0,0,1,2.34-3.3V66.33H80.33ZM20.76,79.75a2.33,2.33,0,0,1-2.84,2.84,2.28,2.28,0,0,1-1.68-1.68,2.33,2.33,0,0,1,2.84-2.84A2.28,2.28,0,0,1,20.76,79.75ZM17.33,66.33V43.2a3.51,3.51,0,0,1,2.34,3.3V66.33ZM19.67,71V68.66H80.33V71Zm64.09,9.91a2.28,2.28,0,0,1-1.68,1.68,2.33,2.33,0,0,1-2.84-2.84,2.28,2.28,0,0,1,1.68-1.68A2.33,2.33,0,0,1,83.76,80.91Z"/></svg>