<svg xmlns="http://www.w3.org/2000/svg" viewBox="0 0 64.33 50"><defs><style>.cls-1{fill:#fff;}</style></defs><title>Asset 9</title><g id="Layer_2" data-name="Layer 2"><g id="Layer_1-2" data-name="Layer 1"><path class="cls-1" d="M30.64,36.07h3.94a.95.95,0,0,0,0-1.89H30.64a.95.95,0,1,0,0,1.89Z"/><path class="cls-1" d="M56.75,13.16a4,4,0,1,0-4-4A4,4,0,0,0,56.75,13.16Zm0-6.18A2.15,2.15,0,1,1,54.6,9.13,2.15,2.15,0,0,1,56.75,7Z"/><path class="cls-1" d="M50.28,6.57A3.29,3.29,0,1,0,47,3.29,3.29,3.29,0,0,0,50.28,6.57Zm0-4.69a1.41,1.41,0,1,1-1.4,1.41A1.4,1.4,0,0,1,50.28,1.88Z"/><path class="cls-1" d="M64.33,31.64a4.43,4.43,0,0,0-4.43-4.42h0A9.71,9.71,0,0,0,59.83,26a.94.94,0,1,0-1.87.21,8.4,8.4,0,0,1-4.18,8.28,4.37,4.37,0,0,0,1-2.86,4.42,4.42,0,0,0-4.42-4.42h-.54a4.38,4.38,0,0,0,.8-2.54,4.43,4.43,0,0,0-4.42-4.43H37.09v0a5.79,5.79,0,0,1,8.51-4.85,1.75,1.75,0,0,0,2-.22,3.57,3.57,0,0,1,2.68-.93,3.62,3.62,0,0,1,3.3,4.23,1.77,1.77,0,0,0,.74,1.77,8.41,8.41,0,0,1,2.25,2.24.94.94,0,0,0,1.56-1.06,10.58,10.58,0,0,0-2.68-2.7,5.5,5.5,0,0,0-9-5,7.77,7.77,0,0,0-4.68-.79,4.44,4.44,0,0,0-5.34-.7l-3.3,1.9a4.42,4.42,0,0,0-6.19-1.9L13.66,19.81a.95.95,0,1,0,.94,1.64L27.84,13.8a2.54,2.54,0,1,1,2.54,4.4l-3.77,2.18a.94.94,0,0,0,.47,1.75H46.25a2.55,2.55,0,0,1,0,5.09H30.64a.94.94,0,1,0,0,1.88H50.41a2.54,2.54,0,1,1,0,5.08H39a.95.95,0,1,0,0,1.89h7.27a2.54,2.54,0,0,1,0,5.08H30.64a.94.94,0,1,0,0,1.88h11a2.55,2.55,0,0,1,0,5.09H16.88a12.88,12.88,0,0,1-8-2.76A9.29,9.29,0,0,0,3.2,43.44H1.88V26.81H3.2a9.41,9.41,0,0,0,5.72-1.95,12.48,12.48,0,0,1,1.81-1.18.94.94,0,0,0,.38-1.28A.93.93,0,0,0,9.84,22a14.14,14.14,0,0,0-2.07,1.35A7.53,7.53,0,0,1,3.2,24.92H.94a.94.94,0,0,0-.94.94V44.39a.94.94,0,0,0,.94.94H3.2a7.35,7.35,0,0,1,4.52,1.52A14.74,14.74,0,0,0,16.88,50H51.09a4.43,4.43,0,0,0,4.42-4.43,4.38,4.38,0,0,0-.8-2.54h1a4.43,4.43,0,0,0,4.43-4.42,4.37,4.37,0,0,0-.81-2.54h.54A4.44,4.44,0,0,0,64.33,31.64ZM33.54,16l3.79-2.19a2.55,2.55,0,0,1,2.1-.2,7.66,7.66,0,0,0-4.22,6.53v.12H30.6A4.79,4.79,0,0,0,33.54,16ZM51.09,48.12H45.22a4.44,4.44,0,0,0,0-5.09h5.87a2.55,2.55,0,0,1,0,5.09Zm4.65-7H49.87a4.43,4.43,0,0,0,.65-3.71,10.16,10.16,0,0,0,4.31-1.37h.91a2.54,2.54,0,1,1,0,5.08Zm1.43-7a10.15,10.15,0,0,0,2.55-5.08h.18a2.54,2.54,0,1,1,0,5.08Z"/></g></g></svg>