<svg id="Infections" xmlns="http://www.w3.org/2000/svg" viewBox="0 0 100 100"><defs><style>.cls-1{fill:#fff;}</style></defs><title>Artboard 1</title><path class="cls-1" d="M85.56,47a7,7,0,0,0-2.46-4.85,6.34,6.34,0,0,0-4.75-1.47,6.79,6.79,0,0,0-5.43,4l-2.14.19-2.1-.59a.55.55,0,0,1-.36-.35,19.68,19.68,0,0,0-2.59-5.11l.74-2,2.35-2.54a4.83,4.83,0,0,0,3.32-8.16,4.77,4.77,0,0,0-3.53-1.49,4.84,4.84,0,0,0-3.51,1.55,4.78,4.78,0,0,0-1.27,3.48L61.47,32.2l-2,.92a19.77,19.77,0,0,0-9.69-2.7l-1.29-2.06-.45-2.26a6.13,6.13,0,0,0,2.17-6,6.76,6.76,0,0,0-12.12-2.12,6,6,0,0,0-.89,4.63,6.37,6.37,0,0,0,4.12,4.64l.5,2.5-.4,2.43a19.66,19.66,0,0,0-5,3.21L35,35.09,33.3,33.83a4.83,4.83,0,1,0-7.65,4.75,4.85,4.85,0,0,0,3.82.89l1.4,1.05.63,1.29a.19.19,0,0,1,0,.18,19.55,19.55,0,0,0-1.8,8.25c0,.54,0,1.08.06,1.61a.21.21,0,0,1-.08.2l-2.37,1.69-2.69.84a6.35,6.35,0,0,0-5.86-1l-.12.05h0a1.07,1.07,0,1,0,.72,2l.05,0,.05,0a4.21,4.21,0,0,1,4.21,1,1.05,1.05,0,0,0,.73.29,1.13,1.13,0,0,0,.32-.05l3.43-1.08a1.05,1.05,0,0,0,.3-.15l2.5-1.78a2.34,2.34,0,0,0,1-2.11q-.06-.72-.06-1.44a17.61,17.61,0,0,1,1.61-7.36,2.32,2.32,0,0,0,0-2l-.74-1.51a.94.94,0,0,0-.32-.39l-2-1.52a1.06,1.06,0,0,0-1-.16,2.69,2.69,0,1,1,1.86-2.79,1.09,1.09,0,0,0,.42.77L33.89,37a1.08,1.08,0,0,0,.45.2l2.25.4a1,1,0,0,0,.91-.27,17.63,17.63,0,0,1,5.31-3.4,1.06,1.06,0,0,0,.65-.82l.53-3.2a1,1,0,0,0,0-.38l-.66-3.31a1.07,1.07,0,0,0-.78-.82,4.3,4.3,0,0,1-3.22-3.22,3.92,3.92,0,0,1,.58-3,4.63,4.63,0,0,1,8.25,1.38,4.05,4.05,0,0,1-1.85,4.25,1.08,1.08,0,0,0-.46,1.11L46.47,29a1,1,0,0,0,.14.35l1.54,2.46a1.6,1.6,0,0,0,1.37.76h0a17.63,17.63,0,0,1,9.11,2.54,1.59,1.59,0,0,0,1.51.08l2.41-1.12a1.16,1.16,0,0,0,.34-.24l2.82-3.05a1.08,1.08,0,0,0,.27-.89,2.66,2.66,0,0,1,.68-2.24,2.7,2.7,0,0,1,2-.87,2.68,2.68,0,0,1,2,.84,2.71,2.71,0,0,1,.08,3.62,2.68,2.68,0,0,1-2.24.92,1,1,0,0,0-.86.34l-2.82,3.05a1.15,1.15,0,0,0-.22.35l-.91,2.47a1.61,1.61,0,0,0,.21,1.51,17.65,17.65,0,0,1,2.46,4.76,2.65,2.65,0,0,0,1.8,1.72l2.3.65a1.2,1.2,0,0,0,.38,0l3-.26a1.07,1.07,0,0,0,.91-.71,4.73,4.73,0,0,1,3.9-3.22,4.26,4.26,0,0,1,3.16,1,4.87,4.87,0,0,1,1.7,3.38A5.12,5.12,0,0,1,83,49.79a1.07,1.07,0,1,0,1.94.9A7.4,7.4,0,0,0,85.56,47Z"/><path class="cls-1" d="M80.18,52.32a4.2,4.2,0,0,1-.92.2,4.37,4.37,0,0,1-4.4-2.61,1.07,1.07,0,0,0-1.06-.61l-2.8.25a1,1,0,0,0-.37.1l-2.11,1a2.66,2.66,0,0,0-1.48,2,17.35,17.35,0,0,1-1,3.87,2.63,2.63,0,0,0,.16,2.26L67,60.18a1.17,1.17,0,0,0,.33.37l2.1,1.4a1.08,1.08,0,0,0,1,.11,2.71,2.71,0,0,1,2.47.28A2.65,2.65,0,0,1,74,64.14a2.62,2.62,0,0,1-.52,2.07,2.69,2.69,0,0,1-4.8-1.27,1,1,0,0,0-.46-.73l-2.32-1.56a1.12,1.12,0,0,0-.46-.17L64,62.3a2.72,2.72,0,0,0-2.23.75,17.66,17.66,0,0,1-3.9,2.81,2.74,2.74,0,0,0-1.43,2.24l-.19,3a.93.93,0,0,0,0,.33L57.15,75a1,1,0,0,0,.75.77,3.61,3.61,0,1,1-3.49.9,1.08,1.08,0,0,0,.29-1L53.77,72a1.17,1.17,0,0,0-.12-.31l-1.43-2.29a3.15,3.15,0,0,0-2.69-1.48h0a17.88,17.88,0,0,1-3.43-.33,3.17,3.17,0,0,0-2.91.91l-1.88,2a1,1,0,0,0-.18.27L39,75.14a1,1,0,0,0,0,.93,2.71,2.71,0,0,1,0,2.36,2.68,2.68,0,0,1-1.62,1.4,2.65,2.65,0,0,1-2.13-.23,2.72,2.72,0,0,1-1.17-3.35A2.67,2.67,0,0,1,36,74.64a1.05,1.05,0,0,0,.72-.58l2.11-4.39a1.19,1.19,0,0,0,.1-.32l.41-2.95A2.63,2.63,0,0,0,38.4,64a17.9,17.9,0,0,1-4-4.61,2.64,2.64,0,0,0-2.23-1.26l-2.94,0a1.14,1.14,0,0,0-.33,0l-3.23,1a1.07,1.07,0,0,0-.74.9,4.19,4.19,0,0,1-8.15.83,4.15,4.15,0,0,1,0-2.65,1.07,1.07,0,0,0-2-.69,6.26,6.26,0,0,0,0,4A6.33,6.33,0,0,0,26.91,61l2.45-.77,2.77,0a.51.51,0,0,1,.43.23,19.8,19.8,0,0,0,4.5,5.16.51.51,0,0,1,.17.46l-.39,2.78L35,72.71a4.89,4.89,0,0,0-2.87,2.73,4.83,4.83,0,1,0,9,.19L43,71.85,44.74,70a1,1,0,0,1,.93-.29,19.92,19.92,0,0,0,3.87.38h0a1,1,0,0,1,.87.47l1.33,2.15.75,2.94a5.69,5.69,0,0,0-1,5.42A5.77,5.77,0,0,0,57,85a5.73,5.73,0,0,0,5.55-7.14,5.78,5.78,0,0,0-3.42-3.92L58.34,71l.18-2.79a.58.58,0,0,1,.31-.49,20.13,20.13,0,0,0,4.36-3.16.63.63,0,0,1,.5-.17l1.21.15,1.73,1.16A4.83,4.83,0,1,0,74,60.56a4.86,4.86,0,0,0-3.87-.67l-1.45-1-.63-1.13a.56.56,0,0,1,0-.44A19.75,19.75,0,0,0,69.16,53a.52.52,0,0,1,.29-.41l1.93-.93,1.9-.17a6.45,6.45,0,0,0,6.2,3.16,6.59,6.59,0,0,0,1.37-.3,1.07,1.07,0,0,0-.67-2Z"/><path class="cls-1" d="M53,35.68a15.26,15.26,0,0,0-3.44-.4,15,15,0,1,0,8,2.32,1.07,1.07,0,0,0-1.14,1.8,12.82,12.82,0,1,1-6.85-2,13.21,13.21,0,0,1,2.95.34A1.07,1.07,0,0,0,53,35.68Z"/><path class="cls-1" d="M26.15,26.06a5,5,0,1,0-5-5A5,5,0,0,0,26.15,26.06Zm0-7.91A2.89,2.89,0,1,1,23.27,21,2.88,2.88,0,0,1,26.15,18.15Z"/><path class="cls-1" d="M25.07,69.49a3.69,3.69,0,1,0,3.68,3.69A3.69,3.69,0,0,0,25.07,69.49Zm0,5.23a1.55,1.55,0,1,1,1.55-1.54A1.54,1.54,0,0,1,25.07,74.72Z"/><path class="cls-1" d="M73,72.55A4.92,4.92,0,1,0,78,77.47,4.92,4.92,0,0,0,73,72.55Zm0,7.7a2.78,2.78,0,1,1,2.78-2.78A2.79,2.79,0,0,1,73,80.25Z"/><path class="cls-1" d="M49.92,46.41a4.66,4.66,0,1,0-4.66,4.66A4.66,4.66,0,0,0,49.92,46.41Zm-4.66,2.52a2.52,2.52,0,1,1,2.52-2.52A2.52,2.52,0,0,1,45.26,48.93Z"/><path class="cls-1" d="M48.14,61.07a3.51,3.51,0,1,0-3.51-3.51A3.51,3.51,0,0,0,48.14,61.07Zm0-4.89a1.38,1.38,0,1,1-1.37,1.38A1.38,1.38,0,0,1,48.14,56.18Z"/><path class="cls-1" d="M52.69,50.24a3.12,3.12,0,1,0,3.12-3.12A3.12,3.12,0,0,0,52.69,50.24Zm3.12-1a1,1,0,1,1-1,1A1,1,0,0,1,55.81,49.26Z"/></svg>