<svg xmlns="http://www.w3.org/2000/svg" viewBox="0 0 50.83 50"><defs><style>.cls-1{fill:#fff;}</style></defs><title>Asset 8</title><g id="Layer_2" data-name="Layer 2"><g id="Layer_1-2" data-name="Layer 1"><path class="cls-1" d="M50.81,22.88a4.93,4.93,0,0,0-1.75-3.46,4.54,4.54,0,0,0-3.39-1.06,4.88,4.88,0,0,0-3.89,2.85l-1.52.13-1.5-.42a.38.38,0,0,1-.26-.25A13.94,13.94,0,0,0,36.65,17l.53-1.43,1.68-1.82a3.4,3.4,0,0,0,2.48-1.19A3.46,3.46,0,0,0,41.23,8a3.4,3.4,0,0,0-2.52-1.07,3.43,3.43,0,0,0-3.42,3.59l-1.68,1.82-1.41.65A14.13,14.13,0,0,0,25.28,11l-.92-1.47L24,7.93a4.36,4.36,0,0,0,1.55-4.32A4.83,4.83,0,0,0,16.93,2.1a4.32,4.32,0,0,0-.64,3.31,4.57,4.57,0,0,0,2.94,3.31l.36,1.78-.28,1.74a14.11,14.11,0,0,0-3.58,2.3l-1.05-.19-1.19-.9a3.46,3.46,0,0,0-6-1.61,3.46,3.46,0,0,0,3.27,5.64l1,.75.45.92a.15.15,0,0,1,0,.13,14,14,0,0,0-1.29,5.89c0,.38,0,.77.05,1.15a.19.19,0,0,1-.06.15l-1.69,1.2-1.93.6a4.5,4.5,0,0,0-4.18-.71l-.09,0H3A.76.76,0,1,0,3.51,29h.07a3,3,0,0,1,3,.67.77.77,0,0,0,.53.21.91.91,0,0,0,.23,0l2.44-.77A.91.91,0,0,0,10,29l1.78-1.27a1.69,1.69,0,0,0,.7-1.51c0-.34,0-.69,0-1a12.55,12.55,0,0,1,1.15-5.26,1.67,1.67,0,0,0,0-1.43L13,17.4a.76.76,0,0,0-.22-.28L11.38,16a.78.78,0,0,0-.69-.12,2,2,0,0,1-1.75-.29,1.93,1.93,0,0,1-.75-1.33,1.9,1.9,0,0,1,.45-1.46,2,2,0,0,1,2.53-.35A1.93,1.93,0,0,1,12,13.93a.78.78,0,0,0,.3.55l1.6,1.2a.71.71,0,0,0,.32.14l1.6.29a.77.77,0,0,0,.66-.2,12.72,12.72,0,0,1,3.79-2.43.74.74,0,0,0,.46-.58l.38-2.29a.82.82,0,0,0,0-.27L20.64,8a.75.75,0,0,0-.56-.59,3.07,3.07,0,0,1-2.3-2.3A2.8,2.8,0,0,1,18.2,3a3.18,3.18,0,0,1,2.1-1.36,3.21,3.21,0,0,1,3.79,2.34,2.89,2.89,0,0,1-1.32,3,.77.77,0,0,0-.33.79L22.89,10a.82.82,0,0,0,.1.26L24.09,12a1.16,1.16,0,0,0,1,.54h0a12.53,12.53,0,0,1,6.51,1.81,1.15,1.15,0,0,0,1.08.06l1.73-.8a.69.69,0,0,0,.24-.18l2-2.18a.77.77,0,0,0,.2-.63A1.91,1.91,0,0,1,37.32,9a1.92,1.92,0,0,1,2.87,2.56,1.89,1.89,0,0,1-1.6.66.77.77,0,0,0-.62.24l-2,2.18a1,1,0,0,0-.16.25l-.65,1.77a1.11,1.11,0,0,0,.15,1.07,12.69,12.69,0,0,1,1.76,3.41,1.9,1.9,0,0,0,1.28,1.23l1.64.46a.82.82,0,0,0,.27,0l2.13-.18a.78.78,0,0,0,.66-.51,3.37,3.37,0,0,1,2.78-2.3,3,3,0,0,1,2.26.71A3.4,3.4,0,0,1,49.29,23,3.77,3.77,0,0,1,49,24.85a.76.76,0,1,0,1.38.64,5.2,5.2,0,0,0,.47-2.61Z"/><path class="cls-1" d="M47,26.66a2.9,2.9,0,0,1-.65.14,3.13,3.13,0,0,1-3.15-1.86.77.77,0,0,0-.76-.44l-2,.18a.59.59,0,0,0-.26.07l-1.51.73a1.89,1.89,0,0,0-1,1.45,12.55,12.55,0,0,1-.72,2.77A1.93,1.93,0,0,0,37,31.31l.54,1a.67.67,0,0,0,.24.26l1.49,1a.82.82,0,0,0,.7.08,1.92,1.92,0,0,1,2.22,3,2,2,0,0,1-2.51.48,1.91,1.91,0,0,1-.92-1.39.76.76,0,0,0-.33-.52L36.75,34a.79.79,0,0,0-.33-.13l-1-.12a1.93,1.93,0,0,0-1.6.53,12.79,12.79,0,0,1-2.78,2,2,2,0,0,0-1,1.6L29.84,40a1,1,0,0,0,0,.24l.65,2.59a.76.76,0,0,0,.53.55,2.6,2.6,0,0,1,1.81,1.85,2.55,2.55,0,0,1-.31,2,2.5,2.5,0,0,1-1.63,1.16,2.57,2.57,0,0,1-2.36-4.35.74.74,0,0,0,.21-.73l-.66-2.61A.85.85,0,0,0,28,40.5l-1-1.63a2.25,2.25,0,0,0-1.92-1.06h0a12.56,12.56,0,0,1-2.45-.24,2.23,2.23,0,0,0-2.07.65L19.2,39.64a.69.69,0,0,0-.13.2L17.56,43a.75.75,0,0,0,0,.67,1.92,1.92,0,0,1-1.15,2.69,1.92,1.92,0,0,1-1.52-.16,2,2,0,0,1-.84-2.4,1.89,1.89,0,0,1,1.35-1.15.77.77,0,0,0,.52-.41l1.51-3.14a.88.88,0,0,0,.07-.23l.29-2.1A1.89,1.89,0,0,0,17.13,35a12.72,12.72,0,0,1-2.87-3.29,1.89,1.89,0,0,0-1.59-.9l-2.11,0a.59.59,0,0,0-.23,0L8,31.54a.77.77,0,0,0-.53.64,3,3,0,0,1-5.82.6,3,3,0,0,1,0-1.89.76.76,0,0,0-1.44-.5,4.51,4.51,0,0,0,4.28,6,4.53,4.53,0,0,0,4.39-3.51l1.75-.55,2,0a.34.34,0,0,1,.3.16,14.39,14.39,0,0,0,3.22,3.69.35.35,0,0,1,.12.32l-.28,2L14.7,41.22a3.45,3.45,0,0,0-.55,6.26,3.45,3.45,0,0,0,4.94-4.17l1.3-2.71,1.26-1.33a.72.72,0,0,1,.67-.2,14.11,14.11,0,0,0,2.76.27h0a.73.73,0,0,1,.63.33l.95,1.54.53,2.1a4.09,4.09,0,0,0-.72,3.87A4.13,4.13,0,0,0,30.38,50a3.69,3.69,0,0,0,.87-.1,4.1,4.1,0,0,0,3.09-5,4.13,4.13,0,0,0-2.44-2.8L31.37,40l.13-2a.41.41,0,0,1,.22-.35,14.69,14.69,0,0,0,3.12-2.26.47.47,0,0,1,.35-.12l.86.11,1.24.83A3.45,3.45,0,0,0,44,34.85a3.45,3.45,0,0,0-4.24-2.78l-1-.7-.45-.8a.36.36,0,0,1,0-.32,14.36,14.36,0,0,0,.8-3.11.37.37,0,0,1,.2-.29l1.39-.67L42,26.06a4.6,4.6,0,0,0,4.43,2.26,4.18,4.18,0,0,0,1-.21.76.76,0,0,0,.49-1,.78.78,0,0,0-1-.49Z"/><path class="cls-1" d="M27.53,14.77a10.71,10.71,0,1,0,3.25,1.37A.76.76,0,0,0,30,17.43,9.17,9.17,0,1,1,25.07,16a9.35,9.35,0,0,1,2.11.24.77.77,0,0,0,.35-1.49Z"/><path class="cls-1" d="M8.38,7.9A3.59,3.59,0,1,0,4.79,4.31,3.59,3.59,0,0,0,8.38,7.9Zm0-5.65A2.06,2.06,0,1,1,6.32,4.31,2.06,2.06,0,0,1,8.38,2.25Z"/><path class="cls-1" d="M7.61,38.92a2.63,2.63,0,1,0,2.63,2.63A2.63,2.63,0,0,0,7.61,38.92Zm0,3.74a1.11,1.11,0,1,1,1.1-1.11A1.11,1.11,0,0,1,7.61,42.66Z"/><path class="cls-1" d="M41.87,41.11a3.51,3.51,0,1,0,3.52,3.51A3.51,3.51,0,0,0,41.87,41.11Zm0,5.5a2,2,0,1,1,2-2A2,2,0,0,1,41.87,46.61Z"/><path class="cls-1" d="M25.35,22.44A3.33,3.33,0,1,0,22,25.76a3.33,3.33,0,0,0,3.32-3.32ZM22,24.24a1.8,1.8,0,1,1,1.8-1.8A1.81,1.81,0,0,1,22,24.24Z"/><path class="cls-1" d="M24.09,32.9a2.51,2.51,0,1,0-2.51-2.5A2.5,2.5,0,0,0,24.09,32.9Zm0-3.48a1,1,0,1,1-1,1A1,1,0,0,1,24.09,29.42Z"/><path class="cls-1" d="M27.34,25.17A2.23,2.23,0,1,0,29.56,23a2.23,2.23,0,0,0-2.22,2.22Zm2.22-.7a.71.71,0,1,1-.7.7A.71.71,0,0,1,29.56,24.47Z"/></g></g></svg>