<?xml version="1.0" encoding="utf-8"?>
<!-- Generator: Adobe Illustrator 24.0.3, SVG Export Plug-In . SVG Version: 6.00 Build 0)  -->
<svg version="1.1" id="Infections" xmlns="http://www.w3.org/2000/svg" xmlns:xlink="http://www.w3.org/1999/xlink" x="0px" y="0px"
	 viewBox="0 0 100 100" style="enable-background:new 0 0 100 100;" xml:space="preserve">
<style type="text/css">
	.st0{fill:#710627;}
</style>
<title>Artboard 1</title>
<path class="st0" d="M85.6,47c-0.1-1.9-1-3.6-2.5-4.8c-1.3-1.1-3-1.6-4.8-1.5c-2.4,0.3-4.5,1.8-5.4,4l-2.1,0.2l-2.1-0.6
	c-0.2-0.1-0.3-0.2-0.4-0.3c-0.6-1.8-1.5-3.5-2.6-5.1l0.7-2l2.3-2.5c2.7-0.1,4.7-2.3,4.7-5c0-1.2-0.5-2.3-1.3-3.2
	c-0.9-1-2.2-1.5-3.5-1.5c-1.3,0-2.6,0.6-3.5,1.5c-0.9,0.9-1.3,2.2-1.3,3.5l-2.4,2.5l-2,0.9c-2.9-1.7-6.3-2.7-9.7-2.7l-1.3-2.1
	L48,26.1c1.8-1.4,2.6-3.8,2.2-6c-0.9-3.6-4.6-5.8-8.2-4.8c-1.6,0.4-3,1.4-3.9,2.7c-0.9,1.4-1.2,3-0.9,4.6c0.5,2.2,2,3.9,4.1,4.6
	l0.5,2.5l-0.4,2.4c-1.8,0.8-3.5,1.9-5,3.2L35,35.1l-1.7-1.3c-0.5-2.6-3-4.3-5.6-3.9s-4.3,3-3.9,5.6c0.2,1.2,0.9,2.2,1.8,3
	c1.1,0.8,2.5,1.1,3.8,0.9l1.4,1l0.6,1.3c0,0.1,0,0.1,0,0.2c-1.2,2.6-1.8,5.4-1.8,8.2c0,0.5,0,1.1,0.1,1.6c0,0.1,0,0.2-0.1,0.2
	l-2.4,1.7l-2.7,0.8c-1.7-1.3-3.9-1.7-5.9-1l-0.1,0l0,0c-0.6,0.1-0.9,0.7-0.8,1.3s0.7,0.9,1.3,0.8c0.1,0,0.2,0,0.2-0.1h0h0
	c1.5-0.5,3.1-0.1,4.2,1c0.2,0.2,0.5,0.3,0.7,0.3c0.1,0,0.2,0,0.3,0l3.4-1.1c0.1,0,0.2-0.1,0.3-0.2l2.5-1.8c0.7-0.5,1.1-1.3,1-2.1
	c0-0.5-0.1-1-0.1-1.4c0-2.5,0.5-5.1,1.6-7.4c0.3-0.6,0.3-1.4,0-2l-0.7-1.5c-0.1-0.2-0.2-0.3-0.3-0.4l-2-1.5c-0.3-0.2-0.7-0.3-1-0.2
	c-1.4,0.5-2.9-0.3-3.4-1.7c-0.5-1.4,0.3-2.9,1.7-3.4c1.4-0.5,2.9,0.3,3.4,1.7c0.1,0.2,0.1,0.4,0.1,0.6c0,0.3,0.2,0.6,0.4,0.8
	l2.2,1.6c0.1,0.1,0.3,0.2,0.5,0.2l2.2,0.4c0.3,0.1,0.7,0,0.9-0.3c1.6-1.4,3.4-2.6,5.3-3.4c0.3-0.1,0.6-0.5,0.7-0.8l0.5-3.2
	c0-0.1,0-0.3,0-0.4l-0.7-3.3c-0.1-0.4-0.4-0.7-0.8-0.8c-1.6-0.4-2.8-1.6-3.2-3.2c-0.2-1,0-2.1,0.6-3c1.5-2.1,4.3-2.6,6.4-1.1
	c0.9,0.6,1.5,1.5,1.8,2.5c0.3,1.7-0.4,3.4-1.8,4.2c-0.4,0.2-0.5,0.7-0.5,1.1l0.6,3.1c0,0.1,0.1,0.2,0.1,0.4l1.5,2.5
	c0.3,0.5,0.8,0.8,1.4,0.8l0,0c3.2,0,6.4,0.9,9.1,2.5c0.5,0.3,1,0.3,1.5,0.1l2.4-1.1c0.1-0.1,0.2-0.1,0.3-0.2l2.8-3
	c0.2-0.2,0.3-0.6,0.3-0.9c-0.1-0.8,0.1-1.6,0.7-2.2c0.5-0.6,1.2-0.9,2-0.9c0.8,0,1.5,0.3,2,0.8c0.9,1,1,2.6,0.1,3.6
	c-0.6,0.6-1.4,1-2.2,0.9c-0.3,0-0.6,0.1-0.9,0.3l-2.8,3c-0.1,0.1-0.2,0.2-0.2,0.3l-0.9,2.5c-0.2,0.5-0.1,1.1,0.2,1.5
	c1.1,1.5,1.9,3.1,2.5,4.8c0.3,0.8,1,1.5,1.8,1.7l2.3,0.7c0.1,0,0.3,0,0.4,0l3-0.3c0.4,0,0.8-0.3,0.9-0.7c0.6-1.7,2.1-3,3.9-3.2
	c1.1-0.1,2.3,0.3,3.2,1c1,0.9,1.6,2.1,1.7,3.4c0.1,0.9-0.1,1.8-0.5,2.6c-0.3,0.5-0.1,1.2,0.5,1.4c0.5,0.3,1.2,0.1,1.4-0.5
	c0,0,0,0,0-0.1C85.5,49.5,85.7,48.3,85.6,47z"/>
<path class="st0" d="M80.2,52.3c-0.3,0.1-0.6,0.2-0.9,0.2c-1.9,0.2-3.6-0.9-4.4-2.6c-0.2-0.4-0.6-0.6-1.1-0.6L71,49.5
	c-0.1,0-0.3,0-0.4,0.1l-2.1,1c-0.8,0.4-1.3,1.1-1.5,2c-0.2,1.3-0.5,2.6-1,3.9c-0.3,0.7-0.2,1.6,0.2,2.3l0.8,1.4
	c0.1,0.1,0.2,0.3,0.3,0.4l2.1,1.4c0.3,0.2,0.7,0.2,1,0.1c0.8-0.3,1.7-0.2,2.5,0.3c0.6,0.4,1,1.1,1.1,1.8c0.1,0.7-0.1,1.5-0.5,2.1
	c-0.9,1.2-2.6,1.4-3.8,0.5c-0.6-0.4-0.9-1.1-1-1.8c0-0.3-0.2-0.6-0.5-0.7l-2.3-1.6c-0.1-0.1-0.3-0.1-0.5-0.2L64,62.3
	c-0.8-0.1-1.6,0.2-2.2,0.8c-1.2,1.1-2.5,2.1-3.9,2.8c-0.8,0.5-1.4,1.3-1.4,2.2l-0.2,3c0,0.1,0,0.2,0,0.3l0.9,3.6
	c0.1,0.4,0.4,0.7,0.8,0.8c1.9,0.5,3,2.5,2.5,4.4c-0.5,1.9-2.5,3-4.4,2.5c-1.9-0.5-3-2.5-2.5-4.4c0.2-0.6,0.5-1.2,1-1.6
	c0.3-0.3,0.4-0.6,0.3-1L53.8,72c0-0.1-0.1-0.2-0.1-0.3l-1.4-2.3c-0.6-0.9-1.6-1.5-2.7-1.5l0,0c-1.2,0-2.3-0.1-3.4-0.3
	c-1.1-0.2-2.2,0.1-2.9,0.9l-1.9,2c-0.1,0.1-0.1,0.2-0.2,0.3L39,75.1c-0.2,0.3-0.2,0.6,0,0.9c0.4,0.7,0.4,1.6,0,2.4
	c-0.3,0.7-0.9,1.2-1.6,1.4c-0.7,0.2-1.5,0.1-2.1-0.2c-1.2-0.7-1.7-2.1-1.2-3.3c0.3-0.8,1.1-1.4,1.9-1.6c0.3-0.1,0.6-0.3,0.7-0.6
	l2.1-4.4c0-0.1,0.1-0.2,0.1-0.3l0.4-2.9c0.1-0.9-0.2-1.8-0.9-2.4c-1.6-1.3-2.9-2.9-4-4.6c-0.5-0.8-1.3-1.3-2.2-1.3h-2.9
	c-0.1,0-0.2,0-0.3,0l-3.2,1c-0.4,0.1-0.7,0.5-0.7,0.9c-0.3,2.3-2.3,4-4.6,3.7c-1.6-0.2-3-1.3-3.5-2.9c-0.3-0.9-0.3-1.8,0-2.7
	c0.1-0.6-0.3-1.1-0.9-1.2c-0.5-0.1-0.9,0.1-1.1,0.6c-0.4,1.3-0.4,2.7,0,4c1.1,3.3,4.7,5.1,8,3.9c2-0.7,3.6-2.4,4.1-4.5l2.5-0.8h2.8
	c0.2,0,0.3,0.1,0.4,0.2c1.2,2,2.7,3.7,4.5,5.2c0.1,0.1,0.2,0.3,0.2,0.5l-0.4,2.8L35,72.7c-1.3,0.5-2.3,1.5-2.9,2.7
	c-1,2.5,0.2,5.3,2.6,6.3c2.5,1,5.3-0.2,6.3-2.6c0.5-1.1,0.5-2.4,0.1-3.5l1.9-3.8l1.7-1.8c0.2-0.3,0.6-0.4,0.9-0.3
	c1.3,0.3,2.6,0.4,3.9,0.4l0,0c0.4,0,0.7,0.2,0.9,0.5l1.3,2.2l0.8,2.9c-1.2,1.5-1.6,3.6-1,5.4c0.8,2.4,3,3.9,5.5,3.9
	c3.2,0,5.7-2.6,5.7-5.7c0-0.5-0.1-0.9-0.2-1.4c-0.5-1.8-1.7-3.2-3.4-3.9L58.3,71l0.2-2.8c0-0.2,0.1-0.4,0.3-0.5
	c1.6-0.9,3.1-1.9,4.4-3.2c0.1-0.1,0.3-0.2,0.5-0.2l1.2,0.2l1.7,1.2c0.6,2.6,3.2,4.2,5.8,3.6c2.6-0.6,4.2-3.2,3.6-5.8
	c-0.3-1.2-1-2.2-2-2.9c-1.1-0.8-2.5-1-3.9-0.7l-1.4-1l-0.6-1.1c-0.1-0.1-0.1-0.3,0-0.4c0.5-1.4,0.9-2.8,1.1-4.3
	c0-0.2,0.1-0.3,0.3-0.4l1.9-0.9l1.9-0.2c1.3,2.2,3.7,3.4,6.2,3.2c0.5-0.1,0.9-0.2,1.4-0.3c0.5-0.3,0.7-0.9,0.4-1.4
	C81.1,52.5,80.6,52.3,80.2,52.3L80.2,52.3z"/>
<path class="st0" d="M53,35.7c-1.1-0.3-2.3-0.4-3.4-0.4c-8.3,0-15,6.7-15,15s6.7,15,15,15c8.3,0,15-6.7,15-15c0-5.1-2.6-9.9-7-12.7
	c-0.5-0.3-1.2-0.1-1.4,0.5c-0.2,0.5-0.1,1,0.3,1.3c6,3.8,7.7,11.7,3.9,17.7S48.6,64.8,42.7,61s-7.7-11.7-3.9-17.7
	c2.4-3.7,6.5-6,10.8-5.9c1,0,2,0.1,3,0.3c0.6,0,1.1-0.4,1.1-1C53.7,36.3,53.4,35.9,53,35.7z"/>
<path class="st0" d="M26.1,26.1c2.8,0,5-2.2,5-5s-2.2-5-5-5s-5,2.2-5,5S23.4,26.1,26.1,26.1z M26.1,18.1c1.6,0,2.9,1.3,2.9,2.9
	c0,1.6-1.3,2.9-2.9,2.9c-1.6,0-2.9-1.3-2.9-2.9c0,0,0,0,0,0C23.3,19.4,24.6,18.1,26.1,18.1z"/>
<path class="st0" d="M25.1,69.5c-2,0-3.7,1.6-3.7,3.7c0,2,1.6,3.7,3.7,3.7s3.7-1.6,3.7-3.7c0,0,0,0,0,0
	C28.8,71.1,27.1,69.5,25.1,69.5z M25.1,74.7c-0.9,0-1.5-0.7-1.5-1.6s0.7-1.5,1.6-1.5s1.5,0.7,1.5,1.6c0,0,0,0,0,0
	C26.6,74,25.9,74.7,25.1,74.7C25.1,74.7,25.1,74.7,25.1,74.7z"/>
<path class="st0" d="M73,72.6c-2.7,0-4.9,2.3-4.8,5s2.3,4.9,5,4.8c2.7,0,4.8-2.2,4.8-4.9C78,74.8,75.8,72.5,73,72.6
	C73.1,72.5,73,72.5,73,72.6z M73,80.2c-1.5,0-2.8-1.2-2.8-2.8s1.2-2.8,2.8-2.8c1.5,0,2.8,1.2,2.8,2.8l0,0C75.8,79,74.5,80.2,73,80.2
	z"/>
<path class="st0" d="M49.9,46.4c0-2.6-2.1-4.7-4.7-4.7s-4.7,2.1-4.7,4.7s2.1,4.7,4.7,4.7l0,0C47.8,51.1,49.9,49,49.9,46.4z
	 M45.3,48.9c-1.4,0-2.5-1.1-2.5-2.5s1.1-2.5,2.5-2.5s2.5,1.1,2.5,2.5S46.7,48.9,45.3,48.9L45.3,48.9z"/>
<path class="st0" d="M48.1,61.1c1.9,0,3.5-1.6,3.5-3.5S50.1,54,48.1,54s-3.5,1.6-3.5,3.5v0C44.6,59.5,46.2,61.1,48.1,61.1z
	 M48.1,56.2c0.8,0,1.4,0.6,1.4,1.4c0,0.8-0.6,1.4-1.4,1.4c-0.8,0-1.4-0.6-1.4-1.4c0,0,0,0,0,0C46.8,56.8,47.4,56.2,48.1,56.2z"/>
<path class="st0" d="M52.7,50.2c0,1.7,1.4,3.1,3.1,3.1c1.7,0,3.1-1.4,3.1-3.1c0-1.7-1.4-3.1-3.1-3.1l0,0
	C54.1,47.1,52.7,48.5,52.7,50.2z M55.8,49.2c0.6,0,1,0.4,1,1s-0.4,1-1,1s-1-0.4-1-1C54.8,49.7,55.3,49.3,55.8,49.2L55.8,49.2z"/>
</svg>
