<svg id="Layer_3" data-name="Layer 3" xmlns="http://www.w3.org/2000/svg" viewBox="0 0 100 100"><defs><style>.cls-1{fill:#fff;}</style></defs><title>Artboard 1</title><path class="cls-1" d="M84.3,25.42l-2.93-2.93A1,1,0,0,0,79.92,24l2.93,2.92a.6.6,0,0,1,0,.83l-.92.92a.6.6,0,0,1-.83,0L71.45,19a.6.6,0,0,1,0-.83l.92-.91a.59.59,0,0,1,.83,0l3.32,3.33A1,1,0,0,0,78,19.1l-3.33-3.33a2.64,2.64,0,0,0-3.73,0l-.92.92a2.64,2.64,0,0,0,0,3.73l.59.58L63,28.56l-2.85-2.85a2.64,2.64,0,0,0-3.73,0l-.91.92a2.62,2.62,0,0,0,0,3.73l.39.4-28,28a4.61,4.61,0,0,0-.44,6l-1.18,3.43a2.56,2.56,0,0,0,.6,2.61l.38.37-12,12a1,1,0,0,0,1.45,1.45l12.05-12,.6.6a2.54,2.54,0,0,0,2.6.6l3.45-1.19a4.61,4.61,0,0,0,5.91-.51l28-28,.4.4a2.65,2.65,0,0,0,3.73,0l.92-.92a2.64,2.64,0,0,0,0-3.73L71.51,37l2.22-2.22a1,1,0,0,0-1.45-1.45l-2.22,2.22L64.48,30,72,22.46,77.61,28,75.67,30a1,1,0,0,0,1.45,1.45l1.95-1.94.58.58a2.64,2.64,0,0,0,3.73,0l.92-.92A2.64,2.64,0,0,0,84.3,25.42Zm-53,46.5a.5.5,0,0,1-.48-.11l-2.43-2.44a.45.45,0,0,1-.11-.48l.83-2.43,4.62,4.62Zm31-23.68-1.82-1.82a1,1,0,0,0-1.45,0,1,1,0,0,0,0,1.46l1.82,1.82L58.4,52.15l-1.82-1.82a1,1,0,0,0-1.45,0,1,1,0,0,0,0,1.45L57,53.6l-2.46,2.45-1.82-1.82a1,1,0,0,0-1.45,0,1,1,0,0,0,0,1.46L53,57.51,50.59,60l-1.82-1.82a1,1,0,0,0-1.45,1.45l1.82,1.82-2.46,2.45L44.86,62a1,1,0,0,0-1.45,1.45l1.82,1.82-2.45,2.46L41,66a1,1,0,0,0-1.45,1.45l1.82,1.82-1.49,1.49a2.56,2.56,0,0,1-3.61,0l-6.87-6.87a2.57,2.57,0,0,1,0-3.61L54.19,35.41,64.67,45.88Zm3.82-3.81L55.64,34l1.75-1.74L67.86,42.69Zm6.78-3.09a.59.59,0,0,1,0,.83l-.91.91a.59.59,0,0,1-.83,0L57,28.91a.59.59,0,0,1,0-.83l.92-.91a.57.57,0,0,1,.82,0Z"/></svg>