<svg xmlns="http://www.w3.org/2000/svg" viewBox="0 0 50.1 50"><defs><style>.cls-1{fill:#fff;}</style></defs><title>Asset 2</title><g id="Layer_2" data-name="Layer 2"><g id="Layer_1-2" data-name="Layer 1"><path class="cls-1" d="M.21,49.79a.75.75,0,0,0,1,0l8.6-8.61.43.43a1.79,1.79,0,0,0,1.86.43l2.47-.85a3.29,3.29,0,0,0,4.22-.36l20-20,.29.29a1.89,1.89,0,0,0,2.66,0l.66-.66a1.89,1.89,0,0,0,0-2.66l-2-2L42,14.16a.74.74,0,1,0-1-1l-1.58,1.59-4-4,5.4-5.39c1.38,1.37,3.09,3.09,4,4L43.38,10.7a.74.74,0,0,0,1,1l1.39-1.39.42.41a1.87,1.87,0,0,0,2.66,0l.66-.65a1.9,1.9,0,0,0,0-2.67L47.46,5.35a.75.75,0,0,0-1,0,.73.73,0,0,0,0,1l2.09,2.09a.42.42,0,0,1,0,.59l-.65.66a.42.42,0,0,1-.59,0l-6.9-6.9a.41.41,0,0,1,0-.58L41,1.59a.42.42,0,0,1,.59,0L44,4a.73.73,0,0,0,1-1L42.66.55A1.9,1.9,0,0,0,40,.55l-.65.66a1.87,1.87,0,0,0,0,2.66l.41.42-5.39,5.4-2-2a1.89,1.89,0,0,0-2.66,0L29,8.31A1.89,1.89,0,0,0,29,11l.29.29-20,20A3.3,3.3,0,0,0,9,35.57L8.12,38a1.79,1.79,0,0,0,.43,1.86l.27.27L.21,48.75A.75.75,0,0,0,.21,49.79ZM30,9.35l.66-.66a.42.42,0,0,1,.59,0L41.41,18.82a.41.41,0,0,1,0,.58l-.66.66a.41.41,0,0,1-.58,0L30,9.93A.41.41,0,0,1,30,9.35Zm.29,2.94,7.48,7.49L36.56,21l-7.48-7.48Zm-20,20L28,14.58l7.48,7.48-1.68,1.68-1.3-1.29a.74.74,0,0,0-1,0,.73.73,0,0,0,0,1l1.3,1.3-1.75,1.75-1.3-1.3a.75.75,0,0,0-1,0,.73.73,0,0,0,0,1l1.3,1.3-1.75,1.75L27,28a.74.74,0,0,0-1,1l1.3,1.3-1.75,1.75-1.3-1.3a.74.74,0,1,0-1,1l1.3,1.3L22.68,34.9l-1.3-1.3a.74.74,0,0,0-1,0,.75.75,0,0,0,0,1l1.3,1.3-1.75,1.75-1.3-1.3a.73.73,0,0,0-1,0,.75.75,0,0,0,0,1l1.3,1.3-1.06,1.06a1.83,1.83,0,0,1-2.58,0l-4.9-4.9A1.83,1.83,0,0,1,10.31,32.31ZM9.5,38.49l.6-1.73,3.3,3.3-1.74.59a.33.33,0,0,1-.34-.07L9.58,38.84A.35.35,0,0,1,9.5,38.49Z"/></g></g></svg>