<?xml version="1.0" encoding="utf-8"?>
<!-- Generator: Adobe Illustrator 24.0.3, SVG Export Plug-In . SVG Version: 6.00 Build 0)  -->
<svg version="1.1" id="Medicine" xmlns="http://www.w3.org/2000/svg" xmlns:xlink="http://www.w3.org/1999/xlink" x="0px" y="0px"
	 viewBox="0 0 100 100" style="enable-background:new 0 0 100 100;" xml:space="preserve">
<style type="text/css">
	.st0{fill:#006064;}
</style>
<title>Artboard 1</title>
<path class="st0" d="M73.1,25L73.1,25c-0.8,0.1-1.4,0.8-1.4,1.6c0.1,0.7,0.6,1.3,1.4,1.4C88,28,94.7,39.4,94.7,50s-6.8,22-21.6,22
	H50.9V28h7.9c0.8-0.1,1.4-0.8,1.4-1.6c-0.1-0.7-0.6-1.3-1.4-1.4h-32C15,25.1,2.3,32.9,2.3,50s12.8,25,24.6,25h46.2
	c11.8,0,24.5-7.9,24.5-25S84.9,25,73.1,25z M5.3,50c0-10.6,6.8-22,21.6-22H48v44.1H26.9C12.1,72,5.3,60.6,5.3,50z"/>
<path class="st0" d="M28.2,31.7c-7.2-0.9-14.2,2.7-17.6,9c-0.4,0.7-0.2,1.6,0.5,2c0.2,0.1,0.5,0.2,0.8,0.2c0.5,0,1-0.3,1.3-0.7
	c5.4-9.2,14.2-7.7,14.6-7.6c0.8,0.2,1.6-0.4,1.7-1.2c0,0,0,0,0,0C29.6,32.7,29,31.9,28.2,31.7z"/>
</svg>
