<svg id="Medicine" xmlns="http://www.w3.org/2000/svg" viewBox="0 0 100 100"><defs><style>.cls-1{fill:#fff;}</style></defs><title>Artboard 1</title><path class="cls-1" d="M73.12,25h0a1.48,1.48,0,0,0,0,2.95C88,28,94.71,39.43,94.71,50s-6.76,22-21.6,22H50.94V28h7.89a1.48,1.48,0,0,0,0-2.95h-32c-11.82.05-24.54,7.89-24.54,25S15.06,75,26.89,75H73.12c11.82,0,24.54-7.89,24.54-25S84.94,25.05,73.12,25ZM5.29,50c0-10.57,6.76-22,21.6-22H48v44.1H26.89C12.05,72,5.29,60.57,5.29,50Z"/><path class="cls-1" d="M28.23,31.74a17.65,17.65,0,0,0-17.65,9,1.48,1.48,0,0,0,.52,2,1.35,1.35,0,0,0,.75.21,1.49,1.49,0,0,0,1.27-.72c5.43-9.15,14.2-7.67,14.57-7.6a1.47,1.47,0,0,0,1.72-1.17A1.49,1.49,0,0,0,28.23,31.74Z"/></svg>