<svg xmlns="http://www.w3.org/2000/svg" viewBox="0 0 56.54 29.66"><defs><style>.cls-1{fill:#fff;}</style></defs><title>Asset 14</title><g id="Layer_2" data-name="Layer 2"><g id="Layer_1-2" data-name="Layer 1"><path class="cls-1" d="M14.56,29.66C7.55,29.63,0,25,0,14.83S7.55,0,14.56,0H33.51a.88.88,0,1,1,0,1.75H14.56c-8.8,0-12.81,6.8-12.81,13.08s4,13,12.82,13.08H42c8.8,0,12.81-6.81,12.81-13.08s-4-13-12.81-13.08a.87.87,0,0,1-.87-.88A.87.87,0,0,1,42,0h0c7,0,14.55,4.69,14.55,14.83S49,29.63,42,29.66Z"/><path class="cls-1" d="M5.64,10.65a.79.79,0,0,1-.44-.12.87.87,0,0,1-.31-1.2A10.47,10.47,0,0,1,15.36,4,.87.87,0,1,1,15,5.72h0a8.58,8.58,0,0,0-8.65,4.51A.87.87,0,0,1,5.64,10.65Z"/><path class="cls-1" d="M28,29.54h0a.87.87,0,0,1-.88-.87V.89A.87.87,0,0,1,28,0h0a.88.88,0,0,1,.88.87V28.67A.87.87,0,0,1,28,29.54Z"/></g></g></svg>