<?xml version="1.0" encoding="utf-8"?>
<!-- Generator: Adobe Illustrator 24.0.3, SVG Export Plug-In . SVG Version: 6.00 Build 0)  -->
<svg version="1.1" id="Mouth_Guard" xmlns="http://www.w3.org/2000/svg" xmlns:xlink="http://www.w3.org/1999/xlink" x="0px"
	 y="0px" viewBox="0 0 100 100" style="enable-background:new 0 0 100 100;" xml:space="preserve">
<style type="text/css">
	.st0{fill:#006064;}
</style>
<title>Artboard 1</title>
<path class="st0" d="M49.4,49.1c9.4,0,17-7.7,17-17c0-9.4-7.7-17-17-17c-9.3,0-16.9,7.6-17,16.9C32.4,41.4,40,49.1,49.4,49.1z
	 M49.4,47.4c-4.4,0-8.6-1.9-11.5-5.2l0.7-0.7c0.8,0.7,1.9,1.1,2.9,1.1h15.9c0.9,0,1.7-0.3,2.5-0.7l0.7,0.7
	C57.7,45.6,53.7,47.4,49.4,47.4z M60.5,36.4v1.5c0,1.7-1.4,3.1-3.1,3.1H41.5c-1.7,0-3.1-1.4-3.1-3.1l0,0v-1.5c0-1.7,1.4-3.1,3.1-3.1
	l0,0h15.9C59.2,33.3,60.5,34.7,60.5,36.4L60.5,36.4z M61.5,41.4L61,40.8c0.6-0.8,1-1.8,1-2.8v-1.5c0-1-0.4-2-1-2.8l3.4-4.4
	c0.2,0.9,0.3,1.9,0.3,2.8C64.8,35.4,63.7,38.7,61.5,41.4L61.5,41.4z M49.4,16.7C56.1,16.7,62,21,64,27.4l-4,5.2
	c-0.7-0.5-1.6-0.7-2.5-0.8h-16c-0.9,0-1.9,0.3-2.6,0.8l-4.2-4.9C36.6,21.3,42.6,16.7,49.4,16.7z M34.3,29.7l3.5,4.1
	c-0.6,0.8-0.8,1.7-0.8,2.7v1.5c0,0.8,0.2,1.6,0.7,2.3L37,41C34.6,37.7,33.6,33.7,34.3,29.7L34.3,29.7z"/>
<path class="st0" d="M50,52.6c-17.4,0-31.5,14.1-31.5,31.5c0,0.5,0.4,0.9,0.8,0.9c0,0,0,0,0,0h44.9c0.5-0.1,0.8-0.5,0.8-0.9
	c0-0.4-0.4-0.7-0.8-0.8h-44c0.4-16.5,14.1-29.5,30.6-29c15.9,0.4,28.6,13.2,29,29h-8.2c-0.5,0.1-0.8,0.5-0.8,0.9
	c0,0.4,0.4,0.7,0.8,0.8h9.1c0.5,0,0.9-0.4,0.9-0.8c0,0,0,0,0,0C81.5,66.7,67.4,52.6,50,52.6z"/>
</svg>
