<svg id="Mouth_Guard" data-name="Mouth Guard" xmlns="http://www.w3.org/2000/svg" viewBox="0 0 100 100"><defs><style>.cls-1{fill:#fff;}</style></defs><title>Artboard 1</title><path class="cls-1" d="M49.43,49.09A17,17,0,1,0,32.39,32,17.07,17.07,0,0,0,49.43,49.09Zm0-1.71a15.3,15.3,0,0,1-11.5-5.22l.67-.73a4.57,4.57,0,0,0,2.94,1.09H57.46a4.53,4.53,0,0,0,2.47-.73l.68.73A15.31,15.31,0,0,1,49.43,47.38ZM60.55,36.44v1.49A3.09,3.09,0,0,1,57.46,41H41.54a3.09,3.09,0,0,1-3.09-3.09V36.44a3.09,3.09,0,0,1,3.09-3.09H57.46A3.09,3.09,0,0,1,60.55,36.44Zm1,4.92L61,40.77a4.55,4.55,0,0,0,1-2.84V36.44a4.56,4.56,0,0,0-1-2.82l3.44-4.41A15.6,15.6,0,0,1,64.77,32,15.22,15.22,0,0,1,61.58,41.36ZM49.43,16.71A15.35,15.35,0,0,1,64,27.37L60,32.6a4.57,4.57,0,0,0-2.5-.75H41.54a4.57,4.57,0,0,0-2.64.85l-4.21-4.85A15.35,15.35,0,0,1,49.43,16.71Zm-15.13,13,3.53,4.07A4.51,4.51,0,0,0,37,36.44v1.49a4.57,4.57,0,0,0,.67,2.35L37,41A15,15,0,0,1,34.3,29.69Z"/><path class="cls-1" d="M50,52.61A31.58,31.58,0,0,0,18.46,84.15a.85.85,0,0,0,.86.85H64.18a.86.86,0,0,0,0-1.71h-44a29.83,29.83,0,0,1,59.64,0H71.58a.86.86,0,0,0,0,1.71h9.1a.85.85,0,0,0,.86-.85A31.58,31.58,0,0,0,50,52.61Z"/></svg>