<svg id="people" xmlns="http://www.w3.org/2000/svg" viewBox="0 0 100 100"><defs><style>.cls-1{fill:#fff;}</style></defs><title>Artboard 1</title><path class="cls-1" d="M49.43,49.09A17,17,0,1,0,32.39,32,17.07,17.07,0,0,0,49.43,49.09Zm0-32.38A15.34,15.34,0,1,1,34.1,32,15.35,15.35,0,0,1,49.43,16.71Z"/><path class="cls-1" d="M50,52.61A31.58,31.58,0,0,0,18.46,84.15a.85.85,0,0,0,.86.85H64.18a.86.86,0,0,0,0-1.71h-44a29.83,29.83,0,0,1,59.64,0H71.58a.86.86,0,0,0,0,1.71h9.1a.85.85,0,0,0,.86-.85A31.58,31.58,0,0,0,50,52.61Z"/></svg>