<svg id="PoliticianDeath" xmlns="http://www.w3.org/2000/svg" viewBox="0 0 100 100"><defs><style>.cls-1{fill:#fff;}</style></defs><title>Artboard 1</title><path class="cls-1" d="M70.69,38.55l-1.91-8.32a1,1,0,1,0-2,.46l1.89,8.25-6,44H37.34l-6-44,5-21.88h27.3l1.55,6.75a1,1,0,1,0,2-.46l-1.61-7A1.71,1.71,0,0,0,63.93,15H36.07a1.71,1.71,0,0,0-1.67,1.33L29.31,38.55a1.56,1.56,0,0,0,0,.61l6.06,44.36A1.72,1.72,0,0,0,37,85H63a1.72,1.72,0,0,0,1.7-1.48l6.06-44.36A1.56,1.56,0,0,0,70.69,38.55Z"/><path class="cls-1" d="M38.48,64.5a1,1,0,0,0-.91,1.14L39,77.92a1.71,1.71,0,0,0,1.7,1.52H59.27A1.71,1.71,0,0,0,61,77.92l4.4-37.24a1.37,1.37,0,0,0,0-.57L61.67,23.42A1.73,1.73,0,0,0,60,22.07H40a1.73,1.73,0,0,0-1.68,1.35L34.66,40.11a1.37,1.37,0,0,0,0,.57l2.09,17.71a1,1,0,1,0,2-.24L36.68,40.5l3.6-16.37H59.72l3.6,16.37L59,77.38H41l-1.41-12A1,1,0,0,0,38.48,64.5Z"/><path class="cls-1" d="M51.51,32.69h-3a1.72,1.72,0,0,0-1.72,1.72v3.4H42a1.72,1.72,0,0,0-1.71,1.71v3A1.72,1.72,0,0,0,42,44.26h4.75v12.6a1.72,1.72,0,0,0,1.72,1.72h3a1.72,1.72,0,0,0,1.72-1.72V44.26H58a1.72,1.72,0,0,0,1.71-1.71v-3A1.72,1.72,0,0,0,58,37.81H53.23v-3.4A1.72,1.72,0,0,0,51.51,32.69Zm6.12,7.18v2.34H52.2a1,1,0,0,0-1,1V56.52H48.83V43.23a1,1,0,0,0-1-1H42.37V39.87H47.8a1,1,0,0,0,1-1v-4.1h2.34v4.1a1,1,0,0,0,1,1h5.43Z"/></svg>