<svg id="Profile_Twitter" xmlns="http://www.w3.org/2000/svg" viewBox="0 0 100 100"><defs><style>.cls-1{fill:#faa275;}.cls-2{fill:#710627;}</style></defs><title>Artboard 1</title><circle class="cls-1" cx="50" cy="50" r="35"/><path class="cls-2" d="M49.62,46.38A11.54,11.54,0,1,0,38.08,34.85,11.54,11.54,0,0,0,49.62,46.38Zm0-21.91A10.38,10.38,0,1,1,39.24,34.85,10.39,10.39,0,0,1,49.62,24.47Z"/><path class="cls-2" d="M50,48.77A21.36,21.36,0,0,0,28.66,70.11a.58.58,0,0,0,.57.58H59.59a.58.58,0,0,0,0-1.16H29.82a20.19,20.19,0,0,1,40.36,0H64.61a.58.58,0,0,0,0,1.16h6.16a.58.58,0,0,0,.57-.58A21.36,21.36,0,0,0,50,48.77Z"/></svg>