<svg xmlns="http://www.w3.org/2000/svg" viewBox="0 0 46.88 50"><defs><style>.cls-1{fill:#fff;}</style></defs><title>Asset 7</title><g id="Layer_2" data-name="Layer 2"><g id="Layer_1-2" data-name="Layer 1"><path class="cls-1" d="M46.45,26.49l-5.22-9,.43-.24a3.94,3.94,0,1,0-3.94-6.82l-.42.25-5.22-9a3.19,3.19,0,0,0-5.83,2.46l-5,5.62A1,1,0,0,0,22.71,11l4.5-5.07L40.29,28.56,18.43,33.25,12.32,22.66l4.55-5.11a1,1,0,0,0-1.46-1.3L10.5,21.78,2.33,26.49a4.65,4.65,0,0,0-1.7,6.36l3.14,5.44a4.66,4.66,0,0,0,4,2.33A4.61,4.61,0,0,0,10.13,40l2.32-1.34L22.64,48.84a4,4,0,0,0,5.59-5.59l-3.54-3.53,1-.55a2.66,2.66,0,0,0,.47-4.24L25,33.85l16.46-3.53a3.26,3.26,0,0,0,1.46.85,3.32,3.32,0,0,0,.83.11,3.22,3.22,0,0,0,1.59-.43,3.2,3.2,0,0,0,1.16-4.36ZM38.28,12.33l.42-.25a2,2,0,1,1,2,3.44l-.42.24-1.95-3.37ZM9.15,38.3a2.7,2.7,0,0,1-3.69-1L2.32,31.87a2.7,2.7,0,0,1,1-3.69l7.46-4.3L16.61,34Zm18.26,8A2,2,0,0,1,24,47.46L14.2,37.64l3.58-2.07,9.06,9.07a2,2,0,0,1,.57,1.67ZM24.8,36.37A.65.65,0,0,1,25,37a.71.71,0,0,1-.34.53l-1.42.81L19.9,34.93l2.72-.58Zm20.09-8a1.25,1.25,0,0,1-.58.75,1.25,1.25,0,0,1-1.69-.45L28.25,3.81a1.19,1.19,0,0,1-.12-.94,1.2,1.2,0,0,1,.57-.75A1.23,1.23,0,0,1,29.32,2a1.25,1.25,0,0,1,.32.05,1.23,1.23,0,0,1,.75.57l14.37,24.9A1.24,1.24,0,0,1,44.89,28.41Z"/><path class="cls-1" d="M19.06,14.59a.94.94,0,0,0,.69-.29,1,1,0,0,0,.29-.69,1,1,0,0,0-.29-.69,1,1,0,0,0-1.38,0,1,1,0,0,0-.29.69,1,1,0,0,0,.29.69A.94.94,0,0,0,19.06,14.59Z"/></g></g></svg>