<svg id="Layer_9" data-name="Layer 9" xmlns="http://www.w3.org/2000/svg" viewBox="0 0 100 100"><defs><style>.cls-1{fill:#fff;}</style></defs><title>Artboard 1</title><path class="cls-1" d="M82.22,52.09,74.91,39.43l.59-.34A5.51,5.51,0,1,0,70,29.55l-.6.34L62.09,17.23a4.46,4.46,0,0,0-8.17,1.08,4.34,4.34,0,0,0,0,2.37l-7,7.87a1.37,1.37,0,1,0,2,1.82l6.31-7.09L73.58,55,43,61.55,34.43,46.73l6.37-7.16a1.37,1.37,0,0,0-.11-1.93,1.35,1.35,0,0,0-1.93.11l-6.88,7.74-11.44,6.6A6.52,6.52,0,0,0,18.06,61l4.39,7.62A6.54,6.54,0,0,0,31.36,71l3.25-1.87L48.87,83.38A5.53,5.53,0,0,0,52.79,85a5.53,5.53,0,0,0,3.91-9.44l-5-5,1.35-.78a3.7,3.7,0,0,0,.66-5.93l-1.64-1.51,23-5a4.39,4.39,0,0,0,2,1.19,4.16,4.16,0,0,0,1.16.16,4.47,4.47,0,0,0,4.3-3.31A4.46,4.46,0,0,0,82.22,52.09ZM30,68.63a3.79,3.79,0,0,1-5.17-1.39l-4.39-7.62a3.77,3.77,0,0,1,1.38-5.16l10.45-6L40.43,62.6Zm24.77,8.86a2.79,2.79,0,0,1,.8,2.34h0a2.8,2.8,0,0,1-4.75,1.62L37.06,67.7l5-2.9ZM52.21,66.73a1,1,0,0,1-.47.74l-2,1.14-4.7-4.71,3.79-.81,3.07,2.83A.92.92,0,0,1,52.21,66.73ZM71.36,31.92a2.77,2.77,0,0,1,2.78,4.8l-.6.34-2.73-4.72,0-.08ZM80,54.77a1.7,1.7,0,0,1-.8,1A1.74,1.74,0,0,1,77.9,56a1.71,1.71,0,0,1-1-.8L56.73,20.33A1.72,1.72,0,0,1,56.56,19a1.7,1.7,0,0,1,.8-1.05,1.66,1.66,0,0,1,.86-.23,1.68,1.68,0,0,1,.45.06,1.66,1.66,0,0,1,1,.8L79.85,53.46A1.71,1.71,0,0,1,80,54.77Z"/><path class="cls-1" d="M43.87,35.43a1.37,1.37,0,0,0,0-2.74,1.4,1.4,0,0,0-1,.4,1.38,1.38,0,0,0,0,1.94A1.4,1.4,0,0,0,43.87,35.43Z"/></svg>