<svg xmlns="http://www.w3.org/2000/svg" viewBox="0 0 45.62 50"><defs><style>.cls-1{fill:#fff;}</style></defs><title>Asset 5</title><g id="Layer_2" data-name="Layer 2"><g id="Layer_1-2" data-name="Layer 1"><path class="cls-1" d="M25.05,12.5a3.11,3.11,0,1,0,3.11,3.11,3.1,3.1,0,0,0-3.11-3.11Zm0,4.75a1.64,1.64,0,1,1,1.64-1.64,1.65,1.65,0,0,1-1.64,1.64Z"/><path class="cls-1" d="M34.2,38.05a3.11,3.11,0,1,0,3.11,3.1A3.1,3.1,0,0,0,34.2,38.05Zm0,4.74a1.64,1.64,0,1,1,1.64-1.64,1.64,1.64,0,0,1-1.64,1.64Z"/><path class="cls-1" d="M44.89,48.54H44V44.81a2,2,0,0,0-2-2H40a6.31,6.31,0,0,0,.23-1.64,4.71,4.71,0,0,0,0-.53,16.74,16.74,0,0,0,4.54-11.49,16.92,16.92,0,0,0-14.57-16.7,6,6,0,0,0-4.4-2.81V9.2a2.12,2.12,0,0,0-2.12-2.11H23V5h0a2,2,0,0,0,2-2V.73A.73.73,0,0,0,24.22,0H14.81a.73.73,0,0,0-.73.73V3a2,2,0,0,0,2,2h0V7.09h-.68A2.12,2.12,0,0,0,13.25,9.2V11a.73.73,0,0,0,1.46,0V9.2a.66.66,0,0,1,.66-.65h8.29a.66.66,0,0,1,.66.65v.42a6,6,0,0,0,0,12v3.47H17.84V21.72a.74.74,0,0,0-1.47,0v3.34H14.71v-11a.73.73,0,0,0-1.46,0V28.75a2.13,2.13,0,0,0,1.18,1.91l1.09,2.44a1.59,1.59,0,0,0,1.16.93v1.61a1.55,1.55,0,0,0,1.55,1.55H20.8a1.55,1.55,0,0,0,1.55-1.55V34a1.62,1.62,0,0,0,1.17-.93l1.08-2.44a2.13,2.13,0,0,0,1.18-1.91V21.59a6,6,0,0,0,4.74-3.44,11.28,11.28,0,0,1,8.66,11c0,.33,0,.66,0,1a.73.73,0,0,0,.67.8h.06a.73.73,0,0,0,.73-.67c0-.37,0-.74,0-1.11A12.75,12.75,0,0,0,31,16.75a5.38,5.38,0,0,0,.11-1.14A5.85,5.85,0,0,0,30.87,14a15.38,15.38,0,0,1,8.92,24.85,6,6,0,0,0-1.59-2.24,13,13,0,0,0,1.66-3.09A.74.74,0,0,0,38.48,33,11,11,0,0,1,37,35.8a6.13,6.13,0,0,0-2.8-.68,6,6,0,0,0-6,6,5.91,5.91,0,0,0,.23,1.64H8.75a.73.73,0,1,0,0,1.46H29a6,6,0,0,0,10.34,0H42a.56.56,0,0,1,.55.56v3.73H3.2V44.81a.57.57,0,0,1,.56-.56H5.63a.73.73,0,0,0,0-1.46H3.76a2,2,0,0,0-2,2v3.73h-1A.73.73,0,0,0,.73,50H44.89a.73.73,0,1,0,0-1.46ZM21.52,7.09h-4V5h4ZM16.78,3.53h-.73a.5.5,0,0,1-.51-.5V1.46h8V3a.5.5,0,0,1-.51.5h-6.2Zm4.11,32.11a.09.09,0,0,1-.09.09H18.23a.09.09,0,0,1-.08-.09V34.07h2.74Zm1.29-3.14a.18.18,0,0,1-.16.1H17a.15.15,0,0,1-.15-.1l-.73-1.63H22.9Zm2.14-3.75a.67.67,0,0,1-.66.66H15.37a.67.67,0,0,1-.66-.66V26.52h9.61ZM29.4,17a.49.49,0,0,0,0,.11,4,4,0,1,1,0-.11Zm4.8,28.71a4.57,4.57,0,1,1,4.57-4.57,4.58,4.58,0,0,1-4.57,4.57Z"/></g></g></svg>