<svg id="Layer_6" data-name="Layer 6" xmlns="http://www.w3.org/2000/svg" viewBox="0 0 100 100"><defs><style>.cls-1{fill:#fff;}</style></defs><title>Artboard 1</title><path class="cls-1" d="M53.14,32.5a4.35,4.35,0,1,0,4.35,4.35A4.35,4.35,0,0,0,53.14,32.5Zm0,6.65a2.3,2.3,0,1,1,2.29-2.3A2.3,2.3,0,0,1,53.14,39.15Z"/><path class="cls-1" d="M66,68.26a4.35,4.35,0,1,0,4.35,4.35A4.35,4.35,0,0,0,66,68.26Zm0,6.65a2.3,2.3,0,1,1,2.3-2.3A2.3,2.3,0,0,1,66,74.91Z"/><path class="cls-1" d="M80.91,83H79.65V77.74a2.83,2.83,0,0,0-2.83-2.83H74.08a8.69,8.69,0,0,0,.32-2.3c0-.25,0-.5,0-.74a23.59,23.59,0,0,0-14-39.47,8.43,8.43,0,0,0-6.15-3.93v-.58a3,3,0,0,0-3-3h-1V22h0A2.76,2.76,0,0,0,53,19.24V16a1,1,0,0,0-1-1H38.8a1,1,0,0,0-1,1v3.21A2.76,2.76,0,0,0,40.53,22h0v2.92h-1a3,3,0,0,0-3,3v2.44a1,1,0,1,0,2.05,0V27.89a.92.92,0,0,1,.91-.92H51.2a.92.92,0,0,1,.91.92v.58a8.44,8.44,0,0,0,0,16.76v4.85H43V45.41a1,1,0,0,0-2,0v4.67H38.67V34.7a1,1,0,1,0-2.05,0V55.26a3,3,0,0,0,1.66,2.66l1.51,3.42a2.3,2.3,0,0,0,1.63,1.31V64.9a2.17,2.17,0,0,0,2.17,2.17h3.6a2.17,2.17,0,0,0,2.17-2.17V62.65A2.3,2.3,0,0,0,51,61.34l1.51-3.42a3,3,0,0,0,1.66-2.66v-10a8.47,8.47,0,0,0,6.64-4.82A15.78,15.78,0,0,1,72.92,55.78q0,.69-.06,1.38a1,1,0,0,0,.94,1.11h.09a1,1,0,0,0,1-.93q.06-.78.06-1.56A17.85,17.85,0,0,0,61.43,38.45a8.43,8.43,0,0,0,.16-1.6,8.54,8.54,0,0,0-.3-2.21A21.62,21.62,0,0,1,78.66,55.78a21.37,21.37,0,0,1-4.89,13.65,8.52,8.52,0,0,0-2.22-3.14A17.64,17.64,0,0,0,73.87,62a1,1,0,0,0-.61-1.31,1,1,0,0,0-1.31.6,16.27,16.27,0,0,1-2.09,3.87,8.32,8.32,0,0,0-3.91-1,8.46,8.46,0,0,0-8.45,8.45,8.3,8.3,0,0,0,.32,2.3H30.31a1,1,0,0,0,0,2h28.4a8.44,8.44,0,0,0,14.48,0h3.63a.78.78,0,0,1,.78.78V83h-55V77.74a.78.78,0,0,1,.78-.78h2.61a1,1,0,1,0,0-2H23.33a2.83,2.83,0,0,0-2.83,2.83V83H19.09a1,1,0,0,0,0,2H80.91a1,1,0,0,0,0-2Zm-32.72-58h-5.6V22h5.6Zm-6.63-5h-1a.7.7,0,0,1-.7-.71V17.05H51v2.19a.7.7,0,0,1-.7.71H41.56Zm5.75,45a.12.12,0,0,1-.12.12h-3.6a.12.12,0,0,1-.12-.12V62.69h3.84Zm1.8-4.39a.22.22,0,0,1-.21.13h-7a.22.22,0,0,1-.21-.13l-1-2.29h9.48Zm3-5.25a.91.91,0,0,1-.91.91H39.58a.91.91,0,0,1-.91-.91V52.13H52.11Zm7.11-16.44,0,.15a6.38,6.38,0,1,1,.37-2.12A6.12,6.12,0,0,1,59.22,38.82ZM66,79a6.4,6.4,0,1,1,6.4-6.4A6.41,6.41,0,0,1,66,79Z"/></svg>