<svg xmlns="http://www.w3.org/2000/svg" viewBox="0 0 55.32 50"><defs><style>.cls-1{fill:#fff;}</style></defs><title>Asset 6</title><g id="Layer_2" data-name="Layer 2"><g id="Layer_1-2" data-name="Layer 1"><path class="cls-1" d="M.91,18.39l9.31,4.32L7.74,32a1.85,1.85,0,0,0,.74,2l1.36.92A31.66,31.66,0,0,0,39,38.28v1.37a2.59,2.59,0,0,0-1.77,2.45v1.62a1,1,0,0,0,.1.42l-.73,4.07a1.06,1.06,0,0,0,.54,1.12,5.67,5.67,0,0,0,5.34,0A1,1,0,0,0,43,48.21l-.73-4.07a1,1,0,0,0,.1-.42V42.1a2.58,2.58,0,0,0-1.77-2.45v-2A36.84,36.84,0,0,0,46.84,34a1.86,1.86,0,0,0,.74-2l-.9-3.35a.81.81,0,1,0-1.56.42L46,32.39a.21.21,0,0,1-.09.24,36.44,36.44,0,0,1-5.29,3.2v-11l3-1.38.51,1.92a.81.81,0,0,0,1,.57.8.8,0,0,0,.57-1l-.59-2.19,9.31-4.32A1.56,1.56,0,0,0,55.32,17V13.64a1.57,1.57,0,0,0-.91-1.39L28.33.15A1.55,1.55,0,0,0,27,.15L9.19,8.41a.81.81,0,0,0,.68,1.47L27.66,1.63l26,12.05-13.77,6.4L28.08,13a.81.81,0,0,0-1.11.27.82.82,0,0,0,.27,1.12L38.09,20.9,27.66,25.74l-26-12.06,4.73-2.19a.81.81,0,0,0,.39-1.08A.8.8,0,0,0,5.73,10L.92,12.25A1.56,1.56,0,0,0,0,13.68V17A1.56,1.56,0,0,0,.91,18.39ZM38.28,48.07l.61-3.4h1.86l.61,3.4a4,4,0,0,1-3.08,0Zm3.16.43Zm-.66-5.45H38.87V42.1a1,1,0,1,1,1.91,0ZM53.7,15.44v1.49L40.63,23V21.51ZM27,27.22a1.62,1.62,0,0,0,1.33,0l10.68-5v1.49L27.66,29,19,25a.81.81,0,1,0-.68,1.47l8.71,4a1.55,1.55,0,0,0,1.33,0l10.68-5v11a29.86,29.86,0,0,1-28.25-3L9.4,32.63a.21.21,0,0,1-.09-.24l2.4-9,3.09,1.43a.81.81,0,0,0,1.07-.39.82.82,0,0,0-.39-1.08L1.62,16.93V15.44Z"/></g></g></svg>