<svg id="Layer_7" data-name="Layer 7" xmlns="http://www.w3.org/2000/svg" viewBox="0 0 100 100"><defs><style>.cls-1{fill:#fff;}</style></defs><title>Artboard 1</title><path class="cls-1" d="M19.71,41.56h0Z"/><path class="cls-1" d="M88.72,34.1a2.19,2.19,0,0,0-1.28-2L50.93,15.21a2.16,2.16,0,0,0-1.86,0L24.14,26.77a1.14,1.14,0,1,0,1,2.06L50,17.28,86.38,34.15l-19.29,9L50.58,33.18a1.13,1.13,0,0,0-1.16,2l15.19,9.13L50,51,13.62,34.15l6.63-3.07A1.13,1.13,0,0,0,19.3,29l-6.74,3.13a2.18,2.18,0,0,0-1.28,2v4.58a2.2,2.2,0,0,0,1.28,2l13,6-3.47,13a2.6,2.6,0,0,0,1,2.8l1.91,1.29A44.34,44.34,0,0,0,65.89,68.6v1.91a3.63,3.63,0,0,0-2.47,3.43V76.2a1.33,1.33,0,0,0,.14.6l-1,5.69a1.48,1.48,0,0,0,.76,1.58,8,8,0,0,0,7.47,0,1.48,1.48,0,0,0,.76-1.58s0-.08-1-5.69a1.33,1.33,0,0,0,.14-.6V73.94a3.63,3.63,0,0,0-2.47-3.43V67.65a51.24,51.24,0,0,0,8.69-5.09,2.6,2.6,0,0,0,1-2.8l-1.26-4.7a1.13,1.13,0,0,0-2.19.59l1.26,4.69a.32.32,0,0,1-.13.34,50.75,50.75,0,0,1-7.41,4.48V49.69l4.17-1.93.72,2.69a1.13,1.13,0,0,0,2.19-.59l-.82-3.07,13-6a2.2,2.2,0,0,0,1.28-2C88.72,33.84,88.73,34.14,88.72,34.1ZM26.33,62l-1.9-1.3a.32.32,0,0,1-.13-.34l3.37-12.58,4.32,2a1.13,1.13,0,0,0,1.51-.55,1.15,1.15,0,0,0-.56-1.51L19.71,41.56l1.41.66L13.54,38.7V36.62L49.07,53.1a2.16,2.16,0,0,0,1.86,0l15-6.94v2.09L50,55.62,37.83,50A1.13,1.13,0,1,0,36.88,52l12.19,5.66a2.24,2.24,0,0,0,1.86,0l15-6.94V66.17A41.84,41.84,0,0,1,26.33,62ZM24.72,43.89l1.43.66Zm1.56.72h0Zm.84.39ZM24.5,43.79l-3.12-1.45ZM64.87,82.3l.86-4.76h2.59l.86,4.76A5.65,5.65,0,0,1,64.87,82.3Zm3.49-8.36v1.33H65.69V73.94a1.34,1.34,0,1,1,2.67,0ZM86.46,38.7l-18.3,8.49V45.11l18.3-8.49Z"/><path class="cls-1" d="M19.7,41.56Z"/></svg>