<svg xmlns="http://www.w3.org/2000/svg" viewBox="0 0 127.8 88.89"><defs><style>.cls-1{fill:#fff;}</style></defs><title>Asset 18</title><g id="Layer_2" data-name="Layer 2"><g id="Layer_3" data-name="Layer 3"><circle class="cls-1" cx="59.74" cy="65.37" r="5.42"/><path class="cls-1" d="M46.81,30c-3.38,2-5.08,5.33-3.8,7.54S48.07,40,51.44,38s5.08-5.33,3.81-7.54S50.19,28,46.81,30Z"/><ellipse class="cls-1" cx="100.49" cy="12.84" rx="4.12" ry="6.28" transform="translate(78.2 111.66) rotate(-84.57)"/><ellipse class="cls-1" cx="111.73" cy="33.58" rx="4.67" ry="6.28" transform="translate(43.12 127.94) rotate(-70.71)"/><path class="cls-1" d="M111.25,52.78a6,6,0,1,0,3.93,7.76A6.15,6.15,0,0,0,111.25,52.78Z"/><path class="cls-1" d="M74.23,34.5c.33,2.84,3.42,4.83,6.9,4.42s6-3,5.71-5.88-3.42-4.83-6.9-4.43S73.9,31.65,74.23,34.5Z"/><ellipse class="cls-1" cx="69.7" cy="16.33" rx="7.08" ry="4" transform="translate(-1.41 8.11) rotate(-6.6)"/><path class="cls-1" d="M30.71,55.27c-2.45-1.1-5.73.91-7.33,4.48s-.9,7.35,1.55,8.45,5.73-.91,7.33-4.48S33.16,56.37,30.71,55.27Z"/><ellipse class="cls-1" cx="8.38" cy="52.46" rx="7.08" ry="2.8" transform="translate(-42.93 38.7) rotate(-65.91)"/><path class="cls-1" d="M54,9.66c-3.7,1.26-6.34,3.36-5.88,4.68s3.82,1.39,7.52.12S62,11.1,61.54,9.78,57.72,8.4,54,9.66Z"/><path class="cls-1" d="M71.34,72s-4.16-1.42-3.79-4.25a.47.47,0,0,0,0-.17,7.79,7.79,0,0,0,.29-2.11,8.09,8.09,0,1,0-8.09,8.1,7.61,7.61,0,0,0,1.66-.18h0a5,5,0,0,1,3,1.76.48.48,0,0,0,.4.21.55.55,0,0,0,.3-.09.51.51,0,0,0,.11-.7A5.27,5.27,0,0,0,63,72.83a8.14,8.14,0,0,0,3.74-3.41c.92,2.37,4.09,3.45,4.26,3.5a.4.4,0,0,0,.15,0,.51.51,0,0,0,.48-.35A.5.5,0,0,0,71.34,72Zm-11.61.57a7.1,7.1,0,1,1,7.09-7.1A7.1,7.1,0,0,1,59.73,72.54Z"/><path class="cls-1" d="M112,50.76a8.75,8.75,0,0,0-6.52.28,8.07,8.07,0,0,0-4.3,4.69,8.23,8.23,0,0,0,2.05,8.54c-.79,2.1-3.59,3.3-3.62,3.31a.51.51,0,0,0-.27.66.5.5,0,0,0,.46.3.69.69,0,0,0,.2,0A8.59,8.59,0,0,0,104,65a8.55,8.55,0,0,0,2.52,1.38l.48.15a10.09,10.09,0,0,0-.21,3.32.51.51,0,0,0,.5.44h.06a.5.5,0,0,0,.44-.55,8.65,8.65,0,0,1,.19-3,9.08,9.08,0,0,0,1.46.12,8.29,8.29,0,0,0,7.9-5.46,8.08,8.08,0,0,0-.44-6.35A8.73,8.73,0,0,0,112,50.76Zm4.42,10.3a7.58,7.58,0,0,1-14.3-5A7,7,0,0,1,105.85,52a7.56,7.56,0,0,1,3.16-.69,7.83,7.83,0,0,1,2.61.45A7.66,7.66,0,0,1,116,55.49,7,7,0,0,1,116.37,61.06Z"/><path class="cls-1" d="M6,73.34C4.66,73,3,75.46,2.15,78.79s-.39,6.27.93,6.59,3-2.12,3.83-5.45S7.29,73.66,6,73.34Z"/><path class="cls-1" d="M119.31,12.29c3,1,5.86.62,6.36-.86s-1.54-3.51-4.56-4.52-5.86-.63-6.36.86S116.29,11.28,119.31,12.29Z"/><path class="cls-1" d="M123.06,19.31A8.62,8.62,0,0,0,127.71,12c.62-2.19-2.07-4.95-6.2-6.34A12.65,12.65,0,0,0,116,5c-1.74.24-2.91,1-3.28,2.1a2.28,2.28,0,0,0-.1,1,33.29,33.29,0,0,0,.85,9.83,11.94,11.94,0,0,1-1.4,9.07,9.74,9.74,0,0,0-4.66.3.43.43,0,0,0-.2-.11c-2.13-.56-4.3-1-6.46-1.36a9.74,9.74,0,0,1,2.79-4.52,14.94,14.94,0,0,1,2-1.53c1.75-1.15,3.26-2.15,3.47-6.1h0a5.07,5.07,0,0,0-2.19-4.36,11.08,11.08,0,0,0-5.8-2.2,11.83,11.83,0,0,0-1.88,0,7.28,7.28,0,0,0,1.11-3.68,1,1,0,0,0,.08-.37,1,1,0,0,0-.09-.45.58.58,0,0,0-.13-.23C99,.75,93.78.12,90.84,0c-3.33-.11-9.62.24-9.7,2.38,0,.19.15,1,.21,1.32-1.31.11-4.32.61-5,3-1,3.52,4.45,8.6,5.08,9.16,2,1.85,2.74,7.44,1.55,9.3,0,0,0,.07,0,.11a74.16,74.16,0,0,0-7.47,1.06,5.51,5.51,0,0,1,1-2.52c1.74-2.18,3.39-4.64,2.79-8.49v0h0c-.38-3.12-4.85-5.09-10.18-4.47a14.91,14.91,0,0,0-4.93,1.4A8.16,8.16,0,0,0,64,9h0V9c-.79-2.31-5.9-2-10.31-.47S45,12.86,45.75,15.17v0h0c.07.21.92,2.43,6.23,6.13a25.08,25.08,0,0,1,7.88,9.71q-.78.33-1.53.69a7.28,7.28,0,0,0-.88-2.47c-1.78-3.08-7-3.44-11.53-.8s-6.85,7.3-5.07,10.39a4.69,4.69,0,0,0,.49.68h0a5.68,5.68,0,0,0,2.08,1.73c-.33.28-.66.55-1,.84-1.27-1.58-6.85-8.75-6.66-13.33a12.28,12.28,0,0,0-3.3-9h0c-.32-.3-5.51,2-8.5,4.76s-5.69,8.1-5.55,8.32c.22.58,1.36,2.36,7.59,3.89,6,1.48,12,7.39,13.12,8.56a71,71,0,0,0-6.75,8,6.19,6.19,0,0,0-.57-.3,5.93,5.93,0,0,0-5.59.66,11.16,11.16,0,0,0-3.28,3.19,17.79,17.79,0,0,1-3.86-5.54c-2.6-6.46-6.65-7.58-6.82-7.62h0c-1.06-.42-2.43.11-3.87,1.52a18.48,18.48,0,0,0-3.7,5.6C2.76,55.09,2.44,59,3.73,60.63a.38.38,0,0,0,.11.18c.11.12,2.72,2.76,7.58,1.94a31,31,0,0,1,9.24.11,10.13,10.13,0,0,0,.07,3.07,6.3,6.3,0,0,0,2.41,4.13c-.44,1.07-.85,2.16-1.25,3.25-.89-1.84-3.2-5.69-7.2-6.64-2.89-.68-4.89,3-5.57,4.44A3.84,3.84,0,0,0,6.44,69.8H6.38c-1.48,0-3,2.28-3.15,2.46A18.93,18.93,0,0,0,.62,78.43C-.65,83.72.08,88.12,2.31,88.72h0a5.37,5.37,0,0,0,1.43.16A13.57,13.57,0,0,0,10.2,87c4.43-2.41,10.63.35,10.69.38a.5.5,0,1,0,.41-.91c-.27-.13-6.71-3-11.57-.35A14.19,14.19,0,0,1,4.91,87.8c1.48-1.36,2.87-4,3.69-7.45a18.61,18.61,0,0,0,.49-6.69,9,9,0,0,0-.33-1.44c.11.13.21.23.32.38,5.8,7.9,12.32,9.13,12.59,9.18h.09a.49.49,0,0,0,.49-.41.49.49,0,0,0-.4-.58,11.18,11.18,0,0,1-1.17-.34A84.28,84.28,0,0,1,24,70.55,4.88,4.88,0,0,0,26,71h.09a.55.55,0,0,0,.22,0h0a6.48,6.48,0,0,0,2.35-.6,30.45,30.45,0,0,1,6.18-.82H35a8.25,8.25,0,0,1,6,2.5.52.52,0,0,0,.38.17.54.54,0,0,0,.32-.11.51.51,0,0,0,.06-.71A9.12,9.12,0,0,0,35,68.52h-.11a27,27,0,0,0-4,.37,12.62,12.62,0,0,0,3.15-4.36,11.93,11.93,0,0,0,1-6.79,18.71,18.71,0,0,1,1.85,4.78c.11.41.21.76.31,1.06.59,1.84,7.11,5.38,8.41,6.07a.48.48,0,0,0,.23,0,.5.5,0,0,0,.24-.94c-3.09-1.64-7.59-4.42-7.93-5.49-.1-.28-.19-.62-.29-1a15.81,15.81,0,0,0-4.22-7.89.35.35,0,0,0-.13-.08c-.11-.13-.24-.25-.36-.37A67.4,67.4,0,0,1,44.38,41.77c1.47.73,3.27,1.42,5,2.1l2.31.9c3.17,1.3,2.85,5.33,2.83,5.5a.51.51,0,0,0,.46.55h0a.49.49,0,0,0,.5-.45c0-.2.41-4.95-3.46-6.53-.71-.29-1.51-.59-2.33-.91-1.22-.46-2.55-1-3.77-1.51h.21a12.57,12.57,0,0,0,6.17-1.77,12.25,12.25,0,0,0,5-5.14c-.1.75-.25,1.54-.43,2.38s-.39,1.92-.52,3c-.55,4.27,4.52,8.45,4.73,8.63a.5.5,0,0,0,.32.11.5.5,0,0,0,.32-.89c-.05,0-4.86-4-4.38-7.72.13-1,.32-2,.51-2.9a18.56,18.56,0,0,0,.53-4.32c.6-.27,1.2-.55,1.82-.81a7.49,7.49,0,0,1,.36,1.15.5.5,0,0,0,.49.4h.1a.49.49,0,0,0,.39-.58c-.42-2.09-3.61-8.62-9-12.41A28,28,0,0,1,48,16.72a8,8,0,0,0,1.46.14h.19a20.78,20.78,0,0,0,6.38-1.2c2.93-1,5.78-2.6,7.14-4.23A2.58,2.58,0,0,1,62.7,13h0C61,14.25,60,15.81,60.16,17.42A8.46,8.46,0,0,0,62,22.53c.08,3,2.9,9.48,3,9.76a.5.5,0,0,0,.46.3.45.45,0,0,0,.2,0,.5.5,0,0,0,.26-.66s-.33-.75-.75-1.81c.45-.15.86-.3,1.35-.45.91-.29,1.8-.55,2.68-.8,2.16,3.54,1.29,8.22,1.27,8.28a.51.51,0,0,0,.4.59H71a.49.49,0,0,0,.49-.4c0-.07,1-5.28-1.52-9.19v0a.45.45,0,0,0-.18-.25,8.3,8.3,0,0,0-3-2.67,10.34,10.34,0,0,1-5-5,10.76,10.76,0,0,0,6.67,1.93A16.11,16.11,0,0,0,70.36,22c3.51-.4,6.39-1.82,7.86-3.63a11.12,11.12,0,0,1-2.54,4.81c-1.54,1.93-1.41,5-1.33,5.89a6.73,6.73,0,0,0-2.42,5.78,6.46,6.46,0,0,0,.33,1.38.5.5,0,0,0,0,.21,10.89,10.89,0,0,0,5,6.55A3.36,3.36,0,0,1,79,45.07,5.88,5.88,0,0,1,78.24,49a.5.5,0,0,0,.17.68.5.5,0,0,0,.26.08.52.52,0,0,0,.43-.24A6.89,6.89,0,0,0,80,44.82a4.32,4.32,0,0,0-2.19-2.7,9.37,9.37,0,0,1-3-2.69,2.61,2.61,0,0,0,.27.19,9.32,9.32,0,0,0,5.07,1.43c.4,0,.81,0,1.21-.07a9.81,9.81,0,0,0,5.27-2.25,25,25,0,0,1-1.56,2,17.37,17.37,0,0,0-1.3,1.67c-1.51,2.32,2.51,6.31,3,6.76a.52.52,0,0,0,.35.14.48.48,0,0,0,.36-.16.49.49,0,0,0,0-.7c-1-1-3.73-4.11-2.84-5.5a17.51,17.51,0,0,1,1.24-1.57c1.48-1.76,3.34-4,3.34-7.28a.24.24,0,0,0,0-.08,5.53,5.53,0,0,0,0-1.15c-.45-3.93-4.68-6.68-9.43-6.13a10,10,0,0,0-4.41,1.61c0-.28,0-.61,0-1A75.17,75.17,0,0,1,85,26.1c-.15.22-.25.35-.25.36a.5.5,0,0,0,.79.61c.17-.22,4.17-5.49,3.27-10.61a13.66,13.66,0,0,0-4.08-7.25A8.27,8.27,0,0,1,83.37,7.5a14,14,0,0,1-.92-3.28s0-.29-.06-.32c2,1,5.87,1.47,8.26,1.55l1.31,0A26.86,26.86,0,0,0,97.22,5a8.78,8.78,0,0,0,1.94-.6A5.77,5.77,0,0,1,97.8,7.24a9.66,9.66,0,0,0-2.88.95A5.57,5.57,0,0,0,92.22,11a.43.43,0,0,0-.18.22,11.54,11.54,0,0,0,.31,7c0,2.79,2.08,7.53,2.17,7.73a.51.51,0,0,0,.46.3.45.45,0,0,0,.2,0,.51.51,0,0,0,.26-.66s-.58-1.32-1.12-2.92c1,1.92,1.61,3.25,1,5a34.88,34.88,0,0,1-2.46,5.43.5.5,0,0,0,.18.68.47.47,0,0,0,.25.07.51.51,0,0,0,.44-.25A37.35,37.35,0,0,0,96.25,28c.79-2.28-.08-4-1.18-6.09a30.69,30.69,0,0,1-1.58-3.44,12.89,12.89,0,0,1-.79-3.51,6.65,6.65,0,0,0,1.43,1.55,11,11,0,0,0,5.8,2.19c.41,0,.82.06,1.22.06A10.43,10.43,0,0,0,106,17.61a6.36,6.36,0,0,0,1.28-.86A6,6,0,0,1,105,19a14.51,14.51,0,0,0-2.16,1.64c-6.12,5.82-2.11,12.77-2.07,12.84a.49.49,0,0,0,.43.24.47.47,0,0,0,.25-.07.49.49,0,0,0,.18-.68,10.06,10.06,0,0,1-1.11-6.11c1.84.29,3.68.68,5.5,1.13a5.4,5.4,0,0,0-2.4,2.83,5.53,5.53,0,0,0,.28,4.14c.26.82,1,3.45,1.71,6.38.73,3.24-4.18,7.13-4.23,7.17a.5.5,0,0,0-.09.7.48.48,0,0,0,.7.09c.23-.17,5.47-4.32,4.59-8.18-.32-1.42-.67-2.71-1-3.77a10.54,10.54,0,0,0,4,2.44,10.88,10.88,0,0,0,3.6.63,9.1,9.1,0,0,0,2.68-.39l.23-.09a23.55,23.55,0,0,1-4.81,3.29,3.34,3.34,0,0,0-1.82,2.06,5.41,5.41,0,0,0,.63,3.79.5.5,0,0,0,.43.24.58.58,0,0,0,.26-.06.51.51,0,0,0,.17-.69,4.46,4.46,0,0,1-.53-3,2.33,2.33,0,0,1,1.31-1.44c2.89-1.45,7.29-4.85,7.82-7a5,5,0,0,0,.27-.63,5.37,5.37,0,0,0-.05-3.54c1.33.64,2.64,1.32,3.92,2a.42.42,0,0,0,.24.07.5.5,0,0,0,.44-.25.51.51,0,0,0-.19-.69c-1.58-.89-3.22-1.73-4.87-2.5a.49.49,0,0,0-.2-.05,9,9,0,0,0-2-2.23.54.54,0,0,0,.1-.2C117.22,29,118.91,21.5,123.06,19.31ZM5.59,51.22a17.61,17.61,0,0,1,3.49-5.3,4,4,0,0,1,2.43-1.38,1,1,0,0,1,.42.09c.66.29,1,1.41.94,3a17.39,17.39,0,0,1-1.62,6.13c-2.07,4.62-5,7.19-6.34,6.59S3.52,55.84,5.59,51.22Zm5.66,10.54a8.43,8.43,0,0,1-5-.52c1.93-.69,4.2-3.34,5.87-7.08a18.56,18.56,0,0,0,1.71-6.49,7.26,7.26,0,0,0-.18-2.12,13.47,13.47,0,0,1,4.47,6.15,18.47,18.47,0,0,0,4.24,6,12.34,12.34,0,0,0-.68,1.3,13.37,13.37,0,0,0-.91,2.86A31.7,31.7,0,0,0,11.25,61.76ZM7.62,80.12c-1.18,4.93-3.59,8-5,7.64s-2.19-4.16-1-9.09a17.39,17.39,0,0,1,2.45-5.84C4.87,71.66,5.73,71,6.4,71a.91.91,0,0,1,.23,0c.7.17,1.25,1.2,1.47,2.77A17.51,17.51,0,0,1,7.62,80.12ZM9.89,72l-.05,0c.31-.73,2.19-4.87,4.62-4.31,4.67,1.11,6.91,7,6.93,7l0,0c-.62,1.8-1.18,3.62-1.67,5.43A23.64,23.64,0,0,1,9.89,72Zm23.25-7.88A11,11,0,0,1,29,69c-.22.13-.44.24-.65.35-1.13.26-1.95.49-2.24.58a3.94,3.94,0,0,1-1.77-.34l-.55-.3a5.29,5.29,0,0,1-2.12-3.57,11.73,11.73,0,0,1,5-11.24,5.87,5.87,0,0,1,3-.94,4,4,0,0,1,1.64.34,5,5,0,0,1,2.66,3.88A11,11,0,0,1,33.14,64.12ZM26.25,35.74c-4.56-1.12-6.13-2.34-6.64-2.92,1-.53,2.84-2,6.7-5.62C30,23.73,31.61,22,32.25,21a11.55,11.55,0,0,1,2.54,7.75c-.21,5,5.66,12.49,6.92,14-.63.59-1.25,1.18-1.87,1.79C38.61,43.29,32.57,37.3,26.25,35.74Zm25.64,3c-4.1,2.37-8.66,2.18-10.17-.43s.61-6.65,4.71-9a11.66,11.66,0,0,1,5.7-1.66,4.92,4.92,0,0,1,4.47,2.09C58.1,32.38,56,36.43,51.89,38.79Zm3.85-24.07a19.3,19.3,0,0,1-6.24,1.14c-1.55,0-2.6-.39-2.8-1-.42-1.24,2.59-3.81,7.25-5.4A19.62,19.62,0,0,1,60,8.34c1.63,0,2.74.36,3,1v0C63.36,10.6,60.36,13.14,55.74,14.72ZM66.26,26.06A7.41,7.41,0,0,1,68.58,28c-.78.23-1.57.45-2.37.71l-1.41.47a37.45,37.45,0,0,1-1.65-5.3A13.37,13.37,0,0,0,66.26,26.06Zm4-5c-4.64.54-8.79-1.13-9.08-3.63s3.38-5.06,8-5.6a14.74,14.74,0,0,1,1.74-.1c3.89,0,7.09,1.54,7.34,3.73C78.54,17.91,74.87,20.47,70.24,21Zm9.59,6.71a8.13,8.13,0,0,1,1.1-.07c3.73,0,6.87,2.23,7.23,5.32.39,3.38-2.71,6.53-6.91,7a8.61,8.61,0,0,1-5.63-1.2,5.56,5.56,0,0,1-2.69-4.05C72.53,31.35,75.63,28.2,79.83,27.72ZM84,9.89a12.9,12.9,0,0,1,3.83,6.74c.56,3.2-1.06,6.58-2.16,8.43-.54,0-1.08.07-1.61.11,1.12-2.68.11-8.16-2-10.06C79.34,12.65,76.67,9.05,77.29,7c.54-1.8,3.18-2.18,4.23-2.26a14.73,14.73,0,0,0,.94,3.21A8.61,8.61,0,0,0,84,9.89ZM97,4a28.22,28.22,0,0,1-6.34.42c-5.67-.2-8.55-1.5-8.54-2,0-.23.59-.56,1.69-.85a.8.8,0,0,0-.14.39c0,1.15,3.1,2.2,7,2.34s7.11-.7,7.15-1.85a.75.75,0,0,0-.12-.4,3.64,3.64,0,0,1,1.55.81,2.43,2.43,0,0,1,0,.27A4.44,4.44,0,0,1,97,4Zm8.56,12.7a10.77,10.77,0,0,1-10.82-1,4.1,4.1,0,0,1-1.82-3.51,4.12,4.12,0,0,1,2.44-3.11,9.53,9.53,0,0,1,4.42-1,10.68,10.68,0,0,1,1.13.05,10,10,0,0,1,5.28,2A4.12,4.12,0,0,1,108,13.62h0A4.12,4.12,0,0,1,105.58,16.73ZM116.12,6a9.69,9.69,0,0,1,1.1-.07,12.7,12.7,0,0,1,4,.7c3.92,1.31,6,3.74,5.55,5.18s-3.64,2.11-7.55.8a11.64,11.64,0,0,1-4.43-2.56,3.68,3.68,0,0,1-1.16-2l.06-.71C113.92,6.71,114.81,6.2,116.12,6Zm2.73,30.13a4.84,4.84,0,0,1-3.31,2.91,9,9,0,0,1-5.66-.22c-3.94-1.38-6.33-4.83-5.33-7.7.72-2.06,3-3.26,5.7-3.26a9.88,9.88,0,0,1,3.27.57C117.46,29.83,119.85,33.28,118.85,36.15Zm-5-8.64c-.26-.09-.51-.17-.77-.24a12.79,12.79,0,0,0,1.35-9.53,32.31,32.31,0,0,1-.89-7.54,5.55,5.55,0,0,0,.52.58,12.77,12.77,0,0,0,4.81,2.8,14,14,0,0,0,4.29.75,6.5,6.5,0,0,0,3.32-.77,7.58,7.58,0,0,1-3.89,4.86c-4.23,2.24-6,9-6.32,10.29A11.15,11.15,0,0,0,113.85,27.51Z"/></g></g></svg>