<?xml version="1.0" encoding="utf-8"?>
<!-- Generator: Adobe Illustrator 24.0.3, SVG Export Plug-In . SVG Version: 6.00 Build 0)  -->
<svg version="1.1" id="Layer_13" xmlns="http://www.w3.org/2000/svg" xmlns:xlink="http://www.w3.org/1999/xlink" x="0px" y="0px"
	 viewBox="0 0 100 100" style="enable-background:new 0 0 100 100;" xml:space="preserve">
<style type="text/css">
	.st0{fill:#006064;}
</style>
<title>Artboard 1</title>
<path class="st0" d="M74.3,53.1c0-0.6-0.5-1-1-1s-1,0.5-1,1c0,0.7-0.6,1.3-1.3,1.3c-0.7,0-1.3-0.6-1.3-1.3c0,0,0,0,0,0
	c0-0.6-0.5-1-1-1s-1,0.5-1,1c0,1.9,1.5,3.4,3.4,3.4S74.3,55,74.3,53.1z"/>
<path class="st0" d="M83,52.2l-2.9-0.9c-0.4-0.1-0.7-0.4-0.8-0.8c-0.6-2-1.6-3.8-2.8-5.5c-0.6-0.8-1.2-1.5-1.8-2.2
	c0.4-1.9,0.6-3.9,0.6-5.9c0-2.7-0.6-4.2-1.6-4.8c-0.6-0.3-2.3-1.2-11.5,3.1c-0.2,0.1-0.4,0.2-0.6,0.4c-0.6-0.2-1.3-0.3-1.9-0.5h-0.2
	c0.8-1.7,1.2-3.4,1.3-5.3c0-0.6-0.4-1.1-1-1.1c-0.6,0-1.1,0.4-1.1,1c-0.2,4.9-3.3,9.1-7.9,10.8c-2.8-0.4-5.6-0.4-8.4,0
	c-4.8-1.8-7.9-6.3-7.9-11.4c0-6.7,5.5-12.1,12.2-12.1c4.6,0,8.7,2.6,10.8,6.6c0.3,0.5,0.9,0.7,1.4,0.5s0.7-0.9,0.5-1.4
	c-0.7-1.4-1.6-2.6-2.6-3.6c-5.3-5.8-14.3-6.2-20-0.9s-6.2,14.3-0.9,20c0.3,0.3,0.6,0.6,0.9,0.9c0.8,0.8,1.6,1.4,2.5,2l0,0
	c-0.7,0.2-1.3,0.3-1.9,0.6c-0.6,0.2-0.9,0.8-0.7,1.3c0.2,0.6,0.8,0.9,1.3,0.7c5.7-1.9,11.9-1.9,17.6,0c0.1,0,0.2,0,0.3,0
	c0.6,0.1,1.1-0.3,1.2-0.8s-0.3-1.1-0.8-1.2l0,0c-0.6-0.2-1.3-0.4-1.9-0.6l0,0c0.9-0.6,1.7-1.2,2.5-2c0.7-0.7,1.3-1.5,1.8-2.3
	l0.8,0.2l1.1,0.3c0,0,0,0.1,0,0.1c-0.5,2.1-0.5,4.3,0.1,6.3c0.5,1.6,1.4,2.9,2.8,3.9c1.5,1.1,3.3,1.6,5.1,1.6c1.2,0,2.3-0.2,3.3-0.8
	c1.2-0.8,2-2.1,2.4-3.5c0.3,0.3,0.6,0.7,0.9,1.1c1.1,1.5,1.9,3.1,2.5,4.9c0.3,1,1.1,1.8,2.1,2.2l2.9,0.9c0.8,0.3,1.3,1,1.2,1.8v4.8
	c0,0.8-0.5,1.5-1.3,1.8l-4.7,1.5c-0.8,0.2-1.4,0.8-1.8,1.5c-2.1,3.4-5.1,6.1-8.7,7.9c-0.4,0.2-0.8,0.7-0.9,1.2l-1.5,8
	c0,0.2-0.2,0.4-0.5,0.4h-4.9c-0.2,0-0.4-0.2-0.5-0.4l-0.8-4.4c-0.2-0.9-1-1.4-1.9-1.3c-2.1,0.3-4.3,0.5-6.5,0.5
	c-1.6,0-3.2-0.1-4.8-0.3c-0.9-0.1-1.6,0.5-1.8,1.3l-0.8,4.2c0,0.2-0.2,0.4-0.5,0.4h-4.9c-0.2,0-0.4-0.2-0.5-0.4L35.2,75
	c-0.1-0.5-0.4-0.9-0.8-1.1c-6.6-3.5-10.1-9.4-10.1-17.1c-0.1-3.5,0.8-7.1,2.5-10.2c1.6-2.8,4-5,6.8-6.6c0.5-0.3,0.7-0.9,0.4-1.4
	c-0.3-0.5-0.9-0.7-1.4-0.4c0,0,0,0-0.1,0c-5.5,3.1-9.2,8.5-10,14.8l0,0h-0.3c0-0.7-0.1-1.4-0.4-2.1c-0.5-1.4-1.7-2.5-3.2-2.8
	c-1.1-0.1-2.1,0.3-2.7,1.2c-0.8,0.8-1,2-0.5,3c0.5,1.1,1.9,1.8,4.1,2.3c-0.1,0.1-0.1,0.2-0.2,0.3c-0.9,1.2-2.3,2-3.9,2
	c-0.6,0-1,0.4-1.1,1l0,0c0,0.6,0.4,1,1,1.1h0.2c1.3,0,3.3-0.5,5.3-2.9c0.3-0.3,0.6-0.7,0.8-1.1l0.6,0.1l0,0c0,0.6,0,1.1,0,1.7
	c-0.1,4,1,8,3.1,11.4c2,3.1,4.7,5.7,8,7.4l1.4,7.3c0.2,1.2,1.3,2.1,2.5,2.1H42c1.2,0,2.3-0.9,2.5-2.1l0.7-3.8
	c1.5,0.2,3.1,0.2,4.6,0.2c2.1,0,4.3-0.1,6.4-0.4l0.8,4c0.2,1.2,1.3,2.1,2.5,2.1h4.9c1.2,0,2.3-0.9,2.5-2.1l1.5-7.8
	c3.9-1.9,7.1-4.9,9.3-8.6c0.1-0.2,0.4-0.4,0.6-0.5l4.7-1.5c1.6-0.5,2.7-2,2.7-3.7V56C85.8,54.3,84.6,52.7,83,52.2z M73.1,39.8
	c-0.4,3.4-1.5,6.3-2.6,7c-2,0.9-4.4,0.6-6.2-0.7c-2.1-1.6-2.8-4.4-2-8.1l0,0c0.1-0.4,0.3-0.7,0.7-0.9c5.2-2.4,8.2-3.2,9.3-3.2
	c0.1,0,0.3,0,0.4,0C73,34.4,73.5,36.4,73.1,39.8z M17.2,51.4c-0.1-0.2,0.1-0.6,0.3-0.8c0.1-0.2,0.4-0.4,0.7-0.4h0.1
	c0.7,0.2,1.3,0.8,1.5,1.5c0.1,0.3,0.2,0.7,0.2,1C18.6,52.3,17.5,51.9,17.2,51.4z"/>
</svg>
