<svg id="Layer_13" data-name="Layer 13" xmlns="http://www.w3.org/2000/svg" viewBox="0 0 100 100"><defs><style>.cls-1{fill:#fff;}</style></defs><title>Artboard 1</title><path class="cls-1" d="M74.27,53.08a1,1,0,1,0-2.08,0,1.32,1.32,0,1,1-2.64,0,1,1,0,1,0-2.08,0,3.4,3.4,0,1,0,6.8,0Z"/><path class="cls-1" d="M83,52.21l-2.93-.94a1.24,1.24,0,0,1-.79-.8A18.93,18.93,0,0,0,76.5,45a19.85,19.85,0,0,0-1.84-2.18,25.89,25.89,0,0,0,.63-5.89c0-2.65-.57-4.2-1.62-4.75-.56-.29-2.27-1.19-11.54,3.06a3.46,3.46,0,0,0-.62.36c-.62-.17-1.26-.32-1.91-.46l-.23,0a14.11,14.11,0,0,0,1.27-5.26,1,1,0,0,0-2.08-.1,12.09,12.09,0,0,1-7.91,10.82,30.09,30.09,0,0,0-8.37,0,12.12,12.12,0,0,1-7.92-11.36,12.12,12.12,0,0,1,22.93-5.45,1,1,0,0,0,1.85-.93,13.72,13.72,0,0,0-2.64-3.65A14.18,14.18,0,1,0,36.44,39.22a14.34,14.34,0,0,0,2.5,2h0c-.65.16-1.29.35-1.92.56a1,1,0,1,0,.66,2,27.82,27.82,0,0,1,17.58,0,1.26,1.26,0,0,0,.33.05,1,1,0,0,0,.33-2c-.64-.21-1.28-.4-1.92-.56h0a14.34,14.34,0,0,0,2.5-2A14.17,14.17,0,0,0,58.31,37l.85.17,1.12.26s0,.09,0,.14a12.48,12.48,0,0,0,.1,6.32,7.58,7.58,0,0,0,2.76,3.88,8.76,8.76,0,0,0,5.11,1.62,6.85,6.85,0,0,0,3.32-.77A6.26,6.26,0,0,0,74,45.15c.3.35.59.71.86,1.08a16.87,16.87,0,0,1,2.46,4.86,3.28,3.28,0,0,0,2.14,2.16l2.92.94A1.83,1.83,0,0,1,83.63,56V60.8a1.85,1.85,0,0,1-1.28,1.76l-4.71,1.51a3.21,3.21,0,0,0-1.8,1.46,20.68,20.68,0,0,1-8.65,7.87,1.64,1.64,0,0,0-.86,1.15l-1.51,8a.46.46,0,0,1-.46.38H59.45a.46.46,0,0,1-.45-.38l-.84-4.42a1.64,1.64,0,0,0-1.86-1.31,43.32,43.32,0,0,1-6.47.48A41.2,41.2,0,0,1,45.06,77a1.64,1.64,0,0,0-1.8,1.32l-.79,4.2a.48.48,0,0,1-.46.38H37.1a.46.46,0,0,1-.46-.38L35.19,75a1.66,1.66,0,0,0-.84-1.14c-6.64-3.54-10.14-9.45-10.14-17.1a19.93,19.93,0,0,1,2.51-10.16A18.09,18.09,0,0,1,33.48,40a1.05,1.05,0,0,0,.38-1.42,1,1,0,0,0-1.42-.38A19.77,19.77,0,0,0,22.4,53h0l-.3,0a5.38,5.38,0,0,0-.38-2.07,4.29,4.29,0,0,0-3.16-2.76,2.87,2.87,0,0,0-2.71,1.21,2.73,2.73,0,0,0-.52,3c.53,1.08,1.87,1.84,4.11,2.32a1.86,1.86,0,0,1-.21.28A5.1,5.1,0,0,1,15.35,57,1.08,1.08,0,0,0,14.29,58h0a1.08,1.08,0,0,0,1,1.08h.23c1.28,0,3.33-.47,5.3-2.94A6.1,6.1,0,0,0,21.62,55l.56.06h0c0,.56-.05,1.13-.05,1.72A21.41,21.41,0,0,0,25.2,68.22a21.08,21.08,0,0,0,8,7.37l1.42,7.34A2.54,2.54,0,0,0,37.1,85H42a2.55,2.55,0,0,0,2.5-2.07l.72-3.8a43.16,43.16,0,0,0,4.6.24,46.22,46.22,0,0,0,6.36-.44l.76,4A2.55,2.55,0,0,0,59.45,85h4.91a2.54,2.54,0,0,0,2.5-2.07l1.47-7.79a22.6,22.6,0,0,0,9.31-8.57,1.14,1.14,0,0,1,.63-.52L83,64.54a3.92,3.92,0,0,0,2.72-3.74V56A3.9,3.9,0,0,0,83,52.21ZM73.06,39.85c-.4,3.43-1.48,6.35-2.55,7a6.35,6.35,0,0,1-6.18-.72c-2.13-1.56-2.84-4.36-2-8.09h0a1.22,1.22,0,0,1,.71-.87C68.2,34.74,71.2,34,72.31,34a1,1,0,0,1,.38.05C73,34.37,73.46,36.4,73.06,39.85ZM17.2,51.4c-.1-.23.15-.62.31-.83a.83.83,0,0,1,.67-.41h.1a2.3,2.3,0,0,1,1.51,1.47,3.21,3.21,0,0,1,.21,1C18.57,52.33,17.45,51.9,17.2,51.4Z"/></svg>