<svg xmlns="http://www.w3.org/2000/svg" viewBox="0 0 51.02 50"><defs><style>.cls-1{fill:#fff;}</style></defs><title>Asset 11</title><g id="Layer_2" data-name="Layer 2"><g id="Layer_1-2" data-name="Layer 1"><path class="cls-1" d="M42.1,26.46a.74.74,0,0,0-.74.74.95.95,0,0,1-1.89,0,.74.74,0,0,0-1.48,0,2.43,2.43,0,1,0,4.85,0A.74.74,0,0,0,42.1,26.46Z"/><path class="cls-1" d="M49.07,26.58,47,25.91a.86.86,0,0,1-.56-.57,13.47,13.47,0,0,0-2-3.91,16,16,0,0,0-1.32-1.56,18.38,18.38,0,0,0,.46-4.2c0-1.9-.41-3-1.16-3.4-.4-.21-1.63-.85-8.25,2.18a2.47,2.47,0,0,0-.44.27c-.44-.12-.9-.24-1.36-.33l-.17,0a10.08,10.08,0,0,0,.91-3.76.74.74,0,0,0-1.48-.07,8.64,8.64,0,0,1-2.53,5.73,8.5,8.5,0,0,1-3.12,2,21.39,21.39,0,0,0-6,0A8.65,8.65,0,0,1,16.87,4,8.68,8.68,0,0,1,30.72,6.24.74.74,0,1,0,32,5.58,9.89,9.89,0,0,0,30.15,3a10.14,10.14,0,0,0-17.3,7.16,10.18,10.18,0,0,0,4.76,8.6h0c-.46.12-.92.25-1.37.4a.74.74,0,0,0,.47,1.41,20,20,0,0,1,12.56,0,.59.59,0,0,0,.23,0,.76.76,0,0,0,.71-.51.74.74,0,0,0-.47-.94c-.46-.15-.91-.29-1.38-.4h0a10.12,10.12,0,0,0,1.79-1.43,10.38,10.38,0,0,0,1.3-1.59l.61.13.79.18a.36.36,0,0,0,0,.1,8.76,8.76,0,0,0,.07,4.52,5.28,5.28,0,0,0,2,2.76,6.22,6.22,0,0,0,3.65,1.16A4.91,4.91,0,0,0,40.89,24a4.52,4.52,0,0,0,1.74-2.48c.22.25.42.5.61.76A12,12,0,0,1,45,25.78a2.35,2.35,0,0,0,1.53,1.54l2.09.67a1.31,1.31,0,0,1,.91,1.26v3.46A1.31,1.31,0,0,1,48.62,34l-3.37,1.08a2.27,2.27,0,0,0-1.28,1,14.83,14.83,0,0,1-6.18,5.62,1.13,1.13,0,0,0-.61.82L36.1,48.24a.33.33,0,0,1-.33.27H32.26a.33.33,0,0,1-.33-.27l-.59-3.15A1.17,1.17,0,0,0,30,44.15a30.83,30.83,0,0,1-4.62.34A29.22,29.22,0,0,1,22,44.3a1.18,1.18,0,0,0-1.28,1l-.57,3a.33.33,0,0,1-.33.27H16.29a.32.32,0,0,1-.32-.27l-1-5.39a1.19,1.19,0,0,0-.6-.81A13.11,13.11,0,0,1,7.09,29.82a14.31,14.31,0,0,1,1.79-7.26,12.94,12.94,0,0,1,4.83-4.71A.75.75,0,0,0,13,16.56,14.18,14.18,0,0,0,5.79,27.12h0l-.21,0a3.87,3.87,0,0,0-.27-1.48,3.06,3.06,0,0,0-2.26-2,2.06,2.06,0,0,0-1.93.86,2,2,0,0,0-.37,2.14c.37.77,1.33,1.31,2.93,1.65a1.3,1.3,0,0,1-.15.2A3.66,3.66,0,0,1,.76,30a.77.77,0,0,0-.76.77H0a.77.77,0,0,0,.74.77H.91a4.85,4.85,0,0,0,3.79-2.1,4.25,4.25,0,0,0,.54-.88l.4,0h0c0,.4,0,.81,0,1.23A15.31,15.31,0,0,0,7.79,38a15.09,15.09,0,0,0,5.71,5.27l1,5.24A1.81,1.81,0,0,0,16.29,50H19.8a1.83,1.83,0,0,0,1.79-1.48l.51-2.71a32.19,32.19,0,0,0,3.29.17,32.56,32.56,0,0,0,4.54-.32l.55,2.86A1.81,1.81,0,0,0,32.26,50h3.51a1.83,1.83,0,0,0,1.79-1.48l1-5.56a16.18,16.18,0,0,0,6.64-6.13.85.85,0,0,1,.45-.37l3.37-1.08a2.78,2.78,0,0,0,2-2.67V29.25A2.78,2.78,0,0,0,49.07,26.58ZM42,17.75c-.29,2.45-1,4.54-1.82,5a4.54,4.54,0,0,1-4.42-.51c-1.52-1.12-2-3.11-1.46-5.78h0a.92.92,0,0,1,.51-.63c3.72-1.7,5.86-2.25,6.66-2.25a.79.79,0,0,1,.26,0C42,13.84,42.27,15.29,42,17.75ZM2.08,26c-.07-.16.11-.44.22-.59a.6.6,0,0,1,.48-.29h.08a1.62,1.62,0,0,1,1.07,1.05,2.1,2.1,0,0,1,.15.7A3.31,3.31,0,0,1,2.08,26Z"/><path class="cls-1" d="M23.71,9.28V6.63c.91.06,1.25.48,1.57.48s.57-.5.57-.75c0-.64-1.25-.91-2.14-.94V5.07c0-.16-.2-.3-.39-.3s-.38.14-.38.3v.38a2.42,2.42,0,0,0-2.49,2.43c0,1.68,1.31,2.15,2.49,2.57v3.07c-1.34-.1-1.69-1-2.12-1s-.61.44-.61.75c0,.64,1.1,1.52,2.73,1.54h0v.41c0,.16.15.3.38.3s.39-.14.39-.3v-.45a2.53,2.53,0,0,0,2.38-2.69C26.09,10.28,24.85,9.7,23.71,9.28ZM23,9c-.69-.26-1.25-.53-1.25-1.28s.52-1,1.25-1.1Zm.62,4.47V10.74a1.52,1.52,0,0,1,1.15,1.46A1.24,1.24,0,0,1,23.63,13.5Z"/></g></g></svg>