<svg id="Time" xmlns="http://www.w3.org/2000/svg" viewBox="0 0 100 100"><defs><style>.cls-1{fill:#fff;}</style></defs><title>Artboard 1</title><path class="cls-1" d="M68.67,78H67.5V76.51a31.15,31.15,0,0,0-9.19-22.18l-1.17-1.17a4.47,4.47,0,0,1,0-6.32l1.17-1.17A31.15,31.15,0,0,0,67.5,23.49V22h1.17a3.5,3.5,0,0,0,0-7H31.33a3.5,3.5,0,0,0,0,7H32.5v1.49a31.15,31.15,0,0,0,9.19,22.18l1.17,1.17a4.47,4.47,0,0,1,0,6.32l-1.17,1.17A31.15,31.15,0,0,0,32.5,76.51V78H31.33a3.5,3.5,0,0,0,0,7H68.67a3.5,3.5,0,1,0,0-7ZM30.17,18.5a1.17,1.17,0,0,1,1.16-1.17H68.67a1.17,1.17,0,0,1,0,2.34H31.33A1.17,1.17,0,0,1,30.17,18.5Zm4.66,58A28.84,28.84,0,0,1,43.33,56l1.18-1.17a6.81,6.81,0,0,0,0-9.62L43.34,44a28.81,28.81,0,0,1-8.51-20.53V22H65.17v1.49A28.81,28.81,0,0,1,56.66,44l-1.17,1.17a6.81,6.81,0,0,0,0,9.62L56.66,56a28.81,28.81,0,0,1,8.51,20.53V78H34.83Zm33.84,6.16H31.33a1.17,1.17,0,0,1,0-2.34H68.67a1.17,1.17,0,0,1,0,2.34Z"/><path class="cls-1" d="M50,50a1.17,1.17,0,0,0,1.17-1.17,9.06,9.06,0,0,1,2.67-6.45L55,41.2l1.08-1c3-2.83,4.29-4.21,3.77-5.52a1.67,1.67,0,0,0-1.69-1c-6.07,0-8.77-1.3-9.84-2.08a5,5,0,0,0-4.59-.67,4.62,4.62,0,0,0-3,3.17,4,4,0,0,0-.12.64,1.17,1.17,0,0,0,.15.68A25.71,25.71,0,0,0,45,41.2l1.17,1.18a9.06,9.06,0,0,1,2.67,6.45A1.17,1.17,0,0,0,50,50ZM46.64,39.55a22.09,22.09,0,0,1-3.58-4.91,2.28,2.28,0,0,1,1.46-1.52,2.66,2.66,0,0,1,2.44.36c1.49,1.08,4.42,2.35,10,2.5-.73.82-1.86,1.88-2.51,2.49-.43.41-.83.78-1.13,1.08l-1.17,1.18A11.25,11.25,0,0,0,50,43.78a11.47,11.47,0,0,0-2.19-3.05Z"/><path class="cls-1" d="M58.45,66.46A7.81,7.81,0,0,0,52.77,64H47.23a7.81,7.81,0,0,0-5.68,2.46l-.74.78c-1.75,1.82-3.27,3.39-3.56,7.17a1.15,1.15,0,0,0,.3.88,1.18,1.18,0,0,0,.86.38H61.59a1.2,1.2,0,0,0,.86-.38,1.15,1.15,0,0,0,.3-.88c-.29-3.78-1.81-5.35-3.56-7.17ZM39.74,73.33c.39-2,1.34-3,2.75-4.47l.76-.8a5.47,5.47,0,0,1,4-1.73h5.54a5.47,5.47,0,0,1,4,1.73l.76.8c1.41,1.46,2.36,2.44,2.75,4.47Z"/><path class="cls-1" d="M51.13,53.5a1.17,1.17,0,1,0-2.33,0v1.17a1.17,1.17,0,0,0,2.33,0Z"/><path class="cls-1" d="M50,58.17a1.16,1.16,0,0,0-1.16,1.16V60.5a1.17,1.17,0,1,0,2.33,0V59.33A1.16,1.16,0,0,0,50,58.17Z"/></svg>