<?xml version="1.0" encoding="utf-8"?>
<!-- Generator: Adobe Illustrator 24.0.3, SVG Export Plug-In . SVG Version: 6.00 Build 0)  -->
<svg version="1.1" id="Time" xmlns="http://www.w3.org/2000/svg" xmlns:xlink="http://www.w3.org/1999/xlink" x="0px" y="0px"
	 viewBox="0 0 100 100" style="enable-background:new 0 0 100 100;" xml:space="preserve">
<style type="text/css">
	.st0{fill:#006064;}
</style>
<title>Artboard 1</title>
<path class="st0" d="M68.7,78h-1.2v-1.5c0-8.3-3.3-16.3-9.2-22.2l-1.2-1.2c-1.7-1.7-1.7-4.6,0-6.3l1.2-1.2
	c5.9-5.9,9.2-13.9,9.2-22.2V22h1.2c1.9,0,3.5-1.6,3.5-3.5S70.6,15,68.7,15H31.3c-1.9,0-3.5,1.6-3.5,3.5s1.6,3.5,3.5,3.5h1.2v1.5
	c0,8.3,3.3,16.3,9.2,22.2l1.2,1.2c1.7,1.7,1.7,4.6,0,6.3l-1.2,1.2c-5.9,5.9-9.2,13.9-9.2,22.2V78h-1.2c-1.9,0-3.5,1.6-3.5,3.5
	s1.6,3.5,3.5,3.5h37.3c1.9,0,3.5-1.6,3.5-3.5S70.6,78,68.7,78z M30.2,18.5c0-0.6,0.5-1.2,1.2-1.2h37.3c0.6,0,1.2,0.5,1.2,1.2
	s-0.5,1.2-1.2,1.2H31.3C30.7,19.7,30.2,19.1,30.2,18.5z M34.8,76.5c0-7.7,3-15.1,8.5-20.5l1.2-1.2c2.7-2.7,2.7-7,0-9.6L43.3,44
	c-5.5-5.4-8.5-12.8-8.5-20.5V22h30.3v1.5c0,7.7-3,15.1-8.5,20.5l-1.2,1.2c-2.7,2.7-2.7,7,0,9.6l1.2,1.2c5.5,5.4,8.5,12.8,8.5,20.5
	V78H34.8V76.5z M68.7,82.7H31.3c-0.6,0-1.2-0.5-1.2-1.2c0-0.6,0.5-1.2,1.2-1.2h37.3c0.6,0,1.2,0.5,1.2,1.2
	C69.8,82.1,69.3,82.7,68.7,82.7z"/>
<path class="st0" d="M50,50c0.6,0,1.2-0.5,1.2-1.2c0-2.4,1-4.7,2.7-6.5l1.2-1.2l1.1-1c3-2.8,4.3-4.2,3.8-5.5c-0.3-0.7-1-1.1-1.7-1
	c-6.1,0-8.8-1.3-9.8-2.1c-1.3-1-3-1.2-4.6-0.7c-1.5,0.5-2.6,1.7-3,3.2c-0.1,0.2-0.1,0.4-0.1,0.6c0,0.2,0,0.5,0.2,0.7
	c1.1,2.1,2.6,4.1,4.2,5.8l1.2,1.2c1.7,1.7,2.7,4,2.7,6.5C48.8,49.5,49.4,50,50,50z M46.6,39.5c-1.4-1.5-2.6-3.1-3.6-4.9
	c0.2-0.7,0.8-1.3,1.5-1.5c0.8-0.3,1.7-0.2,2.4,0.4c1.5,1.1,4.4,2.3,10,2.5c-0.7,0.8-1.9,1.9-2.5,2.5c-0.4,0.4-0.8,0.8-1.1,1.1
	l-1.2,1.2c-0.9,0.9-1.6,1.9-2.1,3c-0.6-1.1-1.3-2.2-2.2-3L46.6,39.5z"/>
<path class="st0" d="M58.5,66.5C57,64.9,54.9,64,52.8,64h-5.5c-2.2,0-4.2,0.9-5.7,2.5l-0.7,0.8c-1.8,1.8-3.3,3.4-3.6,7.2
	c0,0.3,0.1,0.6,0.3,0.9c0.2,0.2,0.5,0.4,0.9,0.4h23.2c0.3,0,0.6-0.1,0.9-0.4c0.2-0.2,0.3-0.6,0.3-0.9c-0.3-3.8-1.8-5.3-3.6-7.2
	L58.5,66.5z M39.7,73.3c0.4-2,1.3-3,2.8-4.5l0.8-0.8c1-1.1,2.5-1.7,4-1.7h5.5c1.5,0,3,0.6,4,1.7l0.8,0.8c1.4,1.5,2.4,2.4,2.8,4.5
	H39.7z"/>
<path class="st0" d="M51.1,53.5c0.1-0.6-0.4-1.2-1.1-1.3c-0.6-0.1-1.2,0.4-1.3,1.1c0,0.1,0,0.1,0,0.2v1.2c0.1,0.6,0.6,1.1,1.3,1.1
	c0.6-0.1,1-0.5,1.1-1.1L51.1,53.5z"/>
<path class="st0" d="M50,58.2c-0.6,0-1.2,0.5-1.2,1.2v1.2c-0.1,0.6,0.4,1.2,1.1,1.3c0.6,0.1,1.2-0.4,1.3-1.1c0-0.1,0-0.1,0-0.2v-1.2
	C51.2,58.7,50.7,58.2,50,58.2C50,58.2,50,58.2,50,58.2z"/>
</svg>
