<svg xmlns="http://www.w3.org/2000/svg" viewBox="0 0 31.67 50"><defs><style>.cls-1{fill:#fff;}</style></defs><title>Asset 3</title><g id="Layer_2" data-name="Layer 2"><g id="Layer_1-2" data-name="Layer 1"><path class="cls-1" d="M29.17,0H2.5a2.5,2.5,0,0,0,0,5H29.17a2.5,2.5,0,0,0,0-5Zm0,3.33H2.5a.83.83,0,0,1,0-1.66H29.17a.83.83,0,1,1,0,1.66Z"/><path class="cls-1" d="M29.17,45H2.5a2.5,2.5,0,0,0,0,5H29.17a2.5,2.5,0,0,0,0-5Zm0,3.33H2.5a.83.83,0,0,1,0-1.66H29.17a.83.83,0,0,1,0,1.66Z"/><path class="cls-1" d="M21.77,21.91A22.26,22.26,0,0,0,28.33,6.07V4.17a.84.84,0,0,0-.83-.84H4.17a.85.85,0,0,0-.84.84v1.9A22.26,22.26,0,0,0,9.89,21.91l.84.83a3.19,3.19,0,0,1,0,4.52l-.84.83A22.26,22.26,0,0,0,3.33,43.93v1.9a.85.85,0,0,0,.84.84H27.5a.84.84,0,0,0,.83-.84v-1.9a22.26,22.26,0,0,0-6.56-15.84l-.84-.83a3.21,3.21,0,0,1,0-4.52Zm-2-.34a4.83,4.83,0,0,0,0,6.86l.83.84a20.61,20.61,0,0,1,6.08,14.66V45H5V43.93a20.64,20.64,0,0,1,6.07-14.66l.84-.84a4.85,4.85,0,0,0,0-6.86l-.84-.84A20.64,20.64,0,0,1,5,6.07V5H26.67V6.07a20.61,20.61,0,0,1-6.08,14.66Z"/><path class="cls-1" d="M22.88,14a1.21,1.21,0,0,0-1.21-.71c-4.33,0-6.26-.92-7-1.48a3.56,3.56,0,0,0-3.28-.48,3.3,3.3,0,0,0-2.1,2.26,2.33,2.33,0,0,0-.09.46.94.94,0,0,0,.1.49,18.89,18.89,0,0,0,3,4.14l.84.83A6.49,6.49,0,0,1,15,24.17a.83.83,0,0,0,.83.83.84.84,0,0,0,.84-.83,6.46,6.46,0,0,1,1.91-4.62l.83-.83.77-.74C22.34,16,23.24,15,22.88,14ZM19,16.77c-.31.29-.59.55-.8.77l-.84.84a8,8,0,0,0-1.57,2.18,8.14,8.14,0,0,0-1.56-2.18l-.84-.84A16.23,16.23,0,0,1,10.88,14a1.62,1.62,0,0,1,1-1.09,1.88,1.88,0,0,1,1.74.26c1.07.77,3.16,1.68,7.17,1.79C20.31,15.57,19.51,16.33,19,16.77Z"/><path class="cls-1" d="M24.94,42.43a7.23,7.23,0,0,0-2.54-5.12l-.53-.55A5.57,5.57,0,0,0,17.81,35h-4a5.55,5.55,0,0,0-4,1.76l-.53.55a7.24,7.24,0,0,0-2.55,5.13.9.9,0,0,0,.22.63.83.83,0,0,0,.61.26H24.11a.82.82,0,0,0,.83-.9ZM8.5,41.67a5.84,5.84,0,0,1,2-3.2c.17-.18.36-.37.54-.57a3.93,3.93,0,0,1,2.84-1.23h4a3.9,3.9,0,0,1,2.84,1.23l.55.57a5.77,5.77,0,0,1,2,3.2Z"/><path class="cls-1" d="M15.81,26.67a.84.84,0,0,0-.84.83v.83a.85.85,0,0,0,.84.84.84.84,0,0,0,.83-.84V27.5A.83.83,0,0,0,15.81,26.67Z"/><path class="cls-1" d="M15.81,30.83a.85.85,0,0,0-.84.84v.83a.84.84,0,0,0,.84.83.83.83,0,0,0,.83-.83v-.83A.84.84,0,0,0,15.81,30.83Z"/></g></g></svg>