<svg xmlns="http://www.w3.org/2000/svg" viewBox="0 0 63.29 51.75"><defs><style>.cls-1{fill:#fff;}</style></defs><title>Asset 15</title><g id="Layer_2" data-name="Layer 2"><g id="Layer_1-2" data-name="Layer 1"><path class="cls-1" d="M20.23,51.75A36.55,36.55,0,0,1,.4,46,.87.87,0,0,1,1,44.35a23,23,0,0,0,2.9.16,24.69,24.69,0,0,0,13.27-3.89A13.62,13.62,0,0,1,6.92,31.49a.87.87,0,0,1,.18-.86.9.9,0,0,1,.84-.27,8.46,8.46,0,0,0,1.67.19A13.58,13.58,0,0,1,2.46,18.62v-.14a.87.87,0,0,1,1.3-.76,11.74,11.74,0,0,0,2.38,1,13.51,13.51,0,0,1-1.74-16,.88.88,0,0,1,1.44-.12A35,35,0,0,0,30.11,15.43,14.92,14.92,0,0,1,30,13.49,13.48,13.48,0,0,1,53,3.91a24.07,24.07,0,0,0,7.27-2.85.88.88,0,0,1,1.28,1,13.33,13.33,0,0,1-3.07,5.17A24.74,24.74,0,0,0,62.06,6a.88.88,0,0,1,1.08,1.29A26.14,26.14,0,0,1,57,13.78c0,.39,0,.79,0,1.19a37.58,37.58,0,0,1-2.59,13.46,39.8,39.8,0,0,1-2.92,5.93.88.88,0,0,1-1.5-.91,36.56,36.56,0,0,0,2.78-5.65A35.66,35.66,0,0,0,55.26,15c0-.54,0-1.06,0-1.58a.87.87,0,0,1,.36-.76,23.53,23.53,0,0,0,4.33-4,27.55,27.55,0,0,1-4.66,1A.87.87,0,0,1,54.7,8a11.85,11.85,0,0,0,4.19-4.28,27,27,0,0,1-6,2,.88.88,0,0,1-.8-.26,11.74,11.74,0,0,0-20.31,8A12.18,12.18,0,0,0,32,16.18a.86.86,0,0,1-.19.75.83.83,0,0,1-.71.32A36.75,36.75,0,0,1,5.34,4.74a11.59,11.59,0,0,0-1,4.81,11.73,11.73,0,0,0,5.21,9.76.86.86,0,0,1,.35,1,.9.9,0,0,1-.85.61,13.07,13.07,0,0,1-4.74-1,11.83,11.83,0,0,0,9.34,10.25.88.88,0,0,1,.7.83.89.89,0,0,1-.65.87,13.23,13.23,0,0,1-3.53.45c-.37,0-.71,0-1,0a11.85,11.85,0,0,0,10.44,6.85.88.88,0,0,1,.53,1.57A26.45,26.45,0,0,1,4.45,46.26,35,35,0,0,0,20.23,50a34,34,0,0,0,23.64-9A35.47,35.47,0,0,0,48,36.43a.87.87,0,0,1,1.4,1,36.37,36.37,0,0,1-4.34,4.83A35.71,35.71,0,0,1,20.23,51.75Z"/></g></g></svg>