<svg id="Twitter" xmlns="http://www.w3.org/2000/svg" viewBox="0 0 100 100"><defs><style>.cls-1{fill:#fff;}</style></defs><title>Artboard 1</title><path class="cls-1" d="M92.53,23.43a1.2,1.2,0,0,0-1.39-.32,34.6,34.6,0,0,1-4.87,1.7,18,18,0,0,0,4.15-7,1.18,1.18,0,0,0-1.73-1.37,32.76,32.76,0,0,1-9.82,3.85,18.25,18.25,0,0,0-31.1,13,19.72,19.72,0,0,0,.16,2.62A47.4,47.4,0,0,1,15.09,18.55a1.17,1.17,0,0,0-1-.44,1.21,1.21,0,0,0-.93.59A18.29,18.29,0,0,0,15.5,40.31,16.41,16.41,0,0,1,12.28,39a1.18,1.18,0,0,0-1.75,1v.19a18.37,18.37,0,0,0,9.66,16.13,11.89,11.89,0,0,1-2.26-.25,1.19,1.19,0,0,0-1.13.36,1.18,1.18,0,0,0-.25,1.16A18.44,18.44,0,0,0,30.41,70a33.38,33.38,0,0,1-17.95,5.26A29.29,29.29,0,0,1,8.53,75a1.19,1.19,0,0,0-1.26.77,1.18,1.18,0,0,0,.47,1.4A49.3,49.3,0,0,0,34.56,85c13,0,24.61-4.42,33.59-12.78A48.66,48.66,0,0,0,74,65.69a1.18,1.18,0,1,0-1.89-1.42,46.63,46.63,0,0,1-5.58,6.22c-8.54,7.94-19.6,12.14-32,12.14a47.2,47.2,0,0,1-21.35-5.06,35.67,35.67,0,0,0,21.14-7.52,1.18,1.18,0,0,0-.7-2.12,16,16,0,0,1-14.14-9.27c.44,0,.9,0,1.4,0a18.14,18.14,0,0,0,4.78-.6,1.18,1.18,0,0,0-.07-2.3A16,16,0,0,1,13,41.93a17.92,17.92,0,0,0,6.41,1.36,1.23,1.23,0,0,0,1.15-.83,1.19,1.19,0,0,0-.47-1.34A15.86,15.86,0,0,1,13,27.92a15.67,15.67,0,0,1,1.4-6.5A49.68,49.68,0,0,0,49.29,38.33a1.14,1.14,0,0,0,1-.42,1.2,1.2,0,0,0,.24-1,16.65,16.65,0,0,1-.36-3.63A15.88,15.88,0,0,1,77.61,22.39a1.17,1.17,0,0,0,1.09.35,35.77,35.77,0,0,0,8.16-2.66,15.92,15.92,0,0,1-5.68,5.79,1.18,1.18,0,0,0,.76,2.19,37.62,37.62,0,0,0,6.29-1.35,32,32,0,0,1-5.85,5.38,1.18,1.18,0,0,0-.5,1c0,.7.07,1.41.07,2.15A48.24,48.24,0,0,1,78.6,52.6a51.24,51.24,0,0,1-3.77,7.65,1.18,1.18,0,0,0,2,1.22,52.2,52.2,0,0,0,3.94-8,50.54,50.54,0,0,0,3.51-18.2c0-.56,0-1.09,0-1.63a35.4,35.4,0,0,0,8.32-8.78A1.17,1.17,0,0,0,92.53,23.43Z"/></svg>