<?xml version="1.0" encoding="utf-8"?>
<!-- Generator: Adobe Illustrator 24.0.3, SVG Export Plug-In . SVG Version: 6.00 Build 0)  -->
<svg version="1.1" id="Wash_Hands" xmlns="http://www.w3.org/2000/svg" xmlns:xlink="http://www.w3.org/1999/xlink" x="0px" y="0px"
	 viewBox="0 0 100 100" style="enable-background:new 0 0 100 100;" xml:space="preserve">
<style type="text/css">
	.st0{fill:#006064;}
</style>
<title>Artboard 1</title>
<path class="st0" d="M47.9,65.5h5.5c0.7,0.1,1.4-0.5,1.4-1.2c0.1-0.7-0.5-1.4-1.2-1.4c-0.1,0-0.2,0-0.2,0h-5.5
	c-0.7-0.1-1.4,0.5-1.4,1.2c-0.1,0.7,0.5,1.4,1.2,1.4C47.7,65.5,47.8,65.5,47.9,65.5z"/>
<path class="st0" d="M84.4,33.4c3.1,0,5.7-2.5,5.7-5.6c0-3.1-2.5-5.7-5.6-5.7c-3.1,0-5.7,2.5-5.7,5.6c0,0,0,0,0,0
	C78.8,30.9,81.3,33.4,84.4,33.4z M84.4,24.8c1.7,0,3,1.3,3,3s-1.3,3-3,3s-3-1.3-3-3S82.8,24.8,84.4,24.8z"/>
<path class="st0" d="M75.4,24.2c2.5,0,4.6-2.1,4.6-4.6S77.9,15,75.4,15c-2.5,0-4.6,2.1-4.6,4.6c0,0,0,0,0,0
	C70.8,22.1,72.8,24.2,75.4,24.2z M75.4,17.6c1.1,0,2,0.9,2,2s-0.9,2-2,2s-2-0.9-2-2S74.3,17.6,75.4,17.6
	C75.4,17.6,75.4,17.6,75.4,17.6z"/>
<path class="st0" d="M95,59.3c0-3.4-2.8-6.2-6.2-6.2l0,0c0-0.6,0-1.1-0.1-1.7c-0.1-0.7-0.8-1.2-1.5-1.1c-0.7,0.1-1.1,0.7-1.1,1.4
	c0.6,4.7-1.7,9.3-5.8,11.6c2.2-2.6,1.9-6.5-0.7-8.7c-1.1-1-2.5-1.5-4-1.5h-0.8c0.7-1,1.1-2.3,1.1-3.5c0-3.4-2.8-6.2-6.2-6.2H56.9v0
	c0.2-4.5,4-7.9,8.4-7.7c1.2,0.1,2.4,0.4,3.5,1c0.9,0.5,2,0.4,2.8-0.3c2-1.9,5.2-1.8,7.1,0.3c1.1,1.2,1.6,2.8,1.3,4.4
	c-0.2,0.9,0.2,1.9,1,2.5c1.2,0.8,2.3,1.9,3.1,3.1c0.3,0.7,1.1,0.9,1.8,0.6s0.9-1.1,0.6-1.8c-0.1-0.1-0.1-0.2-0.2-0.3
	c-1-1.5-2.3-2.8-3.8-3.8c0.7-4.2-2.2-8.2-6.4-8.8C74,32,71.7,32.7,70,34.1c-2-1.1-4.3-1.5-6.6-1.1c-2-2-5-2.4-7.5-1l-4.6,2.7
	c-1.5-3.1-5.2-4.4-8.3-2.9c-0.1,0.1-0.3,0.1-0.4,0.2L24.1,42.7c-0.6,0.4-0.7,1.3-0.2,1.9c0.4,0.5,1,0.6,1.6,0.4L44,34.3
	c1.7-1,3.9-0.4,4.9,1.3s0.4,3.9-1.3,4.9l-5.3,3c-0.6,0.4-0.9,1.2-0.5,1.8c0.2,0.4,0.6,0.7,1.1,0.7h26.8c2-0.1,3.6,1.4,3.7,3.4
	s-1.4,3.6-3.4,3.7c-0.1,0-0.3,0-0.4,0H47.9c-0.7,0-1.3,0.6-1.3,1.3c0,0.7,0.6,1.3,1.3,1.3h27.7c2,0,3.6,1.6,3.6,3.6
	c0,2-1.6,3.6-3.6,3.6h-16c-0.7-0.1-1.4,0.5-1.4,1.2c-0.1,0.7,0.5,1.4,1.2,1.4c0.1,0,0.2,0,0.2,0h10.2c2,0,3.6,1.6,3.6,3.6
	c0,2-1.6,3.6-3.6,3.6H47.9c-0.7,0-1.3,0.6-1.3,1.3c0,0.7,0.6,1.3,1.3,1.3h15.3c2-0.1,3.6,1.4,3.7,3.4s-1.4,3.6-3.4,3.7
	c-0.1,0-0.3,0-0.4,0H28.6c-4.1,0-8-1.3-11.2-3.8c-2.3-1.8-5.1-2.7-8-2.7H7.6V52.5h1.8c2.9,0,5.7-1,8-2.7c0.8-0.6,1.7-1.2,2.5-1.6
	c0.7-0.3,0.9-1.1,0.6-1.8c-0.3-0.7-1.1-0.9-1.8-0.6c0,0-0.1,0-0.1,0.1c-1,0.5-2,1.2-2.9,1.9c-1.8,1.4-4.1,2.2-6.4,2.2H6.3
	c-0.7,0-1.3,0.6-1.3,1.3v25.9c0,0.7,0.6,1.3,1.3,1.3h3.1c2.3,0,4.5,0.7,6.3,2.1C19.4,83.5,24,85,28.6,85h47.9c3.4,0,6.2-2.8,6.2-6.2
	c0-1.3-0.4-2.5-1.1-3.6H83c3.4,0,6.2-2.8,6.2-6.2c0-1.3-0.4-2.5-1.1-3.6h0.8C92.2,65.5,95,62.7,95,59.3z M51.9,37.4l5.3-3.1
	c0.9-0.5,2-0.6,2.9-0.3c-3.5,1.7-5.8,5.3-5.9,9.2v0.2h-6.5C48.1,43.1,51.9,41.7,51.9,37.4z M76.5,82.4h-8.2c1.5-2.1,1.5-5,0-7.1h8.2
	c2,0.1,3.5,1.8,3.4,3.7C79.8,80.8,78.3,82.3,76.5,82.4z M83,72.6h-8.2c1.1-1.5,1.4-3.4,0.9-5.2c2.1-0.2,4.2-0.9,6-1.9H83
	c2,0,3.6,1.6,3.6,3.6C86.6,71,85,72.6,83,72.6z M85,62.9c1.8-2,3.1-4.5,3.6-7.1h0.2c2,0,3.6,1.6,3.6,3.6s-1.6,3.6-3.6,3.6
	c0,0,0,0,0,0H85z"/>
</svg>
