<svg id="Wash_Hands" xmlns="http://www.w3.org/2000/svg" viewBox="0 0 100 100"><defs><style>.cls-1{fill:#fff;}</style></defs><title>Artboard 1</title><path class="cls-1" d="M47.86,65.49h5.52a1.32,1.32,0,1,0,0-2.63H47.86a1.32,1.32,0,1,0,0,2.63Z"/><path class="cls-1" d="M84.42,33.43a5.65,5.65,0,1,0-5.64-5.65A5.66,5.66,0,0,0,84.42,33.43Zm0-8.66a3,3,0,1,1-3,3A3,3,0,0,1,84.42,24.77Z"/><path class="cls-1" d="M75.37,24.2a4.6,4.6,0,1,0-4.6-4.6A4.61,4.61,0,0,0,75.37,24.2Zm0-6.56a2,2,0,1,1-2,2A2,2,0,0,1,75.37,17.64Z"/><path class="cls-1" d="M95,59.3a6.21,6.21,0,0,0-6.2-6.2h0a13.41,13.41,0,0,0-.09-1.68,1.32,1.32,0,0,0-2.62.29,11.76,11.76,0,0,1-5.85,11.6A6.19,6.19,0,0,0,75.54,53.1h-.75a6.12,6.12,0,0,0,1.13-3.55,6.21,6.21,0,0,0-6.2-6.2H56.9V43.3a8.1,8.1,0,0,1,11.92-6.79,2.43,2.43,0,0,0,2.78-.32A5.05,5.05,0,0,1,80,40.82,2.49,2.49,0,0,0,81,43.29a11.73,11.73,0,0,1,3.14,3.14A1.32,1.32,0,1,0,86.33,45a14.34,14.34,0,0,0-3.75-3.78A7.7,7.7,0,0,0,70,34.12,10.81,10.81,0,0,0,63.4,33a6.21,6.21,0,0,0-7.48-1L51.3,34.7A6.19,6.19,0,0,0,42.63,32L24.09,42.74A1.32,1.32,0,0,0,25.41,45L44,34.32a3.55,3.55,0,1,1,3.55,6.16l-5.27,3.05A1.32,1.32,0,0,0,42.89,46H69.72a3.56,3.56,0,1,1,0,7.11H47.86a1.32,1.32,0,0,0,0,2.64H75.54a3.56,3.56,0,0,1,0,7.12h-16a1.32,1.32,0,1,0,0,2.63H69.72a3.56,3.56,0,0,1,0,7.12H47.86a1.32,1.32,0,0,0,0,2.64H63.2a3.56,3.56,0,1,1,0,7.11H28.6a18,18,0,0,1-11.19-3.85,13,13,0,0,0-8-2.69H7.61V52.53H9.46a13.11,13.11,0,0,0,8-2.73A18.92,18.92,0,0,1,20,48.15a1.32,1.32,0,1,0-1.25-2.32,21.14,21.14,0,0,0-2.9,1.88,10.41,10.41,0,0,1-6.38,2.18H6.29A1.32,1.32,0,0,0,5,51.21V77.14a1.32,1.32,0,0,0,1.32,1.32H9.45a10.32,10.32,0,0,1,6.33,2.13A20.59,20.59,0,0,0,28.6,85H76.5a6.2,6.2,0,0,0,6.19-6.2,6.12,6.12,0,0,0-1.12-3.55H83a6.19,6.19,0,0,0,5.07-9.76h.75A6.2,6.2,0,0,0,95,59.3ZM51.92,37.39l5.32-3.07A3.55,3.55,0,0,1,60.18,34a10.73,10.73,0,0,0-5.92,9.15v.16H47.81C48.07,43.11,51.92,41.71,51.92,37.39Zm24.58,45H68.27a6.16,6.16,0,0,0,0-7.11H76.5a3.56,3.56,0,0,1,0,7.11ZM83,72.61H74.79a6.22,6.22,0,0,0,.91-5.19,14.36,14.36,0,0,0,6-1.93H83a3.56,3.56,0,0,1,0,7.12Zm2-9.75a14.31,14.31,0,0,0,3.57-7.12h.25a3.56,3.56,0,1,1,0,7.12Z"/></svg>